<?xml version="1.0" encoding="utf-8"?><svg xmlns="http://www.w3.org/2000/svg" xmlns:xlink="http://www.w3.org/1999/xlink"><symbol fill="none" viewBox="0 0 32 32" id="fb" xmlns="http://www.w3.org/2000/svg"><path d="M18.14 27V16.965h3.243l.486-3.911h-3.73v-2.497c0-1.132.304-1.904 1.867-1.904L22 8.652V5.154C21.655 5.106 20.471 5 19.095 5c-2.875 0-4.843 1.823-4.843 5.17v2.884H11v3.91h3.252V27h3.888z" fill="#fff"/></symbol><symbol fill="none" viewBox="0 0 32 32" id="in" xmlns="http://www.w3.org/2000/svg"><path fill-rule="evenodd" clip-rule="evenodd" d="M16 8.653c2.392 0 2.678.012 3.623.052.872.041 1.347.187 1.662.31.39.144.743.373 1.033.67.297.29.525.641.668 1.03.123.316.269.79.31 1.662.04.946.052 1.232.052 3.624 0 2.391-.012 2.677-.056 3.623-.047.872-.193 1.347-.315 1.662-.17.42-.36.715-.672 1.033a2.827 2.827 0 01-1.032.667c-.312.124-.793.27-1.669.31-.95.04-1.23.052-3.629.052-2.398 0-2.677-.012-3.629-.055-.872-.047-1.353-.193-1.668-.316a2.811 2.811 0 01-1.03-.671 2.692 2.692 0 01-.67-1.033c-.126-.311-.27-.793-.316-1.668l-.005-.16c-.029-.821-.042-1.211-.042-3.458 0-2.241.013-2.635.041-3.462l.006-.167c.046-.875.19-1.356.315-1.668.155-.426.356-.717.67-1.033a2.672 2.672 0 011.03-.671c.316-.123.785-.269 1.66-.312l.072-.003c.895-.032 1.22-.044 3.554-.044l.037.026zm-1.76 3.098a4.598 4.598 0 015.013.997 4.598 4.598 0 010 6.506 4.598 4.598 0 01-6.506 0 4.597 4.597 0 01-.997-5.013 4.598 4.598 0 012.49-2.49zm7.305.227c.202-.201.315-.475.316-.76a1.078 1.078 0 00-1.837-.76 1.075 1.075 0 101.52 1.52z" fill="#fff"/><path fill-rule="evenodd" clip-rule="evenodd" d="M16 7.04c-2.436 0-2.74.012-3.693.052-.957.047-1.604.196-2.175.417-.598.226-1.14.58-1.587 1.036a4.345 4.345 0 00-1.036 1.587c-.221.57-.37 1.218-.417 2.175-.043.954-.052 1.257-.052 3.693s.012 2.74.052 3.693c.047.954.196 1.604.417 2.175.226.598.58 1.14 1.036 1.587.446.458.988.811 1.587 1.036.57.219 1.221.37 2.175.417.954.043 1.257.052 3.693.052s2.74-.012 3.693-.052c.954-.047 1.604-.199 2.175-.417a4.394 4.394 0 001.587-1.036 4.322 4.322 0 001.036-1.586c.219-.572.37-1.222.417-2.176.043-.954.052-1.257.052-3.693s-.012-2.74-.052-3.693c-.047-.954-.199-1.607-.417-2.175a4.394 4.394 0 00-1.036-1.587 4.321 4.321 0 00-1.586-1.036c-.572-.221-1.222-.37-2.176-.417-.954-.043-1.257-.052-3.693-.052zm0 1.613c2.392 0 2.678.012 3.623.052.872.041 1.347.187 1.662.31.39.144.743.373 1.033.67.297.29.525.641.668 1.03.123.316.269.79.31 1.662.04.946.052 1.232.052 3.624 0 2.391-.012 2.677-.056 3.623-.047.872-.193 1.347-.315 1.662-.17.42-.36.715-.672 1.033a2.827 2.827 0 01-1.032.667c-.312.124-.793.27-1.669.31-.95.04-1.23.052-3.629.052-2.398 0-2.677-.012-3.629-.055-.872-.047-1.353-.193-1.668-.316a2.811 2.811 0 01-1.03-.671 2.692 2.692 0 01-.67-1.033c-.126-.311-.27-.793-.316-1.668l-.005-.16c-.029-.821-.042-1.211-.042-3.458 0-2.241.013-2.635.041-3.462l.006-.167c.046-.875.19-1.356.315-1.668.155-.426.356-.717.67-1.033a2.672 2.672 0 011.03-.671c.316-.123.785-.269 1.66-.312l.072-.003c.895-.032 1.22-.044 3.554-.044l.037.026z" fill="#fff"/><path d="M16 18.988a2.985 2.985 0 01-2.987-2.987A2.985 2.985 0 0116 13.014a2.985 2.985 0 012.987 2.987A2.985 2.985 0 0116 18.988z" fill="#fff"/></symbol><symbol fill="none" viewBox="0 0 26 26" id="load" xmlns="http://www.w3.org/2000/svg"><path fill="#fff" fill-opacity=".01" style="mix-blend-mode:multiply" d="M0 0h26v26H0z"/><path d="M22.75 16.25v4.333a2.167 2.167 0 01-2.167 2.167H5.417a2.167 2.167 0 01-2.167-2.167V16.25m4.333-5.417L13 16.25m0 0l5.417-5.417M13 16.25v-13" stroke="#111" stroke-width="2" stroke-linecap="round" stroke-linejoin="round"/></symbol><symbol fill="none" viewBox="0 0 32 32" id="vk" xmlns="http://www.w3.org/2000/svg"><path d="M8.334 10H6c-.666 0-.8.314-.8.66 0 .618.791 3.683 3.683 7.737 1.929 2.769 4.645 4.27 7.117 4.27 1.483 0 1.667-.334 1.667-.908v-2.092c0-.667.14-.8.61-.8.346 0 .94.173 2.324 1.508 1.582 1.582 1.843 2.292 2.733 2.292h2.333c.666 0 1-.334.808-.992-.21-.655-.966-1.606-1.969-2.734-.543-.643-1.36-1.335-1.606-1.68-.346-.446-.247-.644 0-1.04l.041-.058c.352-.5 2.823-4.043 3.098-5.305.148-.495 0-.858-.706-.858H23c-.593 0-.867.314-1.015.66 0 0-1.186 2.892-2.867 4.77-.544.545-.791.718-1.088.718-.149 0-.363-.173-.363-.668v-4.622c0-.594-.172-.858-.667-.858h-3.666c-.371 0-.594.275-.594.536 0 .563.84.693.927 2.275v3.436c0 .753-.136.89-.433.89-.79 0-2.715-2.906-3.856-6.23C9.154 10.261 8.93 10 8.334 10z" fill="#fff"/></symbol></svg>