<svg width="375" height="571" viewBox="0 0 375 571" fill="none" xmlns="http://www.w3.org/2000/svg">
<g filter="url(#filter0_i)">
<rect x="189" y="83" width="186" height="186" rx="93" fill="url(#paint0_radial)"/>
<path d="M262.771 166V142.8H258.771C257.747 145.328 256.147 146.448 252.243 146.544V150.416H257.523V166H262.771ZM271.988 158.384C271.988 155.824 273.46 154.256 275.764 154.256C278.068 154.256 279.444 155.952 279.444 158.384C279.444 160.912 278.068 162.512 275.764 162.512C273.46 162.512 271.988 160.912 271.988 158.384ZM276.084 146.224C277.748 146.224 279.156 146.928 279.412 149.104H284.596C284.34 145.424 281.748 142.416 276.372 142.416C269.3 142.416 266.42 148.176 266.42 154.96C266.42 161.392 269.172 166.416 275.764 166.416C281.044 166.416 284.852 163.28 284.852 158.384C284.852 153.648 281.108 150.288 276.916 150.288C274.612 150.288 273.076 150.96 271.924 151.984C271.828 148.048 273.652 146.224 276.084 146.224Z" fill="white"/>
<path d="M293.648 151.024C294.224 151.024 294.672 150.811 294.992 150.384C295.312 149.936 295.472 149.328 295.472 148.56C295.472 147.792 295.312 147.195 294.992 146.768C294.672 146.341 294.224 146.128 293.648 146.128C293.051 146.128 292.582 146.341 292.24 146.768C291.92 147.195 291.76 147.781 291.76 148.528C291.76 150.192 292.39 151.024 293.648 151.024ZM298.064 152.656C296.934 153.787 295.451 154.352 293.616 154.352C291.782 154.352 290.31 153.797 289.2 152.688C288.112 151.643 287.568 150.267 287.568 148.56C287.568 146.917 288.155 145.563 289.328 144.496C290.459 143.408 291.899 142.864 293.648 142.864C295.355 142.864 296.795 143.387 297.968 144.432C299.12 145.541 299.696 146.885 299.696 148.464C299.696 150.128 299.152 151.525 298.064 152.656ZM306.416 143.12H309.552L293.68 166H290.544L306.416 143.12ZM304.528 160.56C304.528 162.203 305.147 163.024 306.384 163.024C307.622 163.024 308.24 162.203 308.24 160.56C308.24 158.96 307.622 158.16 306.384 158.16C305.808 158.16 305.35 158.373 305.008 158.8C304.688 159.227 304.528 159.813 304.528 160.56ZM310.8 164.688C309.67 165.819 308.187 166.384 306.352 166.384C304.518 166.384 303.046 165.829 301.936 164.72C300.848 163.675 300.304 162.299 300.304 160.592C300.304 158.949 300.891 157.595 302.064 156.528C303.195 155.44 304.635 154.896 306.384 154.896C308.155 154.896 309.595 155.419 310.704 156.464C311.856 157.552 312.432 158.896 312.432 160.496C312.432 162.16 311.888 163.557 310.8 164.688Z" fill="white"/>
<path d="M225.574 179.85H222.396V190H223.824V185.982H225.574C228.052 185.982 229.788 185.436 229.788 182.916C229.788 180.41 228.052 179.85 225.574 179.85ZM223.824 181.054H225.686C227.17 181.054 228.332 181.264 228.332 182.916C228.332 184.582 227.17 184.736 225.686 184.736H223.824V181.054ZM230.828 191.386V192.45H231.486C233.166 192.45 233.558 191.96 234.104 190.322L236.792 182.468H235.462L233.6 188.278L231.682 182.468H230.268L232.984 190L232.928 190.154C232.592 191.33 232.186 191.386 231.346 191.386H230.828ZM240.188 186.654L242.778 190H244.36L241.224 186.024L244.066 182.468H242.554L240.16 185.548H239.222V182.468H237.934V190H239.222V186.654H240.188ZM251.968 186.262C251.968 183.532 250.106 182.342 248.356 182.342C246.606 182.342 244.744 183.532 244.744 186.262C244.744 188.992 246.606 190.182 248.356 190.182C250.106 190.182 251.968 188.992 251.968 186.262ZM248.356 189.062C247.208 189.062 246.102 188.264 246.102 186.262C246.102 184.204 247.208 183.462 248.356 183.462C249.504 183.462 250.61 184.26 250.61 186.262C250.61 188.194 249.504 189.062 248.356 189.062ZM256.837 182.468H253.561V190H257.061C258.671 190 259.889 189.37 259.889 187.802C259.889 186.794 259.301 186.262 258.531 186.038C259.217 185.744 259.581 185.184 259.581 184.386C259.581 182.86 258.349 182.468 256.837 182.468ZM256.753 185.632H254.835V183.574H256.711C257.649 183.574 258.251 183.742 258.251 184.526C258.251 185.38 257.677 185.632 256.753 185.632ZM254.835 188.894V186.682H256.823C257.985 186.682 258.559 186.962 258.559 187.788C258.559 188.572 257.985 188.894 256.865 188.894H254.835ZM268.046 186.262C268.046 183.532 266.184 182.342 264.434 182.342C262.684 182.342 260.822 183.532 260.822 186.262C260.822 188.992 262.684 190.182 264.434 190.182C266.184 190.182 268.046 188.992 268.046 186.262ZM264.434 189.062C263.286 189.062 262.18 188.264 262.18 186.262C262.18 184.204 263.286 183.462 264.434 183.462C265.582 183.462 266.688 184.26 266.688 186.262C266.688 188.194 265.582 189.062 264.434 189.062ZM276.545 191.666V188.894H275.495V182.468H270.413L270.315 184.89C270.189 187.774 269.755 188.894 268.901 188.894H268.565V191.666H269.797V190H275.313V191.666H276.545ZM274.221 183.574V188.894H270.553C271.141 188.32 271.463 187.256 271.575 185.016L271.645 183.574H274.221ZM282.995 184.316V190H284.269V182.468H282.995L279.103 188.152V182.468H277.829V190H279.103L282.995 184.316ZM289.411 183.574H291.987V182.468H285.561V183.574H288.137V190H289.411V183.574ZM293.816 186.654H299.612C299.78 184.274 298.394 182.342 296.098 182.342C294.04 182.342 292.444 183.868 292.444 186.248C292.444 188.474 293.76 190.182 296.14 190.182C297.974 190.182 299.164 189.118 299.514 187.816H298.198C297.876 188.558 297.26 189.062 296.14 189.062C295.02 189.062 293.872 188.278 293.816 186.654ZM293.83 185.562C293.942 184.05 294.964 183.434 296.098 183.434C297.442 183.434 298.24 184.498 298.268 185.562H293.83ZM307.131 190V182.468H302.105L301.993 185.044C301.839 188.166 301.195 188.894 300.523 188.894H300.383V190H300.621C302.385 190 303.015 188.432 303.211 185.394L303.323 183.574H305.857V190H307.131ZM310.072 186.654H315.868C316.036 184.274 314.65 182.342 312.354 182.342C310.296 182.342 308.7 183.868 308.7 186.248C308.7 188.474 310.016 190.182 312.396 190.182C314.23 190.182 315.42 189.118 315.77 187.816H314.454C314.132 188.558 313.516 189.062 312.396 189.062C311.276 189.062 310.128 188.278 310.072 186.654ZM310.086 185.562C310.198 184.05 311.22 183.434 312.354 183.434C313.698 183.434 314.496 184.498 314.524 185.562H310.086ZM320.698 181.544C322.294 181.544 322.84 180.69 322.938 179.85H321.944C321.888 180.298 321.524 180.704 320.712 180.704C319.9 180.704 319.55 180.298 319.494 179.85H318.5C318.584 180.69 319.144 181.544 320.698 181.544ZM322.602 184.316V190H323.876V182.468H322.602L318.71 188.152V182.468H317.436V190H318.71L322.602 184.316ZM334.524 184.316V190H335.798V182.468H334.524L330.632 188.152V182.468H329.358V190H330.632L334.524 184.316ZM343.516 187.858C343.516 186.836 342.788 186.29 341.99 186.052C342.662 185.73 343.18 185.184 343.18 184.428C343.18 183 341.808 182.3 340.324 182.3C338.742 182.3 337.51 183.154 337.258 184.792H338.574C338.742 183.756 339.47 183.42 340.394 183.42C341.206 183.42 341.864 183.742 341.864 184.456C341.864 185.24 341.318 185.632 340.45 185.632H339.316V186.682H340.52C341.584 186.682 342.158 187.046 342.158 187.914C342.158 188.628 341.472 189.118 340.422 189.118C339.344 189.118 338.616 188.67 338.42 187.704H337.132C337.384 189.426 338.742 190.182 340.338 190.182C342.018 190.182 343.516 189.482 343.516 187.858ZM221.482 205.988C221.314 204.714 220.152 203.342 218.332 203.342C216.106 203.342 214.692 205.008 214.692 207.248C214.692 209.544 216.05 211.182 218.206 211.182C219.956 211.182 221.314 209.964 221.566 208.55H220.25C220.068 209.348 219.312 210.062 218.248 210.062C217.128 210.062 216.078 209.152 216.078 207.234C216.078 205.344 217.114 204.462 218.248 204.462C219.228 204.462 220.012 205.092 220.194 205.988H221.482ZM227.705 203.482V200.85H226.431V203.482C224.247 203.482 222.553 204.7 222.553 207.262C222.553 209.908 224.247 211.07 226.431 211.07V213.45H227.705V211.07C229.875 211.07 231.583 209.908 231.583 207.262C231.583 204.7 229.903 203.482 227.705 203.482ZM226.431 204.574V209.978C224.947 209.978 223.911 209.138 223.911 207.304C223.911 205.456 224.961 204.574 226.431 204.574ZM227.705 209.978V204.574C229.189 204.574 230.225 205.456 230.225 207.304C230.225 209.138 229.175 209.978 227.705 209.978ZM234.043 207.654H239.839C240.007 205.274 238.621 203.342 236.325 203.342C234.267 203.342 232.671 204.868 232.671 207.248C232.671 209.474 233.987 211.182 236.367 211.182C238.201 211.182 239.391 210.118 239.741 208.816H238.425C238.103 209.558 237.487 210.062 236.367 210.062C235.247 210.062 234.099 209.278 234.043 207.654ZM234.057 206.562C234.169 205.05 235.191 204.434 236.325 204.434C237.669 204.434 238.467 205.498 238.495 206.562H234.057ZM242.681 203.468H241.407V213.45H242.681V209.866C243.143 210.664 243.941 211.182 245.145 211.182C246.867 211.182 248.365 209.754 248.365 207.262C248.365 204.784 246.867 203.342 245.145 203.342C243.941 203.342 243.143 203.86 242.681 204.658V203.468ZM244.823 210.09C243.689 210.09 242.625 209.25 242.625 207.262C242.625 205.274 243.689 204.434 244.823 204.434C246.125 204.434 246.979 205.47 246.979 207.262C246.979 209.054 246.125 210.09 244.823 210.09ZM249.938 211H252.654C254.376 211 255.482 210.37 255.482 208.508C255.482 206.912 254.614 206.128 252.668 206.128H251.212V203.468H249.938V211ZM256.728 211H258.002V203.468H256.728V211ZM251.212 209.894V207.234H252.5C253.662 207.234 254.236 207.5 254.236 208.508C254.236 209.53 253.662 209.894 252.542 209.894H251.212ZM270.151 207.262C270.151 204.532 268.289 203.342 266.539 203.342C264.789 203.342 262.927 204.532 262.927 207.262C262.927 209.992 264.789 211.182 266.539 211.182C268.289 211.182 270.151 209.992 270.151 207.262ZM266.539 210.062C265.391 210.062 264.285 209.264 264.285 207.262C264.285 205.204 265.391 204.462 266.539 204.462C267.687 204.462 268.793 205.26 268.793 207.262C268.793 209.194 267.687 210.062 266.539 210.062ZM278.311 207.472C278.311 205.092 276.841 203.902 275.133 203.902C274.027 203.902 273.005 204.406 272.501 205.442C272.683 203.566 273.579 202.866 275.399 202.474L277.807 201.956V200.822L275.329 201.312C272.305 201.914 271.395 203.496 271.367 206.212V207.08C271.367 209.824 272.963 211.182 274.909 211.182C276.757 211.182 278.311 209.894 278.311 207.472ZM276.953 207.5C276.953 209.124 276.141 210.076 274.909 210.076C273.635 210.076 272.739 209.082 272.739 207.486C272.739 205.792 273.775 205.008 274.923 205.008C276.071 205.008 276.953 205.848 276.953 207.5ZM281.085 203.468H279.811V213.45H281.085V209.866C281.547 210.664 282.345 211.182 283.549 211.182C285.271 211.182 286.769 209.754 286.769 207.262C286.769 204.784 285.271 203.342 283.549 203.342C282.345 203.342 281.547 203.86 281.085 204.658V203.468ZM283.227 210.09C282.093 210.09 281.029 209.25 281.029 207.262C281.029 205.274 282.093 204.434 283.227 204.434C284.529 204.434 285.383 205.47 285.383 207.262C285.383 209.054 284.529 210.09 283.227 210.09ZM287.825 209.012C287.825 210.398 289.001 211.182 290.415 211.182C291.745 211.182 292.529 210.734 292.991 209.964C293.005 210.412 293.047 210.72 293.089 211H294.377C294.237 210.286 294.167 209.418 294.181 208.158L294.195 206.422C294.209 204.308 293.271 203.314 291.199 203.314C289.729 203.314 288.301 204.224 288.175 205.848H289.491C289.547 204.924 290.163 204.35 291.213 204.35C292.151 204.35 292.921 204.812 292.921 206.184V206.366C289.827 206.716 287.825 207.234 287.825 209.012ZM293.019 207.374V207.85C293.019 209.628 291.885 210.174 290.695 210.174C289.785 210.174 289.239 209.698 289.239 208.984C289.239 207.948 290.709 207.612 293.019 207.374ZM301.721 208.858C301.721 207.836 300.993 207.29 300.195 207.052C300.867 206.73 301.385 206.184 301.385 205.428C301.385 204 300.013 203.3 298.529 203.3C296.947 203.3 295.715 204.154 295.463 205.792H296.779C296.947 204.756 297.675 204.42 298.599 204.42C299.411 204.42 300.069 204.742 300.069 205.456C300.069 206.24 299.523 206.632 298.655 206.632H297.521V207.682H298.725C299.789 207.682 300.363 208.046 300.363 208.914C300.363 209.628 299.677 210.118 298.627 210.118C297.549 210.118 296.821 209.67 296.625 208.704H295.337C295.589 210.426 296.947 211.182 298.543 211.182C300.223 211.182 301.721 210.482 301.721 208.858ZM309.895 207.262C309.895 204.532 308.033 203.342 306.283 203.342C304.533 203.342 302.671 204.532 302.671 207.262C302.671 209.992 304.533 211.182 306.283 211.182C308.033 211.182 309.895 209.992 309.895 207.262ZM306.283 210.062C305.135 210.062 304.029 209.264 304.029 207.262C304.029 205.204 305.135 204.462 306.283 204.462C307.431 204.462 308.537 205.26 308.537 207.262C308.537 209.194 307.431 210.062 306.283 210.062ZM314.765 203.468H311.489V211H314.989C316.599 211 317.817 210.37 317.817 208.802C317.817 207.794 317.229 207.262 316.459 207.038C317.145 206.744 317.509 206.184 317.509 205.386C317.509 203.86 316.277 203.468 314.765 203.468ZM314.681 206.632H312.763V204.574H314.639C315.577 204.574 316.179 204.742 316.179 205.526C316.179 206.38 315.605 206.632 314.681 206.632ZM312.763 209.894V207.682H314.751C315.913 207.682 316.487 207.962 316.487 208.788C316.487 209.572 315.913 209.894 314.793 209.894H312.763ZM318.791 209.012C318.791 210.398 319.967 211.182 321.381 211.182C322.711 211.182 323.495 210.734 323.957 209.964C323.971 210.412 324.013 210.72 324.055 211H325.343C325.203 210.286 325.133 209.418 325.147 208.158L325.161 206.422C325.175 204.308 324.237 203.314 322.165 203.314C320.695 203.314 319.267 204.224 319.141 205.848H320.457C320.513 204.924 321.129 204.35 322.179 204.35C323.117 204.35 323.887 204.812 323.887 206.184V206.366C320.793 206.716 318.791 207.234 318.791 209.012ZM323.985 207.374V207.85C323.985 209.628 322.851 210.174 321.661 210.174C320.751 210.174 320.205 209.698 320.205 208.984C320.205 207.948 321.675 207.612 323.985 207.374ZM332.128 211H333.402V203.468H332.128V206.604H328.404V203.468H327.13V211H328.404V207.71H332.128V211ZM340.718 205.316V211H341.992V203.468H340.718L336.826 209.152V203.468H335.552V211H336.826L340.718 205.316ZM349.723 211V203.468H346.769C345.047 203.468 343.969 204.252 343.969 205.792C343.969 206.912 344.627 207.64 345.565 207.962L343.283 211H344.865L346.909 208.312C347.063 208.326 347.203 208.326 347.287 208.326H348.449V211H349.723ZM346.839 204.574H348.449V207.22H346.951C346.069 207.22 345.271 206.898 345.271 205.876C345.271 204.966 345.915 204.574 346.839 204.574Z" fill="white"/>
</g>
<g filter="url(#filter1_i)">
<rect x="234" y="430" width="141" height="141" rx="70.5" fill="url(#paint1_radial)"/>
<path d="M287.135 457.816H296.015C291.815 461.008 288.815 465.616 288.815 472H293.039C293.159 465.448 295.319 461.896 300.167 457.816V454.6H287.135V457.816Z" fill="white"/>
<path d="M307.736 460.768C308.168 460.768 308.504 460.608 308.744 460.288C308.984 459.952 309.104 459.496 309.104 458.92C309.104 458.344 308.984 457.896 308.744 457.576C308.504 457.256 308.168 457.096 307.736 457.096C307.288 457.096 306.936 457.256 306.68 457.576C306.44 457.896 306.32 458.336 306.32 458.896C306.32 460.144 306.792 460.768 307.736 460.768ZM311.048 461.992C310.2 462.84 309.088 463.264 307.712 463.264C306.336 463.264 305.232 462.848 304.4 462.016C303.584 461.232 303.176 460.2 303.176 458.92C303.176 457.688 303.616 456.672 304.496 455.872C305.344 455.056 306.424 454.648 307.736 454.648C309.016 454.648 310.096 455.04 310.976 455.824C311.84 456.656 312.272 457.664 312.272 458.848C312.272 460.096 311.864 461.144 311.048 461.992ZM317.312 454.84H319.664L307.76 472H305.408L317.312 454.84ZM315.896 467.92C315.896 469.152 316.36 469.768 317.288 469.768C318.216 469.768 318.68 469.152 318.68 467.92C318.68 466.72 318.216 466.12 317.288 466.12C316.856 466.12 316.512 466.28 316.256 466.6C316.016 466.92 315.896 467.36 315.896 467.92ZM320.6 471.016C319.752 471.864 318.64 472.288 317.264 472.288C315.888 472.288 314.784 471.872 313.952 471.04C313.136 470.256 312.728 469.224 312.728 467.944C312.728 466.712 313.168 465.696 314.048 464.896C314.896 464.08 315.976 463.672 317.288 463.672C318.616 463.672 319.696 464.064 320.528 464.848C321.392 465.664 321.824 466.672 321.824 467.872C321.824 469.12 321.416 470.168 320.6 471.016Z" fill="white"/>
<path d="M264.329 493V484.3H257.537V493H258.761V485.356H263.105V493H264.329ZM266.403 486.544V495.1H267.495V492.028C267.891 492.712 268.563 493.156 269.607 493.156C271.095 493.156 272.367 491.944 272.367 489.796C272.367 487.684 271.095 486.436 269.607 486.436C268.563 486.436 267.891 486.88 267.495 487.564V486.544H266.403ZM267.447 489.796C267.447 488.092 268.359 487.372 269.331 487.372C270.447 487.372 271.179 488.248 271.179 489.796C271.179 491.344 270.447 492.22 269.331 492.22C268.359 492.22 267.447 491.5 267.447 489.796ZM279.449 490.132C279.581 488.08 278.417 486.436 276.437 486.436C274.673 486.436 273.305 487.732 273.305 489.784C273.305 491.692 274.433 493.156 276.473 493.156C278.045 493.156 279.077 492.232 279.365 491.128H278.237C277.961 491.764 277.433 492.196 276.473 492.196C275.525 492.196 274.517 491.524 274.481 490.132H279.449ZM276.437 487.372C277.601 487.372 278.261 488.284 278.297 489.196H274.493C274.589 487.9 275.477 487.372 276.437 487.372ZM286.712 492.052H285.812V486.544H281.456L281.372 488.62C281.276 491.092 280.892 492.052 280.16 492.052H279.872V494.428H280.928V493H285.656V494.428H286.712V492.052ZM284.72 492.052H281.576C282.08 491.572 282.356 490.636 282.452 488.728L282.512 487.492H284.72V492.052ZM290.429 486.436C288.521 486.436 287.309 487.864 287.309 489.784C287.309 491.752 288.461 493.156 290.321 493.156C291.833 493.156 292.973 492.112 293.201 490.9H292.073C291.917 491.572 291.281 492.196 290.357 492.196C289.397 492.196 288.497 491.404 288.497 489.772C288.497 488.152 289.397 487.396 290.357 487.396C291.209 487.396 291.869 487.936 292.025 488.704H293.129C292.973 487.6 292.013 486.436 290.429 486.436ZM299.045 487.492V486.544H293.537V487.492H295.745V493H296.837V487.492H299.045ZM303.821 490.3C303.821 491.824 302.849 492.292 301.829 492.292C301.049 492.292 300.581 491.884 300.581 491.272C300.581 490.384 301.841 490.084 303.821 489.892V490.3ZM301.589 493.156C302.741 493.156 303.401 492.784 303.797 492.112C303.809 492.496 303.845 492.76 303.881 493H304.985C304.853 492.388 304.805 491.656 304.817 490.564L304.829 489.076C304.841 487.252 304.049 486.412 302.261 486.412C301.013 486.412 299.765 487.192 299.669 488.584H300.797C300.845 487.78 301.361 487.3 302.273 487.3C303.089 487.3 303.737 487.684 303.737 488.872V489.028C301.097 489.316 299.369 489.772 299.369 491.296C299.369 492.484 300.377 493.156 301.589 493.156ZM306.516 486.544V493H309.516C310.896 493 311.94 492.46 311.94 491.116C311.94 490.252 311.448 489.796 310.776 489.604C311.376 489.352 311.676 488.872 311.676 488.188C311.676 486.88 310.62 486.544 309.324 486.544H306.516ZM307.608 489.256V487.492H309.216C310.032 487.492 310.536 487.636 310.536 488.308C310.536 489.04 310.056 489.256 309.252 489.256H307.608ZM307.608 490.156H309.312C310.32 490.156 310.8 490.384 310.8 491.104C310.8 491.776 310.308 492.052 309.348 492.052H307.608V490.156ZM317.647 493H318.739V486.544H317.647L314.311 491.416V486.544H313.219V493H314.311L317.647 488.128V493ZM325.354 487.492V486.544H319.846V487.492H322.054V493H323.146V487.492H325.354ZM331.89 490.132C332.022 488.08 330.858 486.436 328.878 486.436C327.114 486.436 325.746 487.732 325.746 489.784C325.746 491.692 326.874 493.156 328.914 493.156C330.486 493.156 331.518 492.232 331.806 491.128H330.678C330.402 491.764 329.874 492.196 328.914 492.196C327.966 492.196 326.958 491.524 326.922 490.132H331.89ZM328.878 487.372C330.042 487.372 330.702 488.284 330.738 489.196H326.934C327.03 487.9 327.918 487.372 328.878 487.372ZM338.335 486.544H334.027L333.931 488.752C333.799 491.428 333.247 492.052 332.671 492.052H332.551V493H332.755C334.255 493 334.819 491.656 334.975 489.052L335.071 487.492H337.243V493H338.335V486.544ZM345.824 490.132C345.956 488.08 344.792 486.436 342.812 486.436C341.048 486.436 339.68 487.732 339.68 489.784C339.68 491.692 340.808 493.156 342.848 493.156C344.42 493.156 345.452 492.232 345.74 491.128H344.612C344.336 491.764 343.808 492.196 342.848 492.196C341.9 492.196 340.892 491.524 340.856 490.132H345.824ZM342.812 487.372C343.976 487.372 344.636 488.284 344.672 489.196H340.868C340.964 487.9 341.852 487.372 342.812 487.372ZM351.032 484.3C350.984 484.684 350.684 485.032 349.976 485.032C349.268 485.032 348.98 484.684 348.932 484.3H348.08C348.14 485.02 348.644 485.752 349.964 485.752C351.332 485.752 351.788 485.02 351.884 484.3H351.032ZM351.596 493H352.688V486.544H351.596L348.26 491.416V486.544H347.168V493H348.26L351.596 488.128V493ZM283.012 507.796C283.012 506.032 283.948 505.396 284.944 505.396C285.94 505.396 286.876 506.068 286.876 507.796C286.876 509.452 285.94 510.196 284.944 510.196C283.948 510.196 283.012 509.524 283.012 507.796ZM284.944 504.436C283.444 504.436 281.848 505.456 281.848 507.796C281.848 510.136 283.444 511.156 284.944 511.156C286.444 511.156 288.04 510.136 288.04 507.796C288.04 505.456 286.444 504.436 284.944 504.436ZM289.406 504.544V513.1H290.498V510.028C290.894 510.712 291.566 511.156 292.61 511.156C294.098 511.156 295.37 509.944 295.37 507.796C295.37 505.684 294.098 504.436 292.61 504.436C291.566 504.436 290.894 504.88 290.498 505.564V504.544H289.406ZM290.45 507.796C290.45 506.092 291.362 505.372 292.334 505.372C293.45 505.372 294.182 506.248 294.182 507.796C294.182 509.344 293.45 510.22 292.334 510.22C291.362 510.22 290.45 509.5 290.45 507.796ZM300.835 505.492V504.544H296.719V511H297.811V505.492H300.835ZM305.825 508.3C305.825 509.824 304.853 510.292 303.833 510.292C303.053 510.292 302.585 509.884 302.585 509.272C302.585 508.384 303.845 508.084 305.825 507.892V508.3ZM303.593 511.156C304.745 511.156 305.405 510.784 305.801 510.112C305.813 510.496 305.849 510.76 305.885 511H306.989C306.857 510.388 306.809 509.656 306.821 508.564L306.833 507.076C306.845 505.252 306.053 504.412 304.265 504.412C303.017 504.412 301.769 505.192 301.673 506.584H302.801C302.849 505.78 303.365 505.3 304.277 505.3C305.093 505.3 305.741 505.684 305.741 506.872V507.028C303.101 507.316 301.373 507.772 301.373 509.296C301.373 510.484 302.381 511.156 303.593 511.156ZM313.896 511V504.544H312.804V507.232H309.612V504.544H308.52V511H309.612V508.18H312.804V511H313.896ZM316.422 507.796C316.422 506.032 317.358 505.396 318.354 505.396C319.35 505.396 320.286 506.068 320.286 507.796C320.286 509.452 319.35 510.196 318.354 510.196C317.358 510.196 316.422 509.524 316.422 507.796ZM318.354 504.436C316.854 504.436 315.258 505.456 315.258 507.796C315.258 510.136 316.854 511.156 318.354 511.156C319.854 511.156 321.45 510.136 321.45 507.796C321.45 505.456 319.854 504.436 318.354 504.436ZM322.817 504.544V511H325.817C327.197 511 328.241 510.46 328.241 509.116C328.241 508.252 327.749 507.796 327.077 507.604C327.677 507.352 327.977 506.872 327.977 506.188C327.977 504.88 326.921 504.544 325.625 504.544H322.817ZM323.909 507.256V505.492H325.517C326.333 505.492 326.837 505.636 326.837 506.308C326.837 507.04 326.357 507.256 325.553 507.256H323.909ZM323.909 508.156H325.613C326.621 508.156 327.101 508.384 327.101 509.104C327.101 509.776 326.609 510.052 325.649 510.052H323.909V508.156ZM261.719 529H262.811V522.544H261.719L258.383 527.416V522.544H257.291V529H258.383L261.719 524.128V529ZM267.278 522.436C265.37 522.436 264.158 523.864 264.158 525.784C264.158 527.752 265.31 529.156 267.17 529.156C268.682 529.156 269.822 528.112 270.05 526.9H268.922C268.766 527.572 268.13 528.196 267.206 528.196C266.246 528.196 265.346 527.404 265.346 525.772C265.346 524.152 266.246 523.396 267.206 523.396C268.058 523.396 268.718 523.936 268.874 524.704H269.978C269.822 523.6 268.862 522.436 267.278 522.436ZM276.658 522.544H271.342V529H272.434V523.492H275.566V529H276.658V522.544ZM279.186 525.796C279.186 524.032 280.122 523.396 281.118 523.396C282.114 523.396 283.05 524.068 283.05 525.796C283.05 527.452 282.114 528.196 281.118 528.196C280.122 528.196 279.186 527.524 279.186 525.796ZM281.118 522.436C279.618 522.436 278.022 523.456 278.022 525.796C278.022 528.136 279.618 529.156 281.118 529.156C282.618 529.156 284.214 528.136 284.214 525.796C284.214 523.456 282.618 522.436 281.118 522.436ZM290.587 522.544H286.279L286.183 524.752C286.051 527.428 285.499 528.052 284.923 528.052H284.803V529H285.007C286.507 529 287.071 527.656 287.227 525.052L287.323 523.492H289.495V529H290.587V522.544ZM297.812 529V522.544H296.72V525.232H293.528V522.544H292.436V529H293.528V526.18H296.72V529H297.812ZM304.082 529H305.174V522.544H304.082L300.746 527.416V522.544H299.654V529H300.746L304.082 524.128V529ZM311.79 523.492V522.544H306.282V523.492H308.49V529H309.582V523.492H311.79ZM318.326 526.132C318.458 524.08 317.294 522.436 315.314 522.436C313.55 522.436 312.182 523.732 312.182 525.784C312.182 527.692 313.31 529.156 315.35 529.156C316.922 529.156 317.954 528.232 318.242 527.128H317.114C316.838 527.764 316.31 528.196 315.35 528.196C314.402 528.196 313.394 527.524 313.358 526.132H318.326ZM315.314 523.372C316.478 523.372 317.138 524.284 317.174 525.196H313.37C313.466 523.9 314.354 523.372 315.314 523.372ZM324.77 522.544H320.462L320.366 524.752C320.234 527.428 319.682 528.052 319.106 528.052H318.986V529H319.19C320.69 529 321.254 527.656 321.41 525.052L321.506 523.492H323.678V529H324.77V522.544ZM327.711 524.824V522.544H326.619V529H329.235C330.723 529 331.659 528.46 331.659 526.864C331.659 525.484 330.939 524.824 329.247 524.824H327.711ZM327.711 528.052V525.772H329.115C330.087 525.772 330.591 526.012 330.591 526.864C330.591 527.728 330.099 528.052 329.139 528.052H327.711ZM338.265 529V522.544H337.173V525.232H333.981V522.544H332.889V529H333.981V526.18H337.173V529H338.265ZM340.792 525.796C340.792 524.032 341.728 523.396 342.724 523.396C343.72 523.396 344.656 524.068 344.656 525.796C344.656 527.452 343.72 528.196 342.724 528.196C341.728 528.196 340.792 527.524 340.792 525.796ZM342.724 522.436C341.224 522.436 339.628 523.456 339.628 525.796C339.628 528.136 341.224 529.156 342.724 529.156C344.224 529.156 345.82 528.136 345.82 525.796C345.82 523.456 344.224 522.436 342.724 522.436ZM351.05 520.3C351.002 520.684 350.702 521.032 349.994 521.032C349.286 521.032 348.998 520.684 348.95 520.3H348.098C348.158 521.02 348.662 521.752 349.982 521.752C351.35 521.752 351.806 521.02 351.902 520.3H351.05ZM351.614 529H352.706V522.544H351.614L348.278 527.416V522.544H347.186V529H348.278L351.614 524.128V529ZM285.891 540.544V547H288.891C290.271 547 291.315 546.46 291.315 545.116C291.315 544.252 290.823 543.796 290.151 543.604C290.751 543.352 291.051 542.872 291.051 542.188C291.051 540.88 289.995 540.544 288.699 540.544H285.891ZM286.983 543.256V541.492H288.591C289.407 541.492 289.911 541.636 289.911 542.308C289.911 543.04 289.431 543.256 288.627 543.256H286.983ZM286.983 544.156H288.687C289.695 544.156 290.175 544.384 290.175 545.104C290.175 545.776 289.683 546.052 288.723 546.052H286.983V544.156ZM297.694 540.544H293.386L293.29 542.752C293.158 545.428 292.606 546.052 292.03 546.052H291.91V547H292.114C293.614 547 294.178 545.656 294.334 543.052L294.43 541.492H296.602V547H297.694V540.544ZM303.551 544.3C303.551 545.824 302.579 546.292 301.559 546.292C300.779 546.292 300.311 545.884 300.311 545.272C300.311 544.384 301.571 544.084 303.551 543.892V544.3ZM301.319 547.156C302.471 547.156 303.131 546.784 303.527 546.112C303.539 546.496 303.575 546.76 303.611 547H304.715C304.583 546.388 304.535 545.656 304.547 544.564L304.559 543.076C304.571 541.252 303.779 540.412 301.991 540.412C300.743 540.412 299.495 541.192 299.399 542.584H300.527C300.575 541.78 301.091 541.3 302.003 541.3C302.819 541.3 303.467 541.684 303.467 542.872V543.028C300.827 543.316 299.099 543.772 299.099 545.296C299.099 546.484 300.107 547.156 301.319 547.156ZM308.862 540.436C306.954 540.436 305.742 541.864 305.742 543.784C305.742 545.752 306.894 547.156 308.754 547.156C310.266 547.156 311.406 546.112 311.634 544.9H310.506C310.35 545.572 309.714 546.196 308.79 546.196C307.83 546.196 306.93 545.404 306.93 543.772C306.93 542.152 307.83 541.396 308.79 541.396C309.642 541.396 310.302 541.936 310.458 542.704H311.562C311.406 541.6 310.446 540.436 308.862 540.436ZM317.479 541.492V540.544H311.971V541.492H314.179V547H315.271V541.492H317.479ZM323.014 547H324.106V540.544H323.014L319.678 545.416V540.544H318.586V547H319.678L323.014 542.128V547Z" fill="white"/>
</g>
<g filter="url(#filter2_i)">
<rect x="24" y="49" width="170" height="170" rx="85" fill="url(#paint2_radial)"/>
<path d="M93.7179 132V113.15H90.4679C89.6359 115.204 88.3359 116.114 85.1639 116.192V119.338H89.4539V132H93.7179ZM105.055 118.74V124.252H100.583L105.055 118.74ZM111.945 124.252H109.345V113.15H105.367L95.8769 124.668V128.022H105.055V132H109.345V128.022H111.945V124.252Z" fill="#111111"/>
<path d="M118.339 119.832C118.807 119.832 119.171 119.659 119.431 119.312C119.691 118.948 119.821 118.454 119.821 117.83C119.821 117.206 119.691 116.721 119.431 116.374C119.171 116.027 118.807 115.854 118.339 115.854C117.854 115.854 117.473 116.027 117.195 116.374C116.935 116.721 116.805 117.197 116.805 117.804C116.805 119.156 117.317 119.832 118.339 119.832ZM121.927 121.158C121.009 122.077 119.804 122.536 118.313 122.536C116.823 122.536 115.627 122.085 114.725 121.184C113.841 120.335 113.399 119.217 113.399 117.83C113.399 116.495 113.876 115.395 114.829 114.528C115.748 113.644 116.918 113.202 118.339 113.202C119.726 113.202 120.896 113.627 121.849 114.476C122.785 115.377 123.253 116.469 123.253 117.752C123.253 119.104 122.811 120.239 121.927 121.158ZM128.713 113.41H131.261L118.365 132H115.817L128.713 113.41ZM127.179 127.58C127.179 128.915 127.682 129.582 128.687 129.582C129.693 129.582 130.195 128.915 130.195 127.58C130.195 126.28 129.693 125.63 128.687 125.63C128.219 125.63 127.847 125.803 127.569 126.15C127.309 126.497 127.179 126.973 127.179 127.58ZM132.275 130.934C131.357 131.853 130.152 132.312 128.661 132.312C127.171 132.312 125.975 131.861 125.073 130.96C124.189 130.111 123.747 128.993 123.747 127.606C123.747 126.271 124.224 125.171 125.177 124.304C126.096 123.42 127.266 122.978 128.687 122.978C130.126 122.978 131.296 123.403 132.197 124.252C133.133 125.136 133.601 126.228 133.601 127.528C133.601 128.88 133.159 130.015 132.275 130.934Z" fill="#111111"/>
<path d="M62.76 156H66.764C68.794 156 70.404 155.16 70.404 153.004C70.404 151.758 69.83 151.002 68.864 150.596C69.578 150.19 69.984 149.322 69.984 148.356C69.984 146.34 68.304 145.85 66.414 145.85H62.76V156ZM64.188 151.324H66.694C68.22 151.324 68.934 151.828 68.934 153.018C68.934 154.18 68.234 154.796 66.778 154.796H64.188V151.324ZM64.188 147.054H66.638C67.772 147.054 68.542 147.502 68.542 148.552C68.542 149.742 67.814 150.19 66.638 150.19H64.188V147.054ZM72.8623 152.262C72.8623 150.204 73.9543 149.462 75.1163 149.462C76.2783 149.462 77.3703 150.246 77.3703 152.262C77.3703 154.194 76.2783 155.062 75.1163 155.062C73.9543 155.062 72.8623 154.278 72.8623 152.262ZM75.1163 148.342C73.3663 148.342 71.5043 149.532 71.5043 152.262C71.5043 154.992 73.3663 156.182 75.1163 156.182C76.8663 156.182 78.7283 154.992 78.7283 152.262C78.7283 149.532 76.8663 148.342 75.1163 148.342ZM83.4835 148.342C81.2575 148.342 79.8435 150.008 79.8435 152.248C79.8435 154.544 81.1875 156.182 83.3575 156.182C85.1215 156.182 86.4515 154.964 86.7175 153.55H85.4015C85.2195 154.334 84.4775 155.062 83.3995 155.062C82.2795 155.062 81.2295 154.138 81.2295 152.234C81.2295 150.344 82.2795 149.462 83.3995 149.462C84.3935 149.462 85.1635 150.092 85.3455 150.988H86.6335C86.4515 149.7 85.3315 148.342 83.4835 148.342ZM94.4265 148.468H88.2245V156H89.4985V149.574H93.1525V156H94.4265V148.468ZM101.744 156H103.018V148.468H101.744L97.852 154.152V148.468H96.578V156H97.852L101.744 150.316V156ZM110.736 149.574V148.468H104.31V149.574H106.886V156H108.16V149.574H110.736ZM116.307 152.85C116.307 154.628 115.173 155.174 113.983 155.174C113.073 155.174 112.527 154.698 112.527 153.984C112.527 152.948 113.997 152.598 116.307 152.374V152.85ZM113.703 156.182C115.047 156.182 115.817 155.748 116.279 154.964C116.293 155.412 116.335 155.72 116.377 156H117.665C117.511 155.286 117.455 154.432 117.469 153.158L117.483 151.422C117.497 149.294 116.573 148.314 114.487 148.314C113.031 148.314 111.575 149.224 111.463 150.848H112.779C112.835 149.91 113.437 149.35 114.501 149.35C115.453 149.35 116.209 149.798 116.209 151.184V151.366C113.129 151.702 111.113 152.234 111.113 154.012C111.113 155.398 112.289 156.182 113.703 156.182ZM124.613 149.574V148.468H118.187V149.574H120.763V156H122.037V149.574H124.613ZM132.238 152.654C132.392 150.26 131.034 148.342 128.724 148.342C126.666 148.342 125.07 149.854 125.07 152.248C125.07 154.474 126.386 156.182 128.766 156.182C130.6 156.182 131.804 155.104 132.14 153.816H130.824C130.502 154.558 129.886 155.062 128.766 155.062C127.66 155.062 126.484 154.278 126.442 152.654H132.238ZM128.724 149.434C130.082 149.434 130.852 150.498 130.894 151.562H126.456C126.568 150.05 127.604 149.434 128.724 149.434ZM139.757 148.468H134.731L134.619 151.044C134.465 154.166 133.821 154.894 133.149 154.894H133.009V156H133.247C134.997 156 135.655 154.432 135.837 151.394L135.949 149.574H138.483V156H139.757V148.468ZM148.494 152.654C148.648 150.26 147.29 148.342 144.98 148.342C142.922 148.342 141.326 149.854 141.326 152.248C141.326 154.474 142.642 156.182 145.022 156.182C146.856 156.182 148.06 155.104 148.396 153.816H147.08C146.758 154.558 146.142 155.062 145.022 155.062C143.916 155.062 142.74 154.278 142.698 152.654H148.494ZM144.98 149.434C146.338 149.434 147.108 150.498 147.15 151.562H142.712C142.824 150.05 143.86 149.434 144.98 149.434ZM154.57 145.85C154.514 146.298 154.164 146.704 153.338 146.704C152.512 146.704 152.176 146.298 152.12 145.85H151.126C151.196 146.69 151.784 147.544 153.324 147.544C154.92 147.544 155.452 146.69 155.564 145.85H154.57ZM155.228 156H156.502V148.468H155.228L151.336 154.152V148.468H150.062V156H151.336L155.228 150.316V156Z" fill="#111111"/>
</g>
<g filter="url(#filter3_i)">
<rect y="331" width="240" height="240" rx="120" fill="url(#paint3_radial)"/>
<path d="M89.6352 436.64C87.1152 436.64 84.6752 435.32 84.2352 431.92H77.6752C78.4352 438.68 83.7552 441.52 89.5152 441.52C95.5552 441.52 101.035 438.52 101.035 432.56C101.035 429.88 99.3952 426.84 96.5152 425.68C98.5552 424.52 100.555 422.12 100.555 419.08C100.555 413.8 95.0752 411.52 89.9552 411.52C84.1152 411.52 78.6752 414.08 78.0352 420.44H84.5552C84.9952 417.36 87.1552 416.4 89.6352 416.4C91.7952 416.4 93.9152 417.52 93.9152 419.64C93.9152 422.2 91.6352 423.44 87.8352 423.44H86.1152V428.88H88.0352C91.7552 428.88 94.2752 430.04 94.2752 432.6C94.2752 435.28 92.5152 436.64 89.6352 436.64ZM116.301 441.52C123.021 441.52 128.141 438.2 128.141 432.4C128.141 429.68 127.221 427.28 124.221 425.4C126.181 424 127.301 422.36 127.301 419.32C127.301 414.96 123.021 411.52 116.301 411.52C109.581 411.52 105.261 414.96 105.261 419.32C105.261 422.36 106.341 424 108.381 425.4C105.381 427.28 104.461 429.68 104.461 432.4C104.461 438.2 109.581 441.52 116.301 441.52ZM116.301 436.64C113.021 436.64 111.221 434.56 111.221 432.16C111.221 429.76 112.981 427.84 116.301 427.84C119.621 427.84 121.381 429.76 121.381 432.16C121.381 434.56 119.581 436.64 116.301 436.64ZM116.301 423.52C113.301 423.52 111.821 422 111.821 419.96C111.821 417.88 113.301 416.4 116.301 416.4C119.301 416.4 120.781 417.88 120.781 419.96C120.781 422 119.301 423.52 116.301 423.52Z" fill="white"/>
<path d="M139.061 422.28C139.781 422.28 140.341 422.013 140.741 421.48C141.141 420.92 141.341 420.16 141.341 419.2C141.341 418.24 141.141 417.493 140.741 416.96C140.341 416.427 139.781 416.16 139.061 416.16C138.314 416.16 137.728 416.427 137.301 416.96C136.901 417.493 136.701 418.227 136.701 419.16C136.701 421.24 137.488 422.28 139.061 422.28ZM144.581 424.32C143.168 425.733 141.314 426.44 139.021 426.44C136.728 426.44 134.888 425.747 133.501 424.36C132.141 423.053 131.461 421.333 131.461 419.2C131.461 417.147 132.194 415.453 133.661 414.12C135.074 412.76 136.874 412.08 139.061 412.08C141.194 412.08 142.994 412.733 144.461 414.04C145.901 415.427 146.621 417.107 146.621 419.08C146.621 421.16 145.941 422.907 144.581 424.32ZM155.021 412.4H158.941L139.101 441H135.181L155.021 412.4ZM152.661 434.2C152.661 436.253 153.434 437.28 154.981 437.28C156.528 437.28 157.301 436.253 157.301 434.2C157.301 432.2 156.528 431.2 154.981 431.2C154.261 431.2 153.688 431.467 153.261 432C152.861 432.533 152.661 433.267 152.661 434.2ZM160.501 439.36C159.088 440.773 157.234 441.48 154.941 441.48C152.648 441.48 150.808 440.787 149.421 439.4C148.061 438.093 147.381 436.373 147.381 434.24C147.381 432.187 148.114 430.493 149.581 429.16C150.994 427.8 152.794 427.12 154.981 427.12C157.194 427.12 158.994 427.773 160.381 429.08C161.821 430.44 162.541 432.12 162.541 434.12C162.541 436.2 161.861 437.947 160.501 439.36Z" fill="white"/>
<path d="M80.0932 470.224C81.4372 470.224 82.4292 469.44 83.0532 468.096L87.3252 458.4H85.5172L82.4132 465.936L79.0372 458.4H77.2772L81.5972 467.632L81.3732 468.048C81.0532 468.64 80.5572 468.816 79.9812 468.816H78.8932V470.224H80.0932ZM93.9352 470V461.392H92.4792V465.312C91.6792 465.504 91.0072 465.6 90.4472 465.6C89.2312 465.6 88.6232 465.168 88.6232 463.888V461.392H87.1672V464.192C87.1672 466.064 88.1112 466.864 89.9192 466.864C90.7032 466.864 91.4712 466.752 92.4792 466.512V470H93.9352ZM102.3 470H103.756V461.392H102.3L97.8521 467.888V461.392H96.3961V470H97.8521L102.3 463.504V470ZM112.576 462.656V461.392H105.232V462.656H108.176V470H109.632V462.656H112.576ZM121.291 466.176C121.467 463.44 119.915 461.248 117.275 461.248C114.923 461.248 113.099 462.976 113.099 465.712C113.099 468.256 114.603 470.208 117.323 470.208C119.419 470.208 120.795 468.976 121.179 467.504H119.675C119.307 468.352 118.603 468.928 117.323 468.928C116.059 468.928 114.715 468.032 114.667 466.176H121.291ZM117.275 462.496C118.827 462.496 119.707 463.712 119.755 464.928H114.683C114.811 463.2 115.995 462.496 117.275 462.496ZM129.884 461.392H124.14L124.012 464.336C123.836 467.904 123.1 468.736 122.332 468.736H122.172V470H122.444C124.444 470 125.196 468.208 125.404 464.736L125.532 462.656H128.428V470H129.884V461.392ZM139.869 466.176C140.045 463.44 138.493 461.248 135.853 461.248C133.501 461.248 131.677 462.976 131.677 465.712C131.677 468.256 133.181 470.208 135.901 470.208C137.997 470.208 139.373 468.976 139.757 467.504H138.253C137.885 468.352 137.181 468.928 135.901 468.928C134.637 468.928 133.293 468.032 133.245 466.176H139.869ZM135.853 462.496C137.405 462.496 138.285 463.712 138.333 464.928H133.261C133.389 463.2 134.573 462.496 135.853 462.496ZM146.814 458.4C146.75 458.912 146.35 459.376 145.406 459.376C144.462 459.376 144.078 458.912 144.014 458.4H142.878C142.958 459.36 143.63 460.336 145.39 460.336C147.214 460.336 147.822 459.36 147.95 458.4H146.814ZM147.566 470H149.022V461.392H147.566L143.118 467.888V461.392H141.662V470H143.118L147.566 463.504V470ZM161.191 470H162.647V461.392H161.191L156.743 467.888V461.392H155.287V470H156.743L161.191 463.504V470ZM64.4684 485.392H57.3804V494H58.8364V486.656H63.0124V494H64.4684V485.392ZM66.9273 485.392V496.8H68.3833V492.704C68.9113 493.616 69.8073 494.208 71.1993 494.208C73.1833 494.208 74.8793 492.592 74.8793 489.728C74.8793 486.912 73.1833 485.248 71.1993 485.248C69.8073 485.248 68.9113 485.84 68.3833 486.752V485.392H66.9273ZM68.3193 489.728C68.3193 487.456 69.5353 486.496 70.8313 486.496C72.3193 486.496 73.2953 487.664 73.2953 489.728C73.2953 491.792 72.3193 492.96 70.8313 492.96C69.5353 492.96 68.3193 492 68.3193 489.728ZM84.3223 490.176C84.4983 487.44 82.9463 485.248 80.3063 485.248C77.9543 485.248 76.1303 486.976 76.1303 489.712C76.1303 492.256 77.6343 494.208 80.3543 494.208C82.4503 494.208 83.8263 492.976 84.2103 491.504H82.7063C82.3383 492.352 81.6343 492.928 80.3543 492.928C79.0903 492.928 77.7463 492.032 77.6983 490.176H84.3223ZM80.3063 486.496C81.8583 486.496 82.7383 487.712 82.7863 488.928H77.7143C77.8423 487.2 79.0263 486.496 80.3063 486.496ZM93.2028 485.392H86.1148V494H87.5708V486.656H91.7468V494H93.2028V485.392ZM96.5737 489.728C96.5737 487.376 97.8217 486.528 99.1497 486.528C100.478 486.528 101.726 487.424 101.726 489.728C101.726 491.936 100.478 492.928 99.1497 492.928C97.8217 492.928 96.5737 492.032 96.5737 489.728ZM99.1497 485.248C97.1497 485.248 95.0217 486.608 95.0217 489.728C95.0217 492.848 97.1497 494.208 99.1497 494.208C101.15 494.208 103.278 492.848 103.278 489.728C103.278 486.608 101.15 485.248 99.1497 485.248ZM112.991 492.736H111.791V485.392H105.983L105.871 488.16C105.743 491.456 105.231 492.736 104.255 492.736H103.871V495.904H105.279V494H111.583V495.904H112.991V492.736ZM110.335 492.736H106.143C106.815 492.096 107.183 490.848 107.311 488.304L107.391 486.656H110.335V492.736ZM119.803 490.4C119.803 492.432 118.507 493.056 117.147 493.056C116.107 493.056 115.483 492.512 115.483 491.696C115.483 490.512 117.163 490.112 119.803 489.856V490.4ZM116.827 494.208C118.363 494.208 119.243 493.712 119.771 492.816C119.787 493.328 119.835 493.68 119.883 494H121.355C121.179 493.184 121.115 492.208 121.131 490.752L121.147 488.768C121.163 486.336 120.107 485.216 117.723 485.216C116.059 485.216 114.395 486.256 114.267 488.112H115.771C115.835 487.04 116.523 486.4 117.739 486.4C118.827 486.4 119.691 486.912 119.691 488.496V488.704C116.171 489.088 113.867 489.696 113.867 491.728C113.867 493.312 115.211 494.208 116.827 494.208ZM123.396 485.392V494H127.396C129.236 494 130.628 493.28 130.628 491.488C130.628 490.336 129.972 489.728 129.076 489.472C129.876 489.136 130.276 488.496 130.276 487.584C130.276 485.84 128.868 485.392 127.14 485.392H123.396ZM124.852 489.008V486.656H126.996C128.084 486.656 128.756 486.848 128.756 487.744C128.756 488.72 128.116 489.008 127.044 489.008H124.852ZM124.852 490.208H127.124C128.468 490.208 129.108 490.512 129.108 491.472C129.108 492.368 128.452 492.736 127.172 492.736H124.852V490.208ZM137.678 490.4C137.678 492.432 136.382 493.056 135.022 493.056C133.982 493.056 133.358 492.512 133.358 491.696C133.358 490.512 135.038 490.112 137.678 489.856V490.4ZM134.702 494.208C136.238 494.208 137.118 493.712 137.646 492.816C137.662 493.328 137.71 493.68 137.758 494H139.23C139.054 493.184 138.99 492.208 139.006 490.752L139.022 488.768C139.038 486.336 137.982 485.216 135.598 485.216C133.934 485.216 132.27 486.256 132.142 488.112H133.646C133.71 487.04 134.398 486.4 135.614 486.4C136.702 486.4 137.566 486.912 137.566 488.496V488.704C134.046 489.088 131.742 489.696 131.742 491.728C131.742 493.312 133.086 494.208 134.702 494.208ZM147.17 486.656V485.392H139.826V486.656H142.77V494H144.226V486.656H147.17ZM155.885 490.176C156.061 487.44 154.509 485.248 151.869 485.248C149.517 485.248 147.693 486.976 147.693 489.712C147.693 492.256 149.197 494.208 151.917 494.208C154.013 494.208 155.389 492.976 155.773 491.504H154.269C153.901 492.352 153.197 492.928 151.917 492.928C150.653 492.928 149.309 492.032 149.261 490.176H155.885ZM151.869 486.496C153.421 486.496 154.301 487.712 154.349 488.928H149.277C149.405 487.2 150.589 486.496 151.869 486.496ZM164.477 485.392H158.733L158.605 488.336C158.429 491.904 157.693 492.736 156.925 492.736H156.765V494H157.037C159.037 494 159.789 492.208 159.997 488.736L160.125 486.656H163.021V494H164.477V485.392ZM174.463 490.176C174.639 487.44 173.087 485.248 170.447 485.248C168.095 485.248 166.271 486.976 166.271 489.712C166.271 492.256 167.775 494.208 170.495 494.208C172.591 494.208 173.967 492.976 174.351 491.504H172.847C172.479 492.352 171.775 492.928 170.495 492.928C169.231 492.928 167.887 492.032 167.839 490.176H174.463ZM170.447 486.496C171.999 486.496 172.879 487.712 172.927 488.928H167.855C167.983 487.2 169.167 486.496 170.447 486.496ZM181.407 482.4C181.343 482.912 180.943 483.376 179.999 483.376C179.055 483.376 178.671 482.912 178.607 482.4H177.471C177.551 483.36 178.223 484.336 179.983 484.336C181.807 484.336 182.415 483.36 182.543 482.4H181.407ZM182.159 494H183.615V485.392H182.159L177.711 491.888V485.392H176.255V494H177.711L182.159 487.504V494Z" fill="white"/>
</g>
<g filter="url(#filter4_i)">
<rect x="213" y="269" width="162" height="162" rx="81" fill="url(#paint4_radial)"/>
<path d="M285.816 325.364C285.816 327.444 284.646 328.718 282.774 328.718C280.902 328.718 279.784 327.34 279.784 325.364C279.784 323.31 280.902 322.01 282.774 322.01C284.646 322.01 285.816 323.31 285.816 325.364ZM282.488 335.218C281.162 335.218 280.018 334.672 279.81 332.904H275.598C275.806 335.894 277.912 338.338 282.28 338.338C288.026 338.338 290.366 333.658 290.366 328.146C290.366 322.92 288.13 318.838 282.774 318.838C278.458 318.838 275.39 321.386 275.39 325.364C275.39 329.212 278.38 331.942 281.812 331.942C283.71 331.942 284.958 331.396 285.894 330.564C285.972 333.736 284.49 335.218 282.488 335.218Z" fill="#111111"/>
<path d="M297.339 325.832C297.807 325.832 298.171 325.659 298.431 325.312C298.691 324.948 298.821 324.454 298.821 323.83C298.821 323.206 298.691 322.721 298.431 322.374C298.171 322.027 297.807 321.854 297.339 321.854C296.854 321.854 296.473 322.027 296.195 322.374C295.935 322.721 295.805 323.197 295.805 323.804C295.805 325.156 296.317 325.832 297.339 325.832ZM300.927 327.158C300.009 328.077 298.804 328.536 297.313 328.536C295.823 328.536 294.627 328.085 293.725 327.184C292.841 326.335 292.399 325.217 292.399 323.83C292.399 322.495 292.876 321.395 293.829 320.528C294.748 319.644 295.918 319.202 297.339 319.202C298.726 319.202 299.896 319.627 300.849 320.476C301.785 321.377 302.253 322.469 302.253 323.752C302.253 325.104 301.811 326.239 300.927 327.158ZM307.713 319.41H310.261L297.365 338H294.817L307.713 319.41ZM306.179 333.58C306.179 334.915 306.682 335.582 307.687 335.582C308.693 335.582 309.195 334.915 309.195 333.58C309.195 332.28 308.693 331.63 307.687 331.63C307.219 331.63 306.847 331.803 306.569 332.15C306.309 332.497 306.179 332.973 306.179 333.58ZM311.275 336.934C310.357 337.853 309.152 338.312 307.661 338.312C306.171 338.312 304.975 337.861 304.073 336.96C303.189 336.111 302.747 334.993 302.747 333.606C302.747 332.271 303.224 331.171 304.177 330.304C305.096 329.42 306.266 328.978 307.687 328.978C309.126 328.978 310.296 329.403 311.197 330.252C312.133 331.136 312.601 332.228 312.601 333.528C312.601 334.88 312.159 336.015 311.275 336.934Z" fill="#111111"/>
<path d="M248.613 360H249.939V350.575H242.581V360H243.907V351.719H248.613V360ZM253.369 353.006H252.186V362.275H253.369V358.947C253.798 359.688 254.539 360.169 255.657 360.169C257.256 360.169 258.647 358.843 258.647 356.529C258.647 354.228 257.256 352.889 255.657 352.889C254.539 352.889 253.798 353.37 253.369 354.111V353.006ZM255.358 359.155C254.305 359.155 253.317 358.375 253.317 356.529C253.317 354.683 254.305 353.903 255.358 353.903C256.567 353.903 257.36 354.865 257.36 356.529C257.36 358.193 256.567 359.155 255.358 359.155ZM260.937 356.893H266.319C266.475 354.683 265.188 352.889 263.056 352.889C261.145 352.889 259.663 354.306 259.663 356.516C259.663 358.583 260.885 360.169 263.095 360.169C264.798 360.169 265.903 359.181 266.228 357.972H265.006C264.707 358.661 264.135 359.129 263.095 359.129C262.055 359.129 260.989 358.401 260.937 356.893ZM260.95 355.879C261.054 354.475 262.003 353.903 263.056 353.903C264.304 353.903 265.045 354.891 265.071 355.879H260.95ZM274.188 361.547V358.973H273.213V353.006H268.494L268.403 355.255C268.286 357.933 267.883 358.973 267.09 358.973H266.778V361.547H267.922V360H273.044V361.547H274.188ZM272.03 354.033V358.973H268.624C269.17 358.44 269.469 357.452 269.573 355.372L269.638 354.033H272.03ZM281.139 355.346C280.983 354.163 279.904 352.889 278.214 352.889C276.147 352.889 274.834 354.436 274.834 356.516C274.834 358.648 276.095 360.169 278.097 360.169C279.722 360.169 280.983 359.038 281.217 357.725H279.995C279.826 358.466 279.124 359.129 278.136 359.129C277.096 359.129 276.121 358.284 276.121 356.503C276.121 354.748 277.083 353.929 278.136 353.929C279.046 353.929 279.774 354.514 279.943 355.346H281.139ZM285.157 354.033H287.549V353.006H281.582V354.033H283.974V360H285.157V354.033ZM287.899 358.154C287.899 359.441 288.991 360.169 290.304 360.169C291.539 360.169 292.267 359.753 292.696 359.038C292.709 359.454 292.748 359.74 292.787 360H293.983C293.853 359.337 293.788 358.531 293.801 357.361L293.814 355.749C293.827 353.786 292.956 352.863 291.032 352.863C289.667 352.863 288.341 353.708 288.224 355.216H289.446C289.498 354.358 290.07 353.825 291.045 353.825C291.916 353.825 292.631 354.254 292.631 355.528V355.697C289.758 356.022 287.899 356.503 287.899 358.154ZM292.722 356.633V357.075C292.722 358.726 291.669 359.233 290.564 359.233C289.719 359.233 289.212 358.791 289.212 358.128C289.212 357.166 290.577 356.854 292.722 356.633ZM298.684 353.006H295.642V360H298.892C300.387 360 301.518 359.415 301.518 357.959C301.518 357.023 300.972 356.529 300.257 356.321C300.894 356.048 301.232 355.528 301.232 354.787C301.232 353.37 300.088 353.006 298.684 353.006ZM298.606 355.944H296.825V354.033H298.567C299.438 354.033 299.997 354.189 299.997 354.917C299.997 355.71 299.464 355.944 298.606 355.944ZM296.825 358.973V356.919H298.671C299.75 356.919 300.283 357.179 300.283 357.946C300.283 358.674 299.75 358.973 298.71 358.973H296.825ZM307.701 354.722V360H308.884V353.006H307.701L304.087 358.284V353.006H302.904V360H304.087L307.701 354.722ZM313.658 354.033H316.05V353.006H310.083V354.033H312.475V360H313.658V354.033ZM317.749 356.893H323.131C323.287 354.683 322 352.889 319.868 352.889C317.957 352.889 316.475 354.306 316.475 356.516C316.475 358.583 317.697 360.169 319.907 360.169C321.61 360.169 322.715 359.181 323.04 357.972H321.818C321.519 358.661 320.947 359.129 319.907 359.129C318.867 359.129 317.801 358.401 317.749 356.893ZM317.762 355.879C317.866 354.475 318.815 353.903 319.868 353.903C321.116 353.903 321.857 354.891 321.883 355.879H317.762ZM330.112 360V353.006H325.445L325.341 355.398C325.198 358.297 324.6 358.973 323.976 358.973H323.846V360H324.067C325.705 360 326.29 358.544 326.472 355.723L326.576 354.033H328.929V360H330.112ZM332.844 356.893H338.226C338.382 354.683 337.095 352.889 334.963 352.889C333.052 352.889 331.57 354.306 331.57 356.516C331.57 358.583 332.792 360.169 335.002 360.169C336.705 360.169 337.81 359.181 338.135 357.972H336.913C336.614 358.661 336.042 359.129 335.002 359.129C333.962 359.129 332.896 358.401 332.844 356.893ZM332.857 355.879C332.961 354.475 333.91 353.903 334.963 353.903C336.211 353.903 336.952 354.891 336.978 355.879H332.857ZM342.711 352.148C344.193 352.148 344.7 351.355 344.791 350.575H343.868C343.816 350.991 343.478 351.368 342.724 351.368C341.97 351.368 341.645 350.991 341.593 350.575H340.67C340.748 351.355 341.268 352.148 342.711 352.148ZM344.479 354.722V360H345.662V353.006H344.479L340.865 358.284V353.006H339.682V360H340.865L344.479 354.722ZM275.104 376.724C275.104 374.514 273.739 373.409 272.153 373.409C271.126 373.409 270.177 373.877 269.709 374.839C269.878 373.097 270.71 372.447 272.4 372.083L274.636 371.602V370.549L272.335 371.004C269.527 371.563 268.682 373.032 268.656 375.554V376.36C268.656 378.908 270.138 380.169 271.945 380.169C273.661 380.169 275.104 378.973 275.104 376.724ZM273.843 376.75C273.843 378.258 273.089 379.142 271.945 379.142C270.762 379.142 269.93 378.219 269.93 376.737C269.93 375.164 270.892 374.436 271.958 374.436C273.024 374.436 273.843 375.216 273.843 376.75ZM281.295 374.722V380H282.478V373.006H281.295L277.681 378.284V373.006H276.498V380H277.681L281.295 374.722ZM289.644 378.011C289.644 377.062 288.968 376.555 288.227 376.334C288.851 376.035 289.332 375.528 289.332 374.826C289.332 373.5 288.058 372.85 286.68 372.85C285.211 372.85 284.067 373.643 283.833 375.164H285.055C285.211 374.202 285.887 373.89 286.745 373.89C287.499 373.89 288.11 374.189 288.11 374.852C288.11 375.58 287.603 375.944 286.797 375.944H285.744V376.919H286.862C287.85 376.919 288.383 377.257 288.383 378.063C288.383 378.726 287.746 379.181 286.771 379.181C285.77 379.181 285.094 378.765 284.912 377.868H283.716C283.95 379.467 285.211 380.169 286.693 380.169C288.253 380.169 289.644 379.519 289.644 378.011ZM295.687 380H296.87V373.006H295.687V375.918H292.229V373.006H291.046V380H292.229V376.945H295.687V380ZM299.595 376.893H304.977C305.133 374.683 303.846 372.889 301.714 372.889C299.803 372.889 298.321 374.306 298.321 376.516C298.321 378.583 299.543 380.169 301.753 380.169C303.456 380.169 304.561 379.181 304.886 377.972H303.664C303.365 378.661 302.793 379.129 301.753 379.129C300.713 379.129 299.647 378.401 299.595 376.893ZM299.608 375.879C299.712 374.475 300.661 373.903 301.714 373.903C302.962 373.903 303.703 374.891 303.729 375.879H299.608ZM312.256 375.346C312.1 374.163 311.021 372.889 309.331 372.889C307.264 372.889 305.951 374.436 305.951 376.516C305.951 378.648 307.212 380.169 309.214 380.169C310.839 380.169 312.1 379.038 312.334 377.725H311.112C310.943 378.466 310.241 379.129 309.253 379.129C308.213 379.129 307.238 378.284 307.238 376.503C307.238 374.748 308.2 373.929 309.253 373.929C310.163 373.929 310.891 374.514 311.06 375.346H312.256ZM313.252 378.154C313.252 379.441 314.344 380.169 315.657 380.169C316.892 380.169 317.62 379.753 318.049 379.038C318.062 379.454 318.101 379.74 318.14 380H319.336C319.206 379.337 319.141 378.531 319.154 377.361L319.167 375.749C319.18 373.786 318.309 372.863 316.385 372.863C315.02 372.863 313.694 373.708 313.577 375.216H314.799C314.851 374.358 315.423 373.825 316.398 373.825C317.269 373.825 317.984 374.254 317.984 375.528V375.697C315.111 376.022 313.252 376.503 313.252 378.154ZM318.075 376.633V377.075C318.075 378.726 317.022 379.233 315.917 379.233C315.072 379.233 314.565 378.791 314.565 378.128C314.565 377.166 315.93 376.854 318.075 376.633Z" fill="#111111"/>
</g>
<g filter="url(#filter5_i)">
<rect x="165" width="100" height="100" rx="50" fill="url(#paint5_radial)"/>
<path d="M206.461 44.32C205.181 44.32 204.121 43.72 203.821 42.04H200.641C201.121 45.12 203.501 46.76 206.501 46.76C209.681 46.76 212.421 45.02 212.421 41.7C212.421 38.34 209.941 36.64 207.321 36.64C206.301 36.64 205.141 36.92 204.441 37.4L204.781 34.68H211.741V32H202.041L201.021 40.22L204.041 40.52C204.541 39.58 205.381 39.08 206.521 39.08C207.801 39.08 209.021 39.94 209.021 41.72C209.021 43.4 207.921 44.32 206.461 44.32Z" fill="white"/>
<path d="M218.03 37.14C218.39 37.14 218.67 37.0067 218.87 36.74C219.07 36.46 219.17 36.08 219.17 35.6C219.17 35.12 219.07 34.7467 218.87 34.48C218.67 34.2134 218.39 34.08 218.03 34.08C217.657 34.08 217.364 34.2134 217.15 34.48C216.95 34.7467 216.85 35.1134 216.85 35.58C216.85 36.62 217.244 37.14 218.03 37.14ZM220.79 38.16C220.084 38.8667 219.157 39.22 218.01 39.22C216.864 39.22 215.944 38.8734 215.25 38.18C214.57 37.5267 214.23 36.6667 214.23 35.6C214.23 34.5734 214.597 33.7267 215.33 33.06C216.037 32.38 216.937 32.04 218.03 32.04C219.097 32.04 219.997 32.3667 220.73 33.02C221.45 33.7134 221.81 34.5534 221.81 35.54C221.81 36.58 221.47 37.4534 220.79 38.16ZM226.01 32.2H227.97L218.05 46.5H216.09L226.01 32.2ZM224.83 43.1C224.83 44.1267 225.217 44.64 225.99 44.64C226.764 44.64 227.15 44.1267 227.15 43.1C227.15 42.1 226.764 41.6 225.99 41.6C225.63 41.6 225.344 41.7334 225.13 42C224.93 42.2667 224.83 42.6334 224.83 43.1ZM228.75 45.68C228.044 46.3867 227.117 46.74 225.97 46.74C224.824 46.74 223.904 46.3934 223.21 45.7C222.53 45.0467 222.19 44.1867 222.19 43.12C222.19 42.0934 222.557 41.2467 223.29 40.58C223.997 39.9 224.897 39.56 225.99 39.56C227.097 39.56 227.997 39.8867 228.69 40.54C229.41 41.22 229.77 42.06 229.77 43.06C229.77 44.1 229.43 44.9734 228.75 45.68Z" fill="white"/>
<path d="M188.855 66.668C189.863 66.668 190.607 66.08 191.075 65.072L194.279 57.8H192.923L190.595 63.452L188.063 57.8H186.743L189.983 64.724L189.815 65.036C189.575 65.48 189.203 65.612 188.771 65.612H187.955V66.668H188.855ZM199.237 66.5V60.044H198.145V62.984C197.545 63.128 197.041 63.2 196.621 63.2C195.709 63.2 195.253 62.876 195.253 61.916V60.044H194.161V62.144C194.161 63.548 194.869 64.148 196.225 64.148C196.813 64.148 197.389 64.064 198.145 63.884V66.5H199.237ZM205.09 63.8C205.09 65.324 204.118 65.792 203.098 65.792C202.318 65.792 201.85 65.384 201.85 64.772C201.85 63.884 203.11 63.584 205.09 63.392V63.8ZM202.858 66.656C204.01 66.656 204.67 66.284 205.066 65.612C205.078 65.996 205.114 66.26 205.15 66.5H206.254C206.122 65.888 206.074 65.156 206.086 64.064L206.098 62.576C206.11 60.752 205.318 59.912 203.53 59.912C202.282 59.912 201.034 60.692 200.938 62.084H202.066C202.114 61.28 202.63 60.8 203.542 60.8C204.358 60.8 205.006 61.184 205.006 62.372V62.528C202.366 62.816 200.638 63.272 200.638 64.796C200.638 65.984 201.646 66.656 202.858 66.656ZM216.641 65.552H215.741V60.044H214.649V65.552H212.309V60.044H211.217V65.552H208.877V60.044H207.785V66.5H215.609V68.048H216.641V65.552ZM222.174 66.5H223.266V60.044H222.174L218.838 64.916V60.044H217.746V66.5H218.838L222.174 61.628V66.5ZM230.145 60.044H228.921L227.337 62.264L225.765 60.044H224.457L226.689 63.176L224.313 66.5H225.561L227.301 64.04L229.053 66.5H230.361L227.949 63.128L230.145 60.044ZM233.792 59.936C231.884 59.936 230.672 61.364 230.672 63.284C230.672 65.252 231.824 66.656 233.684 66.656C235.196 66.656 236.336 65.612 236.564 64.4H235.436C235.28 65.072 234.644 65.696 233.72 65.696C232.76 65.696 231.86 64.904 231.86 63.272C231.86 61.652 232.76 60.896 233.72 60.896C234.572 60.896 235.232 61.436 235.388 62.204H236.492C236.336 61.1 235.376 59.936 233.792 59.936ZM242.456 60.044H239.924C238.436 60.044 237.524 60.704 237.524 62.036C237.524 62.996 238.076 63.62 238.892 63.896L236.936 66.5H238.292L240.044 64.196C240.104 64.208 240.164 64.208 240.224 64.208H241.364V66.5H242.456V60.044ZM241.364 60.992V63.26H240.08C239.324 63.26 238.64 62.984 238.64 62.108C238.64 61.328 239.18 60.992 239.984 60.992H241.364Z" fill="white"/>
</g>
<g filter="url(#filter6_i)">
<rect x="127" y="241" width="100" height="100" rx="50" fill="url(#paint6_radial)"/>
<path d="M168.961 285.82C167.681 285.82 166.621 285.22 166.321 283.54H163.141C163.621 286.62 166.001 288.26 169.001 288.26C172.181 288.26 174.921 286.52 174.921 283.2C174.921 279.84 172.441 278.14 169.821 278.14C168.801 278.14 167.641 278.42 166.941 278.9L167.281 276.18H174.241V273.5H164.541L163.521 281.72L166.541 282.02C167.041 281.08 167.881 280.58 169.021 280.58C170.301 280.58 171.521 281.44 171.521 283.22C171.521 284.9 170.421 285.82 168.961 285.82Z" fill="white"/>
<path d="M180.53 278.64C180.89 278.64 181.17 278.507 181.37 278.24C181.57 277.96 181.67 277.58 181.67 277.1C181.67 276.62 181.57 276.247 181.37 275.98C181.17 275.713 180.89 275.58 180.53 275.58C180.157 275.58 179.864 275.713 179.65 275.98C179.45 276.247 179.35 276.613 179.35 277.08C179.35 278.12 179.744 278.64 180.53 278.64ZM183.29 279.66C182.584 280.367 181.657 280.72 180.51 280.72C179.364 280.72 178.444 280.373 177.75 279.68C177.07 279.027 176.73 278.167 176.73 277.1C176.73 276.073 177.097 275.227 177.83 274.56C178.537 273.88 179.437 273.54 180.53 273.54C181.597 273.54 182.497 273.867 183.23 274.52C183.95 275.213 184.31 276.053 184.31 277.04C184.31 278.08 183.97 278.953 183.29 279.66ZM188.51 273.7H190.47L180.55 288H178.59L188.51 273.7ZM187.33 284.6C187.33 285.627 187.717 286.14 188.49 286.14C189.264 286.14 189.65 285.627 189.65 284.6C189.65 283.6 189.264 283.1 188.49 283.1C188.13 283.1 187.844 283.233 187.63 283.5C187.43 283.767 187.33 284.133 187.33 284.6ZM191.25 287.18C190.544 287.887 189.617 288.24 188.47 288.24C187.324 288.24 186.404 287.893 185.71 287.2C185.03 286.547 184.69 285.687 184.69 284.62C184.69 283.593 185.057 282.747 185.79 282.08C186.497 281.4 187.397 281.06 188.49 281.06C189.597 281.06 190.497 281.387 191.19 282.04C191.91 282.72 192.27 283.56 192.27 284.56C192.27 285.6 191.93 286.473 191.25 287.18Z" fill="white"/>
<path d="M148.269 308L150.669 300.416V308H151.893V299.3H149.841L147.621 306.548L145.401 299.3H143.349V308H144.573V300.416L146.973 308H148.269ZM159.613 305.132C159.745 303.08 158.581 301.436 156.601 301.436C154.837 301.436 153.469 302.732 153.469 304.784C153.469 306.692 154.597 308.156 156.637 308.156C158.209 308.156 159.241 307.232 159.529 306.128H158.401C158.125 306.764 157.597 307.196 156.637 307.196C155.689 307.196 154.681 306.524 154.645 305.132H159.613ZM156.601 302.372C157.765 302.372 158.425 303.284 158.461 304.196H154.657C154.753 302.9 155.641 302.372 156.601 302.372ZM165.452 302.492V301.544H159.944V302.492H162.152V308H163.244V302.492H165.452ZM167.032 304.796C167.032 303.032 167.968 302.396 168.964 302.396C169.96 302.396 170.896 303.068 170.896 304.796C170.896 306.452 169.96 307.196 168.964 307.196C167.968 307.196 167.032 306.524 167.032 304.796ZM168.964 301.436C167.464 301.436 165.868 302.456 165.868 304.796C165.868 307.136 167.464 308.156 168.964 308.156C170.464 308.156 172.06 307.136 172.06 304.796C172.06 302.456 170.464 301.436 168.964 301.436ZM179.345 307.052H178.445V301.544H174.089L174.005 303.62C173.909 306.092 173.525 307.052 172.793 307.052H172.505V309.428H173.561V308H178.289V309.428H179.345V307.052ZM177.353 307.052H174.209C174.713 306.572 174.989 305.636 175.085 303.728L175.145 302.492H177.353V307.052ZM184.873 308H185.965V301.544H184.873L181.537 306.416V301.544H180.445V308H181.537L184.873 303.128V308ZM190.433 301.436C188.525 301.436 187.313 302.864 187.313 304.784C187.313 306.752 188.465 308.156 190.325 308.156C191.837 308.156 192.977 307.112 193.205 305.9H192.077C191.921 306.572 191.285 307.196 190.361 307.196C189.401 307.196 188.501 306.404 188.501 304.772C188.501 303.152 189.401 302.396 190.361 302.396C191.213 302.396 191.873 302.936 192.029 303.704H193.133C192.977 302.6 192.017 301.436 190.433 301.436ZM199.049 302.492V301.544H193.541V302.492H195.749V308H196.841V302.492H199.049ZM200.629 304.796C200.629 303.032 201.565 302.396 202.561 302.396C203.557 302.396 204.493 303.068 204.493 304.796C204.493 306.452 203.557 307.196 202.561 307.196C201.565 307.196 200.629 306.524 200.629 304.796ZM202.561 301.436C201.061 301.436 199.465 302.456 199.465 304.796C199.465 307.136 201.061 308.156 202.561 308.156C204.061 308.156 205.657 307.136 205.657 304.796C205.657 302.456 204.061 301.436 202.561 301.436ZM207.024 301.544V308H210.024C211.404 308 212.448 307.46 212.448 306.116C212.448 305.252 211.956 304.796 211.284 304.604C211.884 304.352 212.184 303.872 212.184 303.188C212.184 301.88 211.128 301.544 209.832 301.544H207.024ZM208.116 304.256V302.492H209.724C210.54 302.492 211.044 302.636 211.044 303.308C211.044 304.04 210.564 304.256 209.76 304.256H208.116ZM208.116 305.156H209.82C210.828 305.156 211.308 305.384 211.308 306.104C211.308 306.776 210.816 307.052 209.856 307.052H208.116V305.156Z" fill="white"/>
</g>
<g filter="url(#filter7_i)">
<rect y="212" width="128" height="128" rx="64" fill="url(#paint7_radial)"/>
<path d="M53.217 267.74C53.217 266.14 54.137 265.16 55.577 265.16C57.017 265.16 57.877 266.22 57.877 267.74C57.877 269.32 57.017 270.32 55.577 270.32C54.137 270.32 53.217 269.32 53.217 267.74ZM55.777 260.14C56.817 260.14 57.697 260.58 57.857 261.94H61.097C60.937 259.64 59.317 257.76 55.957 257.76C51.537 257.76 49.737 261.36 49.737 265.6C49.737 269.62 51.457 272.76 55.577 272.76C58.877 272.76 61.257 270.8 61.257 267.74C61.257 264.78 58.917 262.68 56.297 262.68C54.857 262.68 53.897 263.1 53.177 263.74C53.117 261.28 54.257 260.14 55.777 260.14Z" fill="white"/>
<path d="M67.0305 263.14C67.3905 263.14 67.6705 263.007 67.8705 262.74C68.0705 262.46 68.1705 262.08 68.1705 261.6C68.1705 261.12 68.0705 260.747 67.8705 260.48C67.6705 260.213 67.3905 260.08 67.0305 260.08C66.6571 260.08 66.3638 260.213 66.1505 260.48C65.9505 260.747 65.8505 261.113 65.8505 261.58C65.8505 262.62 66.2438 263.14 67.0305 263.14ZM69.7905 264.16C69.0838 264.867 68.1571 265.22 67.0105 265.22C65.8638 265.22 64.9438 264.873 64.2505 264.18C63.5705 263.527 63.2305 262.667 63.2305 261.6C63.2305 260.573 63.5971 259.727 64.3305 259.06C65.0371 258.38 65.9371 258.04 67.0305 258.04C68.0971 258.04 68.9971 258.367 69.7305 259.02C70.4505 259.713 70.8105 260.553 70.8105 261.54C70.8105 262.58 70.4705 263.453 69.7905 264.16ZM75.0105 258.2H76.9705L67.0505 272.5H65.0905L75.0105 258.2ZM73.8305 269.1C73.8305 270.127 74.2171 270.64 74.9905 270.64C75.7638 270.64 76.1505 270.127 76.1505 269.1C76.1505 268.1 75.7638 267.6 74.9905 267.6C74.6305 267.6 74.3438 267.733 74.1305 268C73.9305 268.267 73.8305 268.633 73.8305 269.1ZM77.7505 271.68C77.0438 272.387 76.1171 272.74 74.9705 272.74C73.8238 272.74 72.9038 272.393 72.2105 271.7C71.5305 271.047 71.1905 270.187 71.1905 269.12C71.1905 268.093 71.5571 267.247 72.2905 266.58C72.9971 265.9 73.8971 265.56 74.9905 265.56C76.0971 265.56 76.9971 265.887 77.6905 266.54C78.4105 267.22 78.7705 268.06 78.7705 269.06C78.7705 270.1 78.4305 270.973 77.7505 271.68Z" fill="white"/>
<path d="M33.6989 283.8V292.5H34.9229V289.056H36.4229C38.5469 289.056 40.0349 288.588 40.0349 286.428C40.0349 284.28 38.5469 283.8 36.4229 283.8H33.6989ZM36.5189 284.832C37.8029 284.832 38.7869 285.012 38.7869 286.428C38.7869 287.856 37.8029 287.988 36.5189 287.988H34.9229V284.832H36.5189ZM41.6432 289.296C41.6432 287.532 42.5792 286.896 43.5752 286.896C44.5712 286.896 45.5072 287.568 45.5072 289.296C45.5072 290.952 44.5712 291.696 43.5752 291.696C42.5792 291.696 41.6432 291.024 41.6432 289.296ZM43.5752 285.936C42.0752 285.936 40.4792 286.956 40.4792 289.296C40.4792 291.636 42.0752 292.656 43.5752 292.656C45.0752 292.656 46.6712 291.636 46.6712 289.296C46.6712 286.956 45.0752 285.936 43.5752 285.936ZM53.9561 291.552H53.0561V286.044H48.7001L48.6161 288.12C48.5201 290.592 48.1361 291.552 47.4041 291.552H47.1161V293.928H48.1721V292.5H52.9001V293.928H53.9561V291.552ZM51.9641 291.552H48.8201C49.3241 291.072 49.6001 290.136 49.6961 288.228L49.7561 286.992H51.9641V291.552ZM59.4848 292.5H60.5768V286.044H59.4848L56.1488 290.916V286.044H55.0568V292.5H56.1488L59.4848 287.628V292.5ZM67.1919 286.992V286.044H61.6839V286.992H63.8919V292.5H64.9839V286.992H67.1919ZM73.7281 289.632C73.8601 287.58 72.6961 285.936 70.7161 285.936C68.9521 285.936 67.5841 287.232 67.5841 289.284C67.5841 291.192 68.7121 292.656 70.7521 292.656C72.3241 292.656 73.3561 291.732 73.6441 290.628H72.5161C72.2401 291.264 71.7121 291.696 70.7521 291.696C69.8041 291.696 68.7961 291.024 68.7601 289.632H73.7281ZM70.7161 286.872C71.8801 286.872 72.5401 287.784 72.5761 288.696H68.7721C68.8681 287.4 69.7561 286.872 70.7161 286.872ZM80.1724 286.044H75.8644L75.7684 288.252C75.6364 290.928 75.0844 291.552 74.5084 291.552H74.3884V292.5H74.5924C76.0924 292.5 76.6564 291.156 76.8124 288.552L76.9084 286.992H79.0804V292.5H80.1724V286.044ZM87.6617 289.632C87.7937 287.58 86.6297 285.936 84.6497 285.936C82.8857 285.936 81.5177 287.232 81.5177 289.284C81.5177 291.192 82.6457 292.656 84.6857 292.656C86.2577 292.656 87.2897 291.732 87.5777 290.628H86.4497C86.1737 291.264 85.6457 291.696 84.6857 291.696C83.7377 291.696 82.7297 291.024 82.6937 289.632H87.6617ZM84.6497 286.872C85.8137 286.872 86.4737 287.784 86.5097 288.696H82.7057C82.8017 287.4 83.6897 286.872 84.6497 286.872ZM92.87 283.8C92.822 284.184 92.522 284.532 91.814 284.532C91.106 284.532 90.818 284.184 90.77 283.8H89.918C89.978 284.52 90.482 285.252 91.802 285.252C93.17 285.252 93.626 284.52 93.722 283.8H92.87ZM93.434 292.5H94.526V286.044H93.434L90.098 290.916V286.044H89.006V292.5H90.098L93.434 287.628V292.5Z" fill="white"/>
</g>
<defs>
<filter id="filter0_i" x="189" y="83" width="194" height="194" filterUnits="userSpaceOnUse" color-interpolation-filters="sRGB">
<feFlood flood-opacity="0" result="BackgroundImageFix"/>
<feBlend mode="normal" in="SourceGraphic" in2="BackgroundImageFix" result="shape"/>
<feColorMatrix in="SourceAlpha" type="matrix" values="0 0 0 0 0 0 0 0 0 0 0 0 0 0 0 0 0 0 127 0" result="hardAlpha"/>
<feOffset dx="8" dy="8"/>
<feGaussianBlur stdDeviation="16"/>
<feComposite in2="hardAlpha" operator="arithmetic" k2="-1" k3="1"/>
<feColorMatrix type="matrix" values="0 0 0 0 1 0 0 0 0 1 0 0 0 0 1 0 0 0 0.56 0"/>
<feBlend mode="normal" in2="shape" result="effect1_innerShadow"/>
</filter>
<filter id="filter1_i" x="234" y="430" width="147" height="147" filterUnits="userSpaceOnUse" color-interpolation-filters="sRGB">
<feFlood flood-opacity="0" result="BackgroundImageFix"/>
<feBlend mode="normal" in="SourceGraphic" in2="BackgroundImageFix" result="shape"/>
<feColorMatrix in="SourceAlpha" type="matrix" values="0 0 0 0 0 0 0 0 0 0 0 0 0 0 0 0 0 0 127 0" result="hardAlpha"/>
<feOffset dx="6" dy="6"/>
<feGaussianBlur stdDeviation="10"/>
<feComposite in2="hardAlpha" operator="arithmetic" k2="-1" k3="1"/>
<feColorMatrix type="matrix" values="0 0 0 0 1 0 0 0 0 1 0 0 0 0 1 0 0 0 0.56 0"/>
<feBlend mode="normal" in2="shape" result="effect1_innerShadow"/>
</filter>
<filter id="filter2_i" x="24" y="49" width="178" height="178" filterUnits="userSpaceOnUse" color-interpolation-filters="sRGB">
<feFlood flood-opacity="0" result="BackgroundImageFix"/>
<feBlend mode="normal" in="SourceGraphic" in2="BackgroundImageFix" result="shape"/>
<feColorMatrix in="SourceAlpha" type="matrix" values="0 0 0 0 0 0 0 0 0 0 0 0 0 0 0 0 0 0 127 0" result="hardAlpha"/>
<feOffset dx="8" dy="8"/>
<feGaussianBlur stdDeviation="16"/>
<feComposite in2="hardAlpha" operator="arithmetic" k2="-1" k3="1"/>
<feColorMatrix type="matrix" values="0 0 0 0 1 0 0 0 0 1 0 0 0 0 1 0 0 0 0.56 0"/>
<feBlend mode="normal" in2="shape" result="effect1_innerShadow"/>
</filter>
<filter id="filter3_i" x="0" y="331" width="252" height="252" filterUnits="userSpaceOnUse" color-interpolation-filters="sRGB">
<feFlood flood-opacity="0" result="BackgroundImageFix"/>
<feBlend mode="normal" in="SourceGraphic" in2="BackgroundImageFix" result="shape"/>
<feColorMatrix in="SourceAlpha" type="matrix" values="0 0 0 0 0 0 0 0 0 0 0 0 0 0 0 0 0 0 127 0" result="hardAlpha"/>
<feOffset dx="12" dy="12"/>
<feGaussianBlur stdDeviation="20"/>
<feComposite in2="hardAlpha" operator="arithmetic" k2="-1" k3="1"/>
<feColorMatrix type="matrix" values="0 0 0 0 1 0 0 0 0 1 0 0 0 0 1 0 0 0 0.56 0"/>
<feBlend mode="normal" in2="shape" result="effect1_innerShadow"/>
</filter>
<filter id="filter4_i" x="213" y="269" width="170" height="170" filterUnits="userSpaceOnUse" color-interpolation-filters="sRGB">
<feFlood flood-opacity="0" result="BackgroundImageFix"/>
<feBlend mode="normal" in="SourceGraphic" in2="BackgroundImageFix" result="shape"/>
<feColorMatrix in="SourceAlpha" type="matrix" values="0 0 0 0 0 0 0 0 0 0 0 0 0 0 0 0 0 0 127 0" result="hardAlpha"/>
<feOffset dx="8" dy="8"/>
<feGaussianBlur stdDeviation="12"/>
<feComposite in2="hardAlpha" operator="arithmetic" k2="-1" k3="1"/>
<feColorMatrix type="matrix" values="0 0 0 0 1 0 0 0 0 1 0 0 0 0 1 0 0 0 0.56 0"/>
<feBlend mode="normal" in2="shape" result="effect1_innerShadow"/>
</filter>
<filter id="filter5_i" x="165" y="0" width="104" height="104" filterUnits="userSpaceOnUse" color-interpolation-filters="sRGB">
<feFlood flood-opacity="0" result="BackgroundImageFix"/>
<feBlend mode="normal" in="SourceGraphic" in2="BackgroundImageFix" result="shape"/>
<feColorMatrix in="SourceAlpha" type="matrix" values="0 0 0 0 0 0 0 0 0 0 0 0 0 0 0 0 0 0 127 0" result="hardAlpha"/>
<feOffset dx="4" dy="4"/>
<feGaussianBlur stdDeviation="8"/>
<feComposite in2="hardAlpha" operator="arithmetic" k2="-1" k3="1"/>
<feColorMatrix type="matrix" values="0 0 0 0 1 0 0 0 0 1 0 0 0 0 1 0 0 0 0.56 0"/>
<feBlend mode="normal" in2="shape" result="effect1_innerShadow"/>
</filter>
<filter id="filter6_i" x="127" y="241" width="104" height="104" filterUnits="userSpaceOnUse" color-interpolation-filters="sRGB">
<feFlood flood-opacity="0" result="BackgroundImageFix"/>
<feBlend mode="normal" in="SourceGraphic" in2="BackgroundImageFix" result="shape"/>
<feColorMatrix in="SourceAlpha" type="matrix" values="0 0 0 0 0 0 0 0 0 0 0 0 0 0 0 0 0 0 127 0" result="hardAlpha"/>
<feOffset dx="4" dy="4"/>
<feGaussianBlur stdDeviation="8"/>
<feComposite in2="hardAlpha" operator="arithmetic" k2="-1" k3="1"/>
<feColorMatrix type="matrix" values="0 0 0 0 1 0 0 0 0 1 0 0 0 0 1 0 0 0 0.56 0"/>
<feBlend mode="normal" in2="shape" result="effect1_innerShadow"/>
</filter>
<filter id="filter7_i" x="0" y="212" width="134" height="134" filterUnits="userSpaceOnUse" color-interpolation-filters="sRGB">
<feFlood flood-opacity="0" result="BackgroundImageFix"/>
<feBlend mode="normal" in="SourceGraphic" in2="BackgroundImageFix" result="shape"/>
<feColorMatrix in="SourceAlpha" type="matrix" values="0 0 0 0 0 0 0 0 0 0 0 0 0 0 0 0 0 0 127 0" result="hardAlpha"/>
<feOffset dx="6" dy="6"/>
<feGaussianBlur stdDeviation="10"/>
<feComposite in2="hardAlpha" operator="arithmetic" k2="-1" k3="1"/>
<feColorMatrix type="matrix" values="0 0 0 0 1 0 0 0 0 1 0 0 0 0 1 0 0 0 0.56 0"/>
<feBlend mode="normal" in2="shape" result="effect1_innerShadow"/>
</filter>
<radialGradient id="paint0_radial" cx="0" cy="0" r="1" gradientUnits="userSpaceOnUse" gradientTransform="translate(375 269) rotate(-135) scale(263.044)">
<stop stop-color="#FBFF32"/>
<stop offset="0.540112" stop-color="#FF4264"/>
<stop offset="1" stop-color="#FF730E"/>
</radialGradient>
<radialGradient id="paint1_radial" cx="0" cy="0" r="1" gradientUnits="userSpaceOnUse" gradientTransform="translate(375 571) rotate(-135) scale(199.404)">
<stop stop-color="#00F0FF"/>
<stop offset="0.515625" stop-color="#0500FF"/>
<stop offset="1" stop-color="#00F5D8"/>
</radialGradient>
<radialGradient id="paint2_radial" cx="0" cy="0" r="1" gradientUnits="userSpaceOnUse" gradientTransform="translate(194 219) rotate(-135) scale(240.416)">
<stop offset="0.0364583" stop-color="#FF7B01"/>
<stop offset="0.546975" stop-color="#FFE600"/>
<stop offset="0.973958" stop-color="#FF6E1D"/>
</radialGradient>
<radialGradient id="paint3_radial" cx="0" cy="0" r="1" gradientUnits="userSpaceOnUse" gradientTransform="translate(240 571) rotate(-135) scale(339.411)">
<stop stop-color="#00F5D8"/>
<stop offset="0.25" stop-color="#0ECDF2"/>
<stop offset="0.505208" stop-color="#0094FF"/>
<stop offset="0.744792" stop-color="#5236FF"/>
<stop offset="1" stop-color="#CC00FF"/>
</radialGradient>
<radialGradient id="paint4_radial" cx="0" cy="0" r="1" gradientUnits="userSpaceOnUse" gradientTransform="translate(375 431) rotate(-135) scale(229.103)">
<stop offset="0.070931" stop-color="#D8FF3C"/>
<stop offset="0.540112" stop-color="#00FFC2"/>
<stop offset="0.917109" stop-color="#00D1FF"/>
</radialGradient>
<radialGradient id="paint5_radial" cx="0" cy="0" r="1" gradientUnits="userSpaceOnUse" gradientTransform="translate(265 100) rotate(-135) scale(141.421)">
<stop stop-color="#42A4FF"/>
<stop offset="0.540112" stop-color="#A00DFB"/>
<stop offset="1" stop-color="#FC05D4"/>
</radialGradient>
<radialGradient id="paint6_radial" cx="0" cy="0" r="1" gradientUnits="userSpaceOnUse" gradientTransform="translate(227 341) rotate(-135) scale(141.421)">
<stop offset="0.0841928" stop-color="#FBFF41"/>
<stop offset="0.552083" stop-color="#FF248D"/>
<stop offset="1" stop-color="#5E11C0"/>
</radialGradient>
<radialGradient id="paint7_radial" cx="0" cy="0" r="1" gradientUnits="userSpaceOnUse" gradientTransform="translate(128 340) rotate(-135) scale(181.019)">
<stop stop-color="#F90A60"/>
<stop offset="0.545482" stop-color="#F73DCE"/>
<stop offset="1" stop-color="#B5002B"/>
</radialGradient>
</defs>
</svg>
