<svg width="1224" height="776" viewBox="0 0 1224 776" fill="none" xmlns="http://www.w3.org/2000/svg">
<g filter="url(#filter0_i)">
<rect width="490" height="490" rx="245" fill="url(#paint0_radial)"/>
<path d="M193.816 226.024C189.784 226.024 185.88 223.912 185.176 218.472H174.68C175.896 229.288 184.408 233.832 193.624 233.832C203.288 233.832 212.056 229.032 212.056 219.496C212.056 215.208 209.432 210.344 204.824 208.488C208.088 206.632 211.288 202.792 211.288 197.928C211.288 189.48 202.52 185.832 194.328 185.832C184.984 185.832 176.28 189.928 175.256 200.104H185.688C186.392 195.176 189.848 193.64 193.816 193.64C197.272 193.64 200.664 195.432 200.664 198.824C200.664 202.92 197.016 204.904 190.936 204.904H188.184V213.608H191.256C197.208 213.608 201.24 215.464 201.24 219.56C201.24 223.848 198.424 226.024 193.816 226.024ZM236.482 233.832C247.234 233.832 255.426 228.52 255.426 219.24C255.426 214.888 253.954 211.048 249.154 208.04C252.29 205.8 254.082 203.176 254.082 198.312C254.082 191.336 247.234 185.832 236.482 185.832C225.73 185.832 218.818 191.336 218.818 198.312C218.818 203.176 220.546 205.8 223.81 208.04C219.01 211.048 217.538 214.888 217.538 219.24C217.538 228.52 225.73 233.832 236.482 233.832ZM236.482 226.024C231.234 226.024 228.354 222.696 228.354 218.856C228.354 215.016 231.17 211.944 236.482 211.944C241.794 211.944 244.61 215.016 244.61 218.856C244.61 222.696 241.73 226.024 236.482 226.024ZM236.482 205.032C231.682 205.032 229.314 202.6 229.314 199.336C229.314 196.008 231.682 193.64 236.482 193.64C241.282 193.64 243.65 196.008 243.65 199.336C243.65 202.6 241.282 205.032 236.482 205.032Z" fill="white"/>
<path d="M276.798 203.048C277.95 203.048 278.846 202.621 279.486 201.768C280.126 200.872 280.446 199.656 280.446 198.12C280.446 196.584 280.126 195.389 279.486 194.536C278.846 193.683 277.95 193.256 276.798 193.256C275.603 193.256 274.664 193.683 273.982 194.536C273.342 195.389 273.022 196.563 273.022 198.056C273.022 201.384 274.28 203.048 276.798 203.048ZM285.63 206.312C283.368 208.573 280.403 209.704 276.734 209.704C273.064 209.704 270.12 208.595 267.902 206.376C265.726 204.285 264.638 201.533 264.638 198.12C264.638 194.835 265.811 192.125 268.158 189.992C270.419 187.816 273.299 186.728 276.798 186.728C280.211 186.728 283.091 187.773 285.438 189.864C287.742 192.083 288.894 194.771 288.894 197.928C288.894 201.256 287.806 204.051 285.63 206.312ZM302.334 187.24H308.606L276.862 233H270.59L302.334 187.24ZM298.558 222.12C298.558 225.405 299.795 227.048 302.27 227.048C304.744 227.048 305.982 225.405 305.982 222.12C305.982 218.92 304.744 217.32 302.27 217.32C301.118 217.32 300.2 217.747 299.518 218.6C298.878 219.453 298.558 220.627 298.558 222.12ZM311.102 230.376C308.84 232.637 305.875 233.768 302.206 233.768C298.536 233.768 295.592 232.659 293.374 230.44C291.198 228.349 290.11 225.597 290.11 222.184C290.11 218.899 291.283 216.189 293.63 214.056C295.891 211.88 298.771 210.792 302.27 210.792C305.811 210.792 308.691 211.837 310.91 213.928C313.214 216.104 314.366 218.792 314.366 221.992C314.366 225.32 313.278 228.115 311.102 230.376Z" fill="white"/>
<path d="M184.39 277.336C186.406 277.336 187.894 276.16 188.83 274.144L195.238 259.6H192.526L187.87 270.904L182.806 259.6H180.166L186.646 273.448L186.31 274.072C185.83 274.96 185.086 275.224 184.222 275.224H182.59V277.336H184.39ZM205.153 277V264.088H202.969V269.968C201.769 270.256 200.761 270.4 199.921 270.4C198.097 270.4 197.185 269.752 197.185 267.832V264.088H195.001V268.288C195.001 271.096 196.417 272.296 199.129 272.296C200.305 272.296 201.457 272.128 202.969 271.768V277H205.153ZM217.7 277H219.884V264.088H217.7L211.028 273.832V264.088H208.844V277H211.028L217.7 267.256V277ZM233.114 265.984V264.088H222.098V265.984H226.514V277H228.698V265.984H233.114ZM246.187 271.264C246.451 267.16 244.123 263.872 240.163 263.872C236.635 263.872 233.899 266.464 233.899 270.568C233.899 274.384 236.155 277.312 240.235 277.312C243.379 277.312 245.443 275.464 246.019 273.256H243.763C243.211 274.528 242.155 275.392 240.235 275.392C238.339 275.392 236.323 274.048 236.251 271.264H246.187ZM240.163 265.744C242.491 265.744 243.811 267.568 243.883 269.392H236.275C236.467 266.8 238.243 265.744 240.163 265.744ZM259.075 264.088H250.459L250.267 268.504C250.003 273.856 248.899 275.104 247.747 275.104H247.507V277H247.915C250.915 277 252.043 274.312 252.355 269.104L252.547 265.984H256.891V277H259.075V264.088ZM274.054 271.264C274.318 267.16 271.99 263.872 268.03 263.872C264.502 263.872 261.766 266.464 261.766 270.568C261.766 274.384 264.022 277.312 268.102 277.312C271.246 277.312 273.31 275.464 273.886 273.256H271.63C271.078 274.528 270.022 275.392 268.102 275.392C266.206 275.392 264.19 274.048 264.118 271.264H274.054ZM268.03 265.744C270.358 265.744 271.678 267.568 271.75 269.392H264.142C264.334 266.8 266.11 265.744 268.03 265.744ZM284.471 259.6C284.375 260.368 283.775 261.064 282.359 261.064C280.943 261.064 280.367 260.368 280.271 259.6H278.567C278.687 261.04 279.695 262.504 282.335 262.504C285.071 262.504 285.983 261.04 286.175 259.6H284.471ZM285.599 277H287.783V264.088H285.599L278.927 273.832V264.088H276.743V277H278.927L285.599 267.256V277ZM306.036 277H308.22V264.088H306.036L299.364 273.832V264.088H297.18V277H299.364L306.036 267.256V277ZM160.953 298.088H150.321V311H152.505V299.984H158.769V311H160.953V298.088ZM164.641 298.088V315.2H166.825V309.056C167.617 310.424 168.961 311.312 171.049 311.312C174.025 311.312 176.569 308.888 176.569 304.592C176.569 300.368 174.025 297.872 171.049 297.872C168.961 297.872 167.617 298.76 166.825 300.128V298.088H164.641ZM166.729 304.592C166.729 301.184 168.553 299.744 170.497 299.744C172.729 299.744 174.193 301.496 174.193 304.592C174.193 307.688 172.729 309.44 170.497 309.44C168.553 309.44 166.729 308 166.729 304.592ZM190.733 305.264C190.997 301.16 188.669 297.872 184.709 297.872C181.181 297.872 178.445 300.464 178.445 304.568C178.445 308.384 180.701 311.312 184.781 311.312C187.925 311.312 189.989 309.464 190.565 307.256H188.309C187.757 308.528 186.701 309.392 184.781 309.392C182.885 309.392 180.869 308.048 180.797 305.264H190.733ZM184.709 299.744C187.037 299.744 188.357 301.568 188.429 303.392H180.821C181.013 300.8 182.789 299.744 184.709 299.744ZM204.054 298.088H193.422V311H195.606V299.984H201.87V311H204.054V298.088ZM209.111 304.592C209.111 301.064 210.983 299.792 212.975 299.792C214.967 299.792 216.839 301.136 216.839 304.592C216.839 307.904 214.967 309.392 212.975 309.392C210.983 309.392 209.111 308.048 209.111 304.592ZM212.975 297.872C209.975 297.872 206.783 299.912 206.783 304.592C206.783 309.272 209.975 311.312 212.975 311.312C215.975 311.312 219.167 309.272 219.167 304.592C219.167 299.912 215.975 297.872 212.975 297.872ZM233.736 309.104H231.936V298.088H223.224L223.056 302.24C222.864 307.184 222.096 309.104 220.632 309.104H220.056V313.856H222.168V311H231.624V313.856H233.736V309.104ZM229.752 309.104H223.464C224.472 308.144 225.024 306.272 225.216 302.456L225.336 299.984H229.752V309.104ZM243.954 305.6C243.954 308.648 242.01 309.584 239.97 309.584C238.41 309.584 237.474 308.768 237.474 307.544C237.474 305.768 239.994 305.168 243.954 304.784V305.6ZM239.49 311.312C241.794 311.312 243.114 310.568 243.906 309.224C243.93 309.992 244.002 310.52 244.074 311H246.282C246.018 309.776 245.922 308.312 245.946 306.128L245.97 303.152C245.994 299.504 244.41 297.824 240.834 297.824C238.338 297.824 235.842 299.384 235.65 302.168H237.906C238.002 300.56 239.034 299.6 240.858 299.6C242.49 299.6 243.786 300.368 243.786 302.744V303.056C238.506 303.632 235.05 304.544 235.05 307.592C235.05 309.968 237.066 311.312 239.49 311.312ZM249.344 298.088V311H255.344C258.104 311 260.192 309.92 260.192 307.232C260.192 305.504 259.208 304.592 257.864 304.208C259.064 303.704 259.664 302.744 259.664 301.376C259.664 298.76 257.552 298.088 254.96 298.088H249.344ZM251.528 303.512V299.984H254.744C256.376 299.984 257.384 300.272 257.384 301.616C257.384 303.08 256.424 303.512 254.816 303.512H251.528ZM251.528 305.312H254.936C256.952 305.312 257.912 305.768 257.912 307.208C257.912 308.552 256.928 309.104 255.008 309.104H251.528V305.312ZM270.766 305.6C270.766 308.648 268.822 309.584 266.782 309.584C265.222 309.584 264.286 308.768 264.286 307.544C264.286 305.768 266.806 305.168 270.766 304.784V305.6ZM266.302 311.312C268.606 311.312 269.926 310.568 270.718 309.224C270.742 309.992 270.814 310.52 270.886 311H273.094C272.83 309.776 272.734 308.312 272.758 306.128L272.782 303.152C272.806 299.504 271.222 297.824 267.646 297.824C265.15 297.824 262.654 299.384 262.462 302.168H264.718C264.814 300.56 265.846 299.6 267.67 299.6C269.302 299.6 270.598 300.368 270.598 302.744V303.056C265.318 303.632 261.862 304.544 261.862 307.592C261.862 309.968 263.878 311.312 266.302 311.312ZM285.005 299.984V298.088H273.989V299.984H278.405V311H280.589V299.984H285.005ZM298.077 305.264C298.341 301.16 296.013 297.872 292.053 297.872C288.525 297.872 285.789 300.464 285.789 304.568C285.789 308.384 288.045 311.312 292.125 311.312C295.269 311.312 297.333 309.464 297.909 307.256H295.653C295.101 308.528 294.045 309.392 292.125 309.392C290.229 309.392 288.213 308.048 288.141 305.264H298.077ZM292.053 299.744C294.381 299.744 295.701 301.568 295.773 303.392H288.165C288.357 300.8 290.133 299.744 292.053 299.744ZM310.966 298.088H302.35L302.158 302.504C301.894 307.856 300.79 309.104 299.638 309.104H299.398V311H299.806C302.806 311 303.934 308.312 304.246 303.104L304.438 299.984H308.782V311H310.966V298.088ZM325.944 305.264C326.208 301.16 323.88 297.872 319.92 297.872C316.392 297.872 313.656 300.464 313.656 304.568C313.656 308.384 315.912 311.312 319.992 311.312C323.136 311.312 325.2 309.464 325.776 307.256H323.52C322.968 308.528 321.912 309.392 319.992 309.392C318.096 309.392 316.08 308.048 316.008 305.264H325.944ZM319.92 299.744C322.248 299.744 323.568 301.568 323.64 303.392H316.032C316.224 300.8 318 299.744 319.92 299.744ZM336.361 293.6C336.265 294.368 335.665 295.064 334.249 295.064C332.833 295.064 332.257 294.368 332.161 293.6H330.457C330.577 295.04 331.585 296.504 334.225 296.504C336.961 296.504 337.873 295.04 338.065 293.6H336.361ZM337.489 311H339.673V298.088H337.489L330.817 307.832V298.088H328.633V311H330.817L337.489 301.256V311Z" fill="white"/>
</g>
<g filter="url(#filter1_i)">
<rect x="884" width="340" height="340" rx="170" fill="url(#paint1_radial)"/>
<path d="M1023.67 172V137.2H1017.67C1016.14 140.992 1013.74 142.672 1007.88 142.816V148.624H1015.8V172H1023.67ZM1044.6 147.52V157.696H1036.35L1044.6 147.52ZM1057.32 157.696H1052.52V137.2H1045.18L1027.66 158.464V164.656H1044.6V172H1052.52V164.656H1057.32V157.696Z" fill="#111111"/>
<path d="M1070.97 149.536C1071.84 149.536 1072.51 149.216 1072.99 148.576C1073.47 147.904 1073.71 146.992 1073.71 145.84C1073.71 144.688 1073.47 143.792 1072.99 143.152C1072.51 142.512 1071.84 142.192 1070.97 142.192C1070.08 142.192 1069.37 142.512 1068.86 143.152C1068.38 143.792 1068.14 144.672 1068.14 145.792C1068.14 148.288 1069.08 149.536 1070.97 149.536ZM1077.6 151.984C1075.9 153.68 1073.68 154.528 1070.92 154.528C1068.17 154.528 1065.96 153.696 1064.3 152.032C1062.67 150.464 1061.85 148.4 1061.85 145.84C1061.85 143.376 1062.73 141.344 1064.49 139.744C1066.19 138.112 1068.35 137.296 1070.97 137.296C1073.53 137.296 1075.69 138.08 1077.45 139.648C1079.18 141.312 1080.04 143.328 1080.04 145.696C1080.04 148.192 1079.23 150.288 1077.6 151.984ZM1090.12 137.68H1094.83L1071.02 172H1066.32L1090.12 137.68ZM1087.29 163.84C1087.29 166.304 1088.22 167.536 1090.08 167.536C1091.93 167.536 1092.86 166.304 1092.86 163.84C1092.86 161.44 1091.93 160.24 1090.08 160.24C1089.21 160.24 1088.52 160.56 1088.01 161.2C1087.53 161.84 1087.29 162.72 1087.29 163.84ZM1096.7 170.032C1095 171.728 1092.78 172.576 1090.03 172.576C1087.28 172.576 1085.07 171.744 1083.4 170.08C1081.77 168.512 1080.96 166.448 1080.96 163.888C1080.96 161.424 1081.84 159.392 1083.6 157.792C1085.29 156.16 1087.45 155.344 1090.08 155.344C1092.73 155.344 1094.89 156.128 1096.56 157.696C1098.28 159.328 1099.15 161.344 1099.15 163.744C1099.15 166.24 1098.33 168.336 1096.7 170.032Z" fill="#111111"/>
<path d="M987.229 208H992.949C995.849 208 998.149 206.8 998.149 203.72C998.149 201.94 997.329 200.86 995.949 200.28C996.969 199.7 997.549 198.46 997.549 197.08C997.549 194.2 995.149 193.5 992.449 193.5H987.229V208ZM989.269 201.32H992.849C995.029 201.32 996.049 202.04 996.049 203.74C996.049 205.4 995.049 206.28 992.969 206.28H989.269V201.32ZM989.269 195.22H992.769C994.389 195.22 995.489 195.86 995.489 197.36C995.489 199.06 994.449 199.7 992.769 199.7H989.269V195.22ZM1001.66 202.66C1001.66 199.72 1003.22 198.66 1004.88 198.66C1006.54 198.66 1008.1 199.78 1008.1 202.66C1008.1 205.42 1006.54 206.66 1004.88 206.66C1003.22 206.66 1001.66 205.54 1001.66 202.66ZM1004.88 197.06C1002.38 197.06 999.72 198.76 999.72 202.66C999.72 206.56 1002.38 208.26 1004.88 208.26C1007.38 208.26 1010.04 206.56 1010.04 202.66C1010.04 198.76 1007.38 197.06 1004.88 197.06ZM1016.83 197.06C1013.65 197.06 1011.63 199.44 1011.63 202.64C1011.63 205.92 1013.55 208.26 1016.65 208.26C1019.17 208.26 1021.07 206.52 1021.45 204.5H1019.57C1019.31 205.62 1018.25 206.66 1016.71 206.66C1015.11 206.66 1013.61 205.34 1013.61 202.62C1013.61 199.92 1015.11 198.66 1016.71 198.66C1018.13 198.66 1019.23 199.56 1019.49 200.84H1021.33C1021.07 199 1019.47 197.06 1016.83 197.06ZM1032.47 197.24H1023.61V208H1025.43V198.82H1030.65V208H1032.47V197.24ZM1042.92 208H1044.74V197.24H1042.92L1037.36 205.36V197.24H1035.54V208H1037.36L1042.92 199.88V208ZM1055.77 198.82V197.24H1046.59V198.82H1050.27V208H1052.09V198.82H1055.77ZM1063.72 203.5C1063.72 206.04 1062.1 206.82 1060.4 206.82C1059.1 206.82 1058.32 206.14 1058.32 205.12C1058.32 203.64 1060.42 203.14 1063.72 202.82V203.5ZM1060 208.26C1061.92 208.26 1063.02 207.64 1063.68 206.52C1063.7 207.16 1063.76 207.6 1063.82 208H1065.66C1065.44 206.98 1065.36 205.76 1065.38 203.94L1065.4 201.46C1065.42 198.42 1064.1 197.02 1061.12 197.02C1059.04 197.02 1056.96 198.32 1056.8 200.64H1058.68C1058.76 199.3 1059.62 198.5 1061.14 198.5C1062.5 198.5 1063.58 199.14 1063.58 201.12V201.38C1059.18 201.86 1056.3 202.62 1056.3 205.16C1056.3 207.14 1057.98 208.26 1060 208.26ZM1075.59 198.82V197.24H1066.41V198.82H1070.09V208H1071.91V198.82H1075.59ZM1086.48 203.22C1086.7 199.8 1084.76 197.06 1081.46 197.06C1078.52 197.06 1076.24 199.22 1076.24 202.64C1076.24 205.82 1078.12 208.26 1081.52 208.26C1084.14 208.26 1085.86 206.72 1086.34 204.88H1084.46C1084 205.94 1083.12 206.66 1081.52 206.66C1079.94 206.66 1078.26 205.54 1078.2 203.22H1086.48ZM1081.46 198.62C1083.4 198.62 1084.5 200.14 1084.56 201.66H1078.22C1078.38 199.5 1079.86 198.62 1081.46 198.62ZM1097.22 197.24H1090.04L1089.88 200.92C1089.66 205.38 1088.74 206.42 1087.78 206.42H1087.58V208H1087.92C1090.42 208 1091.36 205.76 1091.62 201.42L1091.78 198.82H1095.4V208H1097.22V197.24ZM1109.71 203.22C1109.93 199.8 1107.99 197.06 1104.69 197.06C1101.75 197.06 1099.47 199.22 1099.47 202.64C1099.47 205.82 1101.35 208.26 1104.75 208.26C1107.37 208.26 1109.09 206.72 1109.57 204.88H1107.69C1107.23 205.94 1106.35 206.66 1104.75 206.66C1103.17 206.66 1101.49 205.54 1101.43 203.22H1109.71ZM1104.69 198.62C1106.63 198.62 1107.73 200.14 1107.79 201.66H1101.45C1101.61 199.5 1103.09 198.62 1104.69 198.62ZM1118.39 193.5C1118.31 194.14 1117.81 194.72 1116.63 194.72C1115.45 194.72 1114.97 194.14 1114.89 193.5H1113.47C1113.57 194.7 1114.41 195.92 1116.61 195.92C1118.89 195.92 1119.65 194.7 1119.81 193.5H1118.39ZM1119.33 208H1121.15V197.24H1119.33L1113.77 205.36V197.24H1111.95V208H1113.77L1119.33 199.88V208Z" fill="#111111"/>
</g>
<g filter="url(#filter2_i)">
<rect x="507" y="170" width="390" height="390" rx="195" fill="url(#paint2_radial)"/>
<path d="M670.267 354V317.75H664.017C662.417 321.7 659.917 323.45 653.817 323.6V329.65H662.067V354H670.267ZM684.669 342.1C684.669 338.1 686.969 335.65 690.569 335.65C694.169 335.65 696.319 338.3 696.319 342.1C696.319 346.05 694.169 348.55 690.569 348.55C686.969 348.55 684.669 346.05 684.669 342.1ZM691.069 323.1C693.669 323.1 695.869 324.2 696.269 327.6H704.369C703.969 321.85 699.919 317.15 691.519 317.15C680.469 317.15 675.969 326.15 675.969 336.75C675.969 346.8 680.269 354.65 690.569 354.65C698.819 354.65 704.769 349.75 704.769 342.1C704.769 334.7 698.919 329.45 692.369 329.45C688.769 329.45 686.369 330.5 684.569 332.1C684.419 325.95 687.269 323.1 691.069 323.1Z" fill="white"/>
<path d="M720.076 330.6C720.976 330.6 721.676 330.267 722.176 329.6C722.676 328.9 722.926 327.95 722.926 326.75C722.926 325.55 722.676 324.617 722.176 323.95C721.676 323.283 720.976 322.95 720.076 322.95C719.143 322.95 718.41 323.283 717.876 323.95C717.376 324.617 717.126 325.533 717.126 326.7C717.126 329.3 718.11 330.6 720.076 330.6ZM726.976 333.15C725.21 334.917 722.893 335.8 720.026 335.8C717.16 335.8 714.86 334.933 713.126 333.2C711.426 331.567 710.576 329.417 710.576 326.75C710.576 324.183 711.493 322.067 713.326 320.4C715.093 318.7 717.343 317.85 720.076 317.85C722.743 317.85 724.993 318.667 726.826 320.3C728.626 322.033 729.526 324.133 729.526 326.6C729.526 329.2 728.676 331.383 726.976 333.15ZM740.026 318.25H744.926L720.126 354H715.226L740.026 318.25ZM737.076 345.5C737.076 348.067 738.043 349.35 739.976 349.35C741.91 349.35 742.876 348.067 742.876 345.5C742.876 343 741.91 341.75 739.976 341.75C739.076 341.75 738.36 342.083 737.826 342.75C737.326 343.417 737.076 344.333 737.076 345.5ZM746.876 351.95C745.11 353.717 742.793 354.6 739.926 354.6C737.06 354.6 734.76 353.733 733.026 352C731.326 350.367 730.476 348.217 730.476 345.55C730.476 342.983 731.393 340.867 733.226 339.2C734.993 337.5 737.243 336.65 739.976 336.65C742.743 336.65 744.993 337.467 746.726 339.1C748.526 340.8 749.426 342.9 749.426 345.4C749.426 348 748.576 350.183 746.876 351.95Z" fill="white"/>
<path d="M616.137 375.5V390H618.177V384.26H620.677C624.217 384.26 626.697 383.48 626.697 379.88C626.697 376.3 624.217 375.5 620.677 375.5H616.137ZM620.837 377.22C622.977 377.22 624.617 377.52 624.617 379.88C624.617 382.26 622.977 382.48 620.837 382.48H618.177V377.22H620.837ZM628.183 393.5H629.123C631.543 393.5 632.063 392.78 632.863 390.46L636.703 379.24H634.803L632.143 387.54L629.403 379.24H627.383L631.263 390L631.183 390.22C630.703 391.9 630.123 391.98 628.923 391.98H628.183V393.5ZM645.255 390H647.515L643.035 384.32L647.095 379.24H644.935L641.515 383.64H640.175V379.24H638.335V390H640.175V385.22H641.555L645.255 390ZM650.002 384.66C650.002 381.72 651.562 380.66 653.222 380.66C654.882 380.66 656.442 381.78 656.442 384.66C656.442 387.42 654.882 388.66 653.222 388.66C651.562 388.66 650.002 387.54 650.002 384.66ZM653.222 379.06C650.722 379.06 648.062 380.76 648.062 384.66C648.062 388.56 650.722 390.26 653.222 390.26C655.722 390.26 658.382 388.56 658.382 384.66C658.382 380.76 655.722 379.06 653.222 379.06ZM660.659 379.24V390H665.659C667.959 390 669.699 389.1 669.699 386.86C669.699 385.42 668.879 384.66 667.759 384.34C668.759 383.92 669.259 383.12 669.259 381.98C669.259 379.8 667.499 379.24 665.339 379.24H660.659ZM662.479 383.76V380.82H665.159C666.519 380.82 667.359 381.06 667.359 382.18C667.359 383.4 666.559 383.76 665.219 383.76H662.479ZM662.479 385.26H665.319C666.999 385.26 667.799 385.64 667.799 386.84C667.799 387.96 666.979 388.42 665.379 388.42H662.479V385.26ZM672.971 384.66C672.971 381.72 674.531 380.66 676.191 380.66C677.851 380.66 679.411 381.78 679.411 384.66C679.411 387.42 677.851 388.66 676.191 388.66C674.531 388.66 672.971 387.54 672.971 384.66ZM676.191 379.06C673.691 379.06 671.031 380.76 671.031 384.66C671.031 388.56 673.691 390.26 676.191 390.26C678.691 390.26 681.351 388.56 681.351 384.66C681.351 380.76 678.691 379.06 676.191 379.06ZM693.493 388.42H691.993V379.24H684.733L684.593 382.7C684.433 386.82 683.793 388.42 682.573 388.42H682.093V392.38H683.853V390H691.733V392.38H693.493V388.42ZM690.173 388.42H684.933C685.773 387.62 686.233 386.06 686.393 382.88L686.493 380.82H690.173V388.42ZM702.707 390H704.527V379.24H702.707L697.147 387.36V379.24H695.327V390H697.147L702.707 381.88V390ZM715.552 380.82V379.24H706.372V380.82H710.052V390H711.872V380.82H715.552ZM726.446 385.22C726.666 381.8 724.726 379.06 721.426 379.06C718.486 379.06 716.206 381.22 716.206 384.64C716.206 387.82 718.086 390.26 721.486 390.26C724.106 390.26 725.826 388.72 726.306 386.88H724.426C723.966 387.94 723.086 388.66 721.486 388.66C719.906 388.66 718.226 387.54 718.166 385.22H726.446ZM721.426 380.62C723.366 380.62 724.466 382.14 724.526 383.66H718.186C718.346 381.5 719.826 380.62 721.426 380.62ZM737.186 379.24H730.006L729.846 382.92C729.626 387.38 728.706 388.42 727.746 388.42H727.546V390H727.886C730.386 390 731.326 387.76 731.586 383.42L731.746 380.82H735.366V390H737.186V379.24ZM749.669 385.22C749.889 381.8 747.949 379.06 744.649 379.06C741.709 379.06 739.429 381.22 739.429 384.64C739.429 387.82 741.309 390.26 744.709 390.26C747.329 390.26 749.049 388.72 749.529 386.88H747.649C747.189 387.94 746.309 388.66 744.709 388.66C743.129 388.66 741.449 387.54 741.389 385.22H749.669ZM744.649 380.62C746.589 380.62 747.689 382.14 747.749 383.66H741.409C741.569 381.5 743.049 380.62 744.649 380.62ZM758.349 375.5C758.269 376.14 757.769 376.72 756.589 376.72C755.409 376.72 754.929 376.14 754.849 375.5H753.429C753.529 376.7 754.369 377.92 756.569 377.92C758.849 377.92 759.609 376.7 759.769 375.5H758.349ZM759.289 390H761.109V379.24H759.289L753.729 387.36V379.24H751.909V390H753.729L759.289 381.88V390ZM776.32 390H778.14V379.24H776.32L770.76 387.36V379.24H768.94V390H770.76L776.32 381.88V390ZM786.986 384.36C787.946 383.9 788.686 383.14 788.686 382.04C788.686 380.02 786.726 379 784.606 379C782.346 379 780.606 380.22 780.226 382.56H782.106C782.346 381.1 783.366 380.6 784.706 380.6C785.886 380.6 786.806 381.06 786.806 382.08C786.806 383.2 786.046 383.76 784.786 383.76H783.166V385.26H784.886C786.406 385.26 787.226 385.76 787.226 387.02C787.226 388.04 786.266 388.74 784.746 388.74C783.206 388.74 782.186 388.1 781.886 386.72H780.046C780.426 389.18 782.326 390.26 784.626 390.26C787.026 390.26 789.166 389.26 789.166 386.94C789.166 385.5 788.126 384.68 786.986 384.36ZM610.332 407.06C607.152 407.06 605.132 409.44 605.132 412.64C605.132 415.92 607.052 418.26 610.152 418.26C612.672 418.26 614.572 416.52 614.952 414.5H613.072C612.812 415.62 611.752 416.66 610.212 416.66C608.612 416.66 607.112 415.34 607.112 412.62C607.112 409.92 608.612 408.66 610.212 408.66C611.632 408.66 612.732 409.56 612.992 410.84H614.832C614.572 409 612.972 407.06 610.332 407.06ZM623.722 403.5H621.902V407.26C618.782 407.26 616.362 409 616.362 412.66C616.362 416.44 618.782 418.1 621.902 418.1V421.5H623.722V418.1C626.822 418.1 629.262 416.44 629.262 412.66C629.262 409 626.862 407.26 623.722 407.26V403.5ZM621.902 416.54C619.762 416.54 618.302 415.34 618.302 412.72C618.302 410.08 619.822 408.82 621.902 408.82V416.54ZM623.722 408.82C625.862 408.82 627.322 410.08 627.322 412.72C627.322 415.34 625.802 416.54 623.722 416.54V408.82ZM641.055 413.22C641.275 409.8 639.335 407.06 636.035 407.06C633.095 407.06 630.815 409.22 630.815 412.64C630.815 415.82 632.695 418.26 636.095 418.26C638.715 418.26 640.435 416.72 640.915 414.88H639.035C638.575 415.94 637.695 416.66 636.095 416.66C634.515 416.66 632.835 415.54 632.775 413.22H641.055ZM636.035 408.62C637.975 408.62 639.075 410.14 639.135 411.66H632.795C632.955 409.5 634.435 408.62 636.035 408.62ZM643.296 407.24V421.5H645.116V416.38C645.776 417.52 646.896 418.26 648.636 418.26C651.116 418.26 653.236 416.24 653.236 412.66C653.236 409.14 651.116 407.06 648.636 407.06C646.896 407.06 645.776 407.8 645.116 408.94V407.24H643.296ZM645.036 412.66C645.036 409.82 646.556 408.62 648.176 408.62C650.036 408.62 651.256 410.08 651.256 412.66C651.256 415.24 650.036 416.7 648.176 416.7C646.556 416.7 645.036 415.5 645.036 412.66ZM659.363 418C661.823 418 663.403 417.1 663.403 414.44C663.403 412.14 662.183 411.04 659.383 411.04H657.303V407.24H655.483V418H659.363ZM657.303 412.62H659.143C660.823 412.62 661.623 413 661.623 414.44C661.623 415.9 660.803 416.42 659.203 416.42H657.303V412.62ZM667.003 418V407.24H665.183V418H667.003ZM675.979 412.66C675.979 409.72 677.539 408.66 679.199 408.66C680.859 408.66 682.419 409.78 682.419 412.66C682.419 415.42 680.859 416.66 679.199 416.66C677.539 416.66 675.979 415.54 675.979 412.66ZM679.199 407.06C676.699 407.06 674.039 408.76 674.039 412.66C674.039 416.56 676.699 418.26 679.199 418.26C681.699 418.26 684.359 416.56 684.359 412.66C684.359 408.76 681.699 407.06 679.199 407.06ZM691.476 407.86C689.876 407.86 688.436 408.56 687.716 410.06C687.976 407.38 689.236 406.4 691.856 405.82L695.296 405.08V403.46L691.756 404.16C687.436 405.02 686.156 407.28 686.096 411.16V412.4C686.096 416.32 688.376 418.26 691.156 418.26C693.796 418.26 696.016 416.42 696.016 412.96C696.016 409.56 693.916 407.86 691.476 407.86ZM691.156 416.68C689.336 416.68 688.056 415.26 688.056 412.98C688.056 410.56 689.536 409.44 691.176 409.44C692.836 409.44 694.076 410.64 694.076 413C694.076 415.34 692.916 416.68 691.156 416.68ZM698.159 407.24V421.5H699.979V416.38C700.639 417.52 701.759 418.26 703.499 418.26C705.979 418.26 708.099 416.24 708.099 412.66C708.099 409.14 705.979 407.06 703.499 407.06C701.759 407.06 700.639 407.8 699.979 408.94V407.24H698.159ZM699.899 412.66C699.899 409.82 701.419 408.62 703.039 408.62C704.899 408.62 706.119 410.08 706.119 412.66C706.119 415.24 704.899 416.7 703.039 416.7C701.419 416.7 699.899 415.5 699.899 412.66ZM717.027 413.5C717.027 416.04 715.407 416.82 713.707 416.82C712.407 416.82 711.627 416.14 711.627 415.12C711.627 413.64 713.727 413.14 717.027 412.82V413.5ZM713.307 418.26C715.227 418.26 716.327 417.64 716.987 416.52C717.007 417.16 717.067 417.6 717.127 418H718.967C718.747 416.98 718.667 415.76 718.687 413.94L718.707 411.46C718.727 408.42 717.407 407.02 714.427 407.02C712.347 407.02 710.267 408.32 710.107 410.64H711.987C712.067 409.3 712.927 408.5 714.447 408.5C715.807 408.5 716.887 409.14 716.887 411.12V411.38C712.487 411.86 709.607 412.62 709.607 415.16C709.607 417.14 711.287 418.26 713.307 418.26ZM727.279 412.36C728.239 411.9 728.979 411.14 728.979 410.04C728.979 408.02 727.019 407 724.899 407C722.639 407 720.899 408.22 720.519 410.56H722.399C722.639 409.1 723.659 408.6 724.999 408.6C726.179 408.6 727.099 409.06 727.099 410.08C727.099 411.2 726.339 411.76 725.079 411.76H723.459V413.26H725.179C726.699 413.26 727.519 413.76 727.519 415.02C727.519 416.04 726.559 416.74 725.039 416.74C723.499 416.74 722.479 416.1 722.179 414.72H720.339C720.719 417.18 722.619 418.26 724.919 418.26C727.319 418.26 729.459 417.26 729.459 414.94C729.459 413.5 728.419 412.68 727.279 412.36ZM732.756 412.66C732.756 409.72 734.316 408.66 735.976 408.66C737.636 408.66 739.196 409.78 739.196 412.66C739.196 415.42 737.636 416.66 735.976 416.66C734.316 416.66 732.756 415.54 732.756 412.66ZM735.976 407.06C733.476 407.06 730.816 408.76 730.816 412.66C730.816 416.56 733.476 418.26 735.976 418.26C738.476 418.26 741.136 416.56 741.136 412.66C741.136 408.76 738.476 407.06 735.976 407.06ZM743.413 407.24V418H748.413C750.713 418 752.453 417.1 752.453 414.86C752.453 413.42 751.633 412.66 750.513 412.34C751.513 411.92 752.013 411.12 752.013 409.98C752.013 407.8 750.253 407.24 748.093 407.24H743.413ZM745.233 411.76V408.82H747.913C749.273 408.82 750.113 409.06 750.113 410.18C750.113 411.4 749.313 411.76 747.973 411.76H745.233ZM745.233 413.26H748.073C749.753 413.26 750.553 413.64 750.553 414.84C750.553 415.96 749.733 416.42 748.133 416.42H745.233V413.26ZM761.265 413.5C761.265 416.04 759.645 416.82 757.945 416.82C756.645 416.82 755.865 416.14 755.865 415.12C755.865 413.64 757.965 413.14 761.265 412.82V413.5ZM757.545 418.26C759.465 418.26 760.565 417.64 761.225 416.52C761.245 417.16 761.305 417.6 761.365 418H763.205C762.985 416.98 762.905 415.76 762.925 413.94L762.945 411.46C762.965 408.42 761.645 407.02 758.665 407.02C756.585 407.02 754.505 408.32 754.345 410.64H756.225C756.305 409.3 757.165 408.5 758.685 408.5C760.045 408.5 761.125 409.14 761.125 411.12V411.38C756.725 411.86 753.845 412.62 753.845 415.16C753.845 417.14 755.525 418.26 757.545 418.26ZM774.717 418V407.24H772.897V411.72H767.577V407.24H765.757V418H767.577V413.3H772.897V418H774.717ZM785.168 418H786.988V407.24H785.168L779.608 415.36V407.24H777.788V418H779.608L785.168 409.88V418ZM798.033 407.24H793.813C791.333 407.24 789.813 408.34 789.813 410.56C789.813 412.16 790.733 413.2 792.093 413.66L788.833 418H791.093L794.013 414.16C794.113 414.18 794.213 414.18 794.313 414.18H796.213V418H798.033V407.24ZM796.213 408.82V412.6H794.073C792.813 412.6 791.673 412.14 791.673 410.68C791.673 409.38 792.573 408.82 793.913 408.82H796.213Z" fill="white"/>
</g>
<g filter="url(#filter3_i)">
<rect x="904" y="370" width="260" height="260" rx="130" fill="url(#paint3_radial)"/>
<path d="M1021.33 467.56C1021.33 470.76 1019.53 472.72 1016.65 472.72C1013.77 472.72 1012.05 470.6 1012.05 467.56C1012.05 464.4 1013.77 462.4 1016.65 462.4C1019.53 462.4 1021.33 464.4 1021.33 467.56ZM1016.21 482.72C1014.17 482.72 1012.41 481.88 1012.09 479.16H1005.61C1005.93 483.76 1009.17 487.52 1015.89 487.52C1024.73 487.52 1028.33 480.32 1028.33 471.84C1028.33 463.8 1024.89 457.52 1016.65 457.52C1010.01 457.52 1005.29 461.44 1005.29 467.56C1005.29 473.48 1009.89 477.68 1015.17 477.68C1018.09 477.68 1020.01 476.84 1021.45 475.56C1021.57 480.44 1019.29 482.72 1016.21 482.72Z" fill="#111111"/>
<path d="M1039.56 468.28C1040.28 468.28 1040.84 468.013 1041.24 467.48C1041.64 466.92 1041.84 466.16 1041.84 465.2C1041.84 464.24 1041.64 463.493 1041.24 462.96C1040.84 462.427 1040.28 462.16 1039.56 462.16C1038.81 462.16 1038.23 462.427 1037.8 462.96C1037.4 463.493 1037.2 464.227 1037.2 465.16C1037.2 467.24 1037.99 468.28 1039.56 468.28ZM1045.08 470.32C1043.67 471.733 1041.81 472.44 1039.52 472.44C1037.23 472.44 1035.39 471.747 1034 470.36C1032.64 469.053 1031.96 467.333 1031.96 465.2C1031.96 463.147 1032.69 461.453 1034.16 460.12C1035.57 458.76 1037.37 458.08 1039.56 458.08C1041.69 458.08 1043.49 458.733 1044.96 460.04C1046.4 461.427 1047.12 463.107 1047.12 465.08C1047.12 467.16 1046.44 468.907 1045.08 470.32ZM1055.52 458.4H1059.44L1039.6 487H1035.68L1055.52 458.4ZM1053.16 480.2C1053.16 482.253 1053.93 483.28 1055.48 483.28C1057.03 483.28 1057.8 482.253 1057.8 480.2C1057.8 478.2 1057.03 477.2 1055.48 477.2C1054.76 477.2 1054.19 477.467 1053.76 478C1053.36 478.533 1053.16 479.267 1053.16 480.2ZM1061 485.36C1059.59 486.773 1057.73 487.48 1055.44 487.48C1053.15 487.48 1051.31 486.787 1049.92 485.4C1048.56 484.093 1047.88 482.373 1047.88 480.24C1047.88 478.187 1048.61 476.493 1050.08 475.16C1051.49 473.8 1053.29 473.12 1055.48 473.12C1057.69 473.12 1059.49 473.773 1060.88 475.08C1062.32 476.44 1063.04 478.12 1063.04 480.12C1063.04 482.2 1062.36 483.947 1061 485.36Z" fill="#111111"/>
<path d="M972.993 520V506.95H962.805V520H964.641V508.534H971.157V520H972.993ZM976.104 510.316V523.15H977.742V518.542C978.336 519.568 979.344 520.234 980.91 520.234C983.142 520.234 985.05 518.416 985.05 515.194C985.05 512.026 983.142 510.154 980.91 510.154C979.344 510.154 978.336 510.82 977.742 511.846V510.316H976.104ZM977.67 515.194C977.67 512.638 979.038 511.558 980.496 511.558C982.17 511.558 983.268 512.872 983.268 515.194C983.268 517.516 982.17 518.83 980.496 518.83C979.038 518.83 977.67 517.75 977.67 515.194ZM995.673 515.698C995.871 512.62 994.125 510.154 991.155 510.154C988.509 510.154 986.457 512.098 986.457 515.176C986.457 518.038 988.149 520.234 991.209 520.234C993.567 520.234 995.115 518.848 995.547 517.192H993.855C993.441 518.146 992.649 518.794 991.209 518.794C989.787 518.794 988.275 517.786 988.221 515.698H995.673ZM991.155 511.558C992.901 511.558 993.891 512.926 993.945 514.294H988.239C988.383 512.35 989.715 511.558 991.155 511.558ZM1006.57 518.578H1005.22V510.316H998.684L998.558 513.43C998.414 517.138 997.838 518.578 996.74 518.578H996.308V522.142H997.892V520H1004.98V522.142H1006.57V518.578ZM1003.58 518.578H998.864C999.62 517.858 1000.03 516.454 1000.18 513.592L1000.27 511.738H1003.58V518.578ZM1012.14 510.154C1009.28 510.154 1007.46 512.296 1007.46 515.176C1007.46 518.128 1009.19 520.234 1011.98 520.234C1014.25 520.234 1015.96 518.668 1016.3 516.85H1014.61C1014.38 517.858 1013.42 518.794 1012.04 518.794C1010.6 518.794 1009.25 517.606 1009.25 515.158C1009.25 512.728 1010.6 511.594 1012.04 511.594C1013.31 511.594 1014.3 512.404 1014.54 513.556H1016.19C1015.96 511.9 1014.52 510.154 1012.14 510.154ZM1025.07 511.738V510.316H1016.81V511.738H1020.12V520H1021.76V511.738H1025.07ZM1032.23 515.95C1032.23 518.236 1030.77 518.938 1029.24 518.938C1028.07 518.938 1027.37 518.326 1027.37 517.408C1027.37 516.076 1029.26 515.626 1032.23 515.338V515.95ZM1028.88 520.234C1030.61 520.234 1031.6 519.676 1032.2 518.668C1032.21 519.244 1032.27 519.64 1032.32 520H1033.98C1033.78 519.082 1033.71 517.984 1033.73 516.346L1033.74 514.114C1033.76 511.378 1032.57 510.118 1029.89 510.118C1028.02 510.118 1026.15 511.288 1026 513.376H1027.7C1027.77 512.17 1028.54 511.45 1029.91 511.45C1031.13 511.45 1032.11 512.026 1032.11 513.808V514.042C1028.15 514.474 1025.55 515.158 1025.55 517.444C1025.55 519.226 1027.07 520.234 1028.88 520.234ZM1036.27 510.316V520H1040.77C1042.84 520 1044.41 519.19 1044.41 517.174C1044.41 515.878 1043.67 515.194 1042.66 514.906C1043.56 514.528 1044.01 513.808 1044.01 512.782C1044.01 510.82 1042.43 510.316 1040.49 510.316H1036.27ZM1037.91 514.384V511.738H1040.32C1041.55 511.738 1042.3 511.954 1042.3 512.962C1042.3 514.06 1041.58 514.384 1040.38 514.384H1037.91ZM1037.91 515.734H1040.47C1041.98 515.734 1042.7 516.076 1042.7 517.156C1042.7 518.164 1041.96 518.578 1040.52 518.578H1037.91V515.734ZM1052.97 520H1054.61V510.316H1052.97L1047.97 517.624V510.316H1046.33V520H1047.97L1052.97 512.692V520ZM1064.53 511.738V510.316H1056.27V511.738H1059.58V520H1061.22V511.738H1064.53ZM1074.34 515.698C1074.53 512.62 1072.79 510.154 1069.82 510.154C1067.17 510.154 1065.12 512.098 1065.12 515.176C1065.12 518.038 1066.81 520.234 1069.87 520.234C1072.23 520.234 1073.78 518.848 1074.21 517.192H1072.52C1072.1 518.146 1071.31 518.794 1069.87 518.794C1068.45 518.794 1066.94 517.786 1066.88 515.698H1074.34ZM1069.82 511.558C1071.56 511.558 1072.55 512.926 1072.61 514.294H1066.9C1067.05 512.35 1068.38 511.558 1069.82 511.558ZM1084 510.316H1077.54L1077.4 513.628C1077.2 517.642 1076.37 518.578 1075.51 518.578H1075.33V520H1075.63C1077.88 520 1078.73 517.984 1078.96 514.078L1079.11 511.738H1082.36V520H1084V510.316ZM1095.24 515.698C1095.43 512.62 1093.69 510.154 1090.72 510.154C1088.07 510.154 1086.02 512.098 1086.02 515.176C1086.02 518.038 1087.71 520.234 1090.77 520.234C1093.13 520.234 1094.68 518.848 1095.11 517.192H1093.42C1093 518.146 1092.21 518.794 1090.77 518.794C1089.35 518.794 1087.84 517.786 1087.78 515.698H1095.24ZM1090.72 511.558C1092.46 511.558 1093.45 512.926 1093.51 514.294H1087.8C1087.95 512.35 1089.28 511.558 1090.72 511.558ZM1103.05 506.95C1102.98 507.526 1102.53 508.048 1101.46 508.048C1100.4 508.048 1099.97 507.526 1099.9 506.95H1098.62C1098.71 508.03 1099.47 509.128 1101.45 509.128C1103.5 509.128 1104.18 508.03 1104.33 506.95H1103.05ZM1103.89 520H1105.53V510.316H1103.89L1098.89 517.624V510.316H1097.25V520H1098.89L1103.89 512.692V520ZM1003.75 536.874C1002.31 536.874 1001.01 537.504 1000.37 538.854C1000.6 536.442 1001.73 535.56 1004.09 535.038L1007.19 534.372V532.914L1004 533.544C1000.11 534.318 998.963 536.352 998.909 539.844V540.96C998.909 544.488 1000.96 546.234 1003.46 546.234C1005.84 546.234 1007.84 544.578 1007.84 541.464C1007.84 538.404 1005.95 536.874 1003.75 536.874ZM1003.46 544.812C1001.82 544.812 1000.67 543.534 1000.67 541.482C1000.67 539.304 1002 538.296 1003.48 538.296C1004.97 538.296 1006.09 539.376 1006.09 541.5C1006.09 543.606 1005.05 544.812 1003.46 544.812ZM1016.41 546H1018.05V536.316H1016.41L1011.4 543.624V536.316H1009.77V546H1011.4L1016.41 538.692V546ZM1026.01 540.924C1026.87 540.51 1027.54 539.826 1027.54 538.836C1027.54 537.018 1025.77 536.1 1023.86 536.1C1021.83 536.1 1020.26 537.198 1019.92 539.304H1021.61C1021.83 537.99 1022.75 537.54 1023.95 537.54C1025.02 537.54 1025.84 537.954 1025.84 538.872C1025.84 539.88 1025.16 540.384 1024.03 540.384H1022.57V541.734H1024.12C1025.48 541.734 1026.22 542.184 1026.22 543.318C1026.22 544.236 1025.36 544.866 1023.99 544.866C1022.6 544.866 1021.69 544.29 1021.42 543.048H1019.76C1020.1 545.262 1021.81 546.234 1023.88 546.234C1026.04 546.234 1027.97 545.334 1027.97 543.246C1027.97 541.95 1027.03 541.212 1026.01 540.924ZM1037.97 546V536.316H1036.34V540.348H1031.55V536.316H1029.91V546H1031.55V541.77H1036.34V546H1037.97ZM1049.2 541.698C1049.4 538.62 1047.65 536.154 1044.68 536.154C1042.03 536.154 1039.98 538.098 1039.98 541.176C1039.98 544.038 1041.67 546.234 1044.73 546.234C1047.09 546.234 1048.64 544.848 1049.07 543.192H1047.38C1046.97 544.146 1046.17 544.794 1044.73 544.794C1043.31 544.794 1041.8 543.786 1041.75 541.698H1049.2ZM1044.68 537.558C1046.43 537.558 1047.42 538.926 1047.47 540.294H1041.76C1041.91 538.35 1043.24 537.558 1044.68 537.558ZM1055.23 536.154C1052.36 536.154 1050.55 538.296 1050.55 541.176C1050.55 544.128 1052.27 546.234 1055.06 546.234C1057.33 546.234 1059.04 544.668 1059.38 542.85H1057.69C1057.46 543.858 1056.5 544.794 1055.12 544.794C1053.68 544.794 1052.33 543.606 1052.33 541.158C1052.33 538.728 1053.68 537.594 1055.12 537.594C1056.4 537.594 1057.39 538.404 1057.62 539.556H1059.28C1059.04 537.9 1057.6 536.154 1055.23 536.154ZM1067.33 541.95C1067.33 544.236 1065.88 544.938 1064.35 544.938C1063.18 544.938 1062.47 544.326 1062.47 543.408C1062.47 542.076 1064.36 541.626 1067.33 541.338V541.95ZM1063.99 546.234C1065.71 546.234 1066.7 545.676 1067.3 544.668C1067.32 545.244 1067.37 545.64 1067.42 546H1069.08C1068.88 545.082 1068.81 543.984 1068.83 542.346L1068.85 540.114C1068.86 537.378 1067.68 536.118 1064.99 536.118C1063.12 536.118 1061.25 537.288 1061.11 539.376H1062.8C1062.87 538.17 1063.64 537.45 1065.01 537.45C1066.24 537.45 1067.21 538.026 1067.21 539.808V540.042C1063.25 540.474 1060.66 541.158 1060.66 543.444C1060.66 545.226 1062.17 546.234 1063.99 546.234Z" fill="#111111"/>
</g>
<g filter="url(#filter4_i)">
<rect x="331" y="470" width="220" height="220" rx="110" fill="url(#paint4_radial)"/>
<path d="M417.013 523.088H428.853C423.253 527.344 419.253 533.488 419.253 542H424.885C425.045 533.264 427.925 528.528 434.389 523.088V518.8H417.013V523.088Z" fill="white"/>
<path d="M445.148 527.024C445.724 527.024 446.172 526.811 446.492 526.384C446.812 525.936 446.972 525.328 446.972 524.56C446.972 523.792 446.812 523.195 446.492 522.768C446.172 522.341 445.724 522.128 445.148 522.128C444.551 522.128 444.082 522.341 443.74 522.768C443.42 523.195 443.26 523.781 443.26 524.528C443.26 526.192 443.89 527.024 445.148 527.024ZM449.564 528.656C448.434 529.787 446.951 530.352 445.116 530.352C443.282 530.352 441.81 529.797 440.7 528.688C439.612 527.643 439.068 526.267 439.068 524.56C439.068 522.917 439.655 521.563 440.828 520.496C441.959 519.408 443.399 518.864 445.148 518.864C446.855 518.864 448.295 519.387 449.468 520.432C450.62 521.541 451.196 522.885 451.196 524.464C451.196 526.128 450.652 527.525 449.564 528.656ZM457.916 519.12H461.052L445.18 542H442.044L457.916 519.12ZM456.028 536.56C456.028 538.203 456.647 539.024 457.884 539.024C459.122 539.024 459.74 538.203 459.74 536.56C459.74 534.96 459.122 534.16 457.884 534.16C457.308 534.16 456.85 534.373 456.508 534.8C456.188 535.227 456.028 535.813 456.028 536.56ZM462.3 540.688C461.17 541.819 459.687 542.384 457.852 542.384C456.018 542.384 454.546 541.829 453.436 540.72C452.348 539.675 451.804 538.299 451.804 536.592C451.804 534.949 452.391 533.595 453.564 532.528C454.695 531.44 456.135 530.896 457.884 530.896C459.655 530.896 461.095 531.419 462.204 532.464C463.356 533.552 463.932 534.896 463.932 536.496C463.932 538.16 463.388 539.557 462.3 540.688Z" fill="white"/>
<path d="M386.772 571V559.4H377.716V571H379.348V560.808H385.14V571H386.772ZM389.537 562.392V573.8H390.993V569.704C391.521 570.616 392.417 571.208 393.809 571.208C395.793 571.208 397.489 569.592 397.489 566.728C397.489 563.912 395.793 562.248 393.809 562.248C392.417 562.248 391.521 562.84 390.993 563.752V562.392H389.537ZM390.929 566.728C390.929 564.456 392.145 563.496 393.441 563.496C394.929 563.496 395.905 564.664 395.905 566.728C395.905 568.792 394.929 569.96 393.441 569.96C392.145 569.96 390.929 569 390.929 566.728ZM406.932 567.176C407.108 564.44 405.556 562.248 402.916 562.248C400.564 562.248 398.74 563.976 398.74 566.712C398.74 569.256 400.244 571.208 402.964 571.208C405.06 571.208 406.436 569.976 406.82 568.504H405.316C404.948 569.352 404.244 569.928 402.964 569.928C401.7 569.928 400.356 569.032 400.308 567.176H406.932ZM402.916 563.496C404.468 563.496 405.348 564.712 405.396 565.928H400.324C400.452 564.2 401.636 563.496 402.916 563.496ZM416.616 569.736H415.416V562.392H409.608L409.496 565.16C409.368 568.456 408.856 569.736 407.88 569.736H407.496V572.904H408.904V571H415.208V572.904H416.616V569.736ZM413.96 569.736H409.768C410.44 569.096 410.808 567.848 410.936 565.304L411.016 563.656H413.96V569.736ZM421.572 562.248C419.028 562.248 417.412 564.152 417.412 566.712C417.412 569.336 418.948 571.208 421.428 571.208C423.444 571.208 424.964 569.816 425.268 568.2H423.764C423.556 569.096 422.708 569.928 421.476 569.928C420.196 569.928 418.996 568.872 418.996 566.696C418.996 564.536 420.196 563.528 421.476 563.528C422.612 563.528 423.492 564.248 423.7 565.272H425.172C424.964 563.8 423.684 562.248 421.572 562.248ZM433.061 563.656V562.392H425.717V563.656H428.661V571H430.117V563.656H433.061ZM439.428 567.4C439.428 569.432 438.132 570.056 436.772 570.056C435.732 570.056 435.108 569.512 435.108 568.696C435.108 567.512 436.788 567.112 439.428 566.856V567.4ZM436.452 571.208C437.988 571.208 438.868 570.712 439.396 569.816C439.412 570.328 439.46 570.68 439.508 571H440.98C440.804 570.184 440.74 569.208 440.756 567.752L440.772 565.768C440.788 563.336 439.732 562.216 437.348 562.216C435.684 562.216 434.02 563.256 433.892 565.112H435.396C435.46 564.04 436.148 563.4 437.364 563.4C438.452 563.4 439.316 563.912 439.316 565.496V565.704C435.796 566.088 433.492 566.696 433.492 568.728C433.492 570.312 434.836 571.208 436.452 571.208ZM443.021 562.392V571H447.021C448.861 571 450.253 570.28 450.253 568.488C450.253 567.336 449.597 566.728 448.701 566.472C449.501 566.136 449.901 565.496 449.901 564.584C449.901 562.84 448.493 562.392 446.765 562.392H443.021ZM444.477 566.008V563.656H446.621C447.709 563.656 448.381 563.848 448.381 564.744C448.381 565.72 447.741 566.008 446.669 566.008H444.477ZM444.477 567.208H446.749C448.093 567.208 448.733 567.512 448.733 568.472C448.733 569.368 448.077 569.736 446.797 569.736H444.477V567.208ZM457.863 571H459.319V562.392H457.863L453.415 568.888V562.392H451.959V571H453.415L457.863 564.504V571ZM468.139 563.656V562.392H460.795V563.656H463.739V571H465.195V563.656H468.139ZM476.854 567.176C477.03 564.44 475.478 562.248 472.838 562.248C470.486 562.248 468.662 563.976 468.662 566.712C468.662 569.256 470.166 571.208 472.886 571.208C474.982 571.208 476.358 569.976 476.742 568.504H475.238C474.87 569.352 474.166 569.928 472.886 569.928C471.622 569.928 470.278 569.032 470.23 567.176H476.854ZM472.838 563.496C474.39 563.496 475.27 564.712 475.318 565.928H470.246C470.374 564.2 471.558 563.496 472.838 563.496ZM485.446 562.392H479.702L479.574 565.336C479.398 568.904 478.662 569.736 477.894 569.736H477.734V571H478.006C480.006 571 480.758 569.208 480.966 565.736L481.094 563.656H483.99V571H485.446V562.392ZM495.432 567.176C495.608 564.44 494.056 562.248 491.416 562.248C489.064 562.248 487.24 563.976 487.24 566.712C487.24 569.256 488.744 571.208 491.464 571.208C493.56 571.208 494.936 569.976 495.32 568.504H493.816C493.448 569.352 492.744 569.928 491.464 569.928C490.2 569.928 488.856 569.032 488.808 567.176H495.432ZM491.416 563.496C492.968 563.496 493.848 564.712 493.896 565.928H488.824C488.952 564.2 490.136 563.496 491.416 563.496ZM502.376 559.4C502.312 559.912 501.912 560.376 500.968 560.376C500.024 560.376 499.64 559.912 499.576 559.4H498.44C498.52 560.36 499.192 561.336 500.952 561.336C502.776 561.336 503.384 560.36 503.512 559.4H502.376ZM503.128 571H504.584V562.392H503.128L498.68 568.888V562.392H497.224V571H498.68L503.128 564.504V571ZM411.683 590.728C411.683 588.376 412.931 587.528 414.259 587.528C415.587 587.528 416.835 588.424 416.835 590.728C416.835 592.936 415.587 593.928 414.259 593.928C412.931 593.928 411.683 593.032 411.683 590.728ZM414.259 586.248C412.259 586.248 410.131 587.608 410.131 590.728C410.131 593.848 412.259 595.208 414.259 595.208C416.259 595.208 418.387 593.848 418.387 590.728C418.387 587.608 416.259 586.248 414.259 586.248ZM420.209 586.392V597.8H421.665V593.704C422.193 594.616 423.089 595.208 424.481 595.208C426.465 595.208 428.161 593.592 428.161 590.728C428.161 587.912 426.465 586.248 424.481 586.248C423.089 586.248 422.193 586.84 421.665 587.752V586.392H420.209ZM421.601 590.728C421.601 588.456 422.817 587.496 424.113 587.496C425.601 587.496 426.577 588.664 426.577 590.728C426.577 592.792 425.601 593.96 424.113 593.96C422.817 593.96 421.601 593 421.601 590.728ZM435.447 587.656V586.392H429.959V595H431.415V587.656H435.447ZM442.099 591.4C442.099 593.432 440.803 594.056 439.443 594.056C438.403 594.056 437.779 593.512 437.779 592.696C437.779 591.512 439.459 591.112 442.099 590.856V591.4ZM439.123 595.208C440.659 595.208 441.539 594.712 442.067 593.816C442.083 594.328 442.131 594.68 442.179 595H443.651C443.475 594.184 443.411 593.208 443.427 591.752L443.443 589.768C443.459 587.336 442.403 586.216 440.019 586.216C438.355 586.216 436.691 587.256 436.563 589.112H438.067C438.131 588.04 438.819 587.4 440.035 587.4C441.123 587.4 441.987 587.912 441.987 589.496V589.704C438.467 590.088 436.163 590.696 436.163 592.728C436.163 594.312 437.507 595.208 439.123 595.208ZM452.861 595V586.392H451.405V589.976H447.149V586.392H445.693V595H447.149V591.24H451.405V595H452.861ZM456.23 590.728C456.23 588.376 457.478 587.528 458.806 587.528C460.134 587.528 461.382 588.424 461.382 590.728C461.382 592.936 460.134 593.928 458.806 593.928C457.478 593.928 456.23 593.032 456.23 590.728ZM458.806 586.248C456.806 586.248 454.678 587.608 454.678 590.728C454.678 593.848 456.806 595.208 458.806 595.208C460.806 595.208 462.934 593.848 462.934 590.728C462.934 587.608 460.806 586.248 458.806 586.248ZM464.755 586.392V595H468.755C470.595 595 471.987 594.28 471.987 592.488C471.987 591.336 471.331 590.728 470.435 590.472C471.235 590.136 471.635 589.496 471.635 588.584C471.635 586.84 470.227 586.392 468.499 586.392H464.755ZM466.211 590.008V587.656H468.355C469.443 587.656 470.115 587.848 470.115 588.744C470.115 589.72 469.475 590.008 468.403 590.008H466.211ZM466.211 591.208H468.483C469.827 591.208 470.467 591.512 470.467 592.472C470.467 593.368 469.811 593.736 468.531 593.736H466.211V591.208ZM383.292 619H384.748V610.392H383.292L378.844 616.888V610.392H377.388V619H378.844L383.292 612.504V619ZM390.704 610.248C388.16 610.248 386.544 612.152 386.544 614.712C386.544 617.336 388.08 619.208 390.56 619.208C392.576 619.208 394.096 617.816 394.4 616.2H392.896C392.688 617.096 391.84 617.928 390.608 617.928C389.328 617.928 388.128 616.872 388.128 614.696C388.128 612.536 389.328 611.528 390.608 611.528C391.744 611.528 392.624 612.248 392.832 613.272H394.304C394.096 611.8 392.816 610.248 390.704 610.248ZM403.211 610.392H396.123V619H397.579V611.656H401.755V619H403.211V610.392ZM406.582 614.728C406.582 612.376 407.83 611.528 409.158 611.528C410.486 611.528 411.734 612.424 411.734 614.728C411.734 616.936 410.486 617.928 409.158 617.928C407.83 617.928 406.582 617.032 406.582 614.728ZM409.158 610.248C407.158 610.248 405.03 611.608 405.03 614.728C405.03 617.848 407.158 619.208 409.158 619.208C411.158 619.208 413.286 617.848 413.286 614.728C413.286 611.608 411.158 610.248 409.158 610.248ZM421.782 610.392H416.038L415.91 613.336C415.734 616.904 414.998 617.736 414.23 617.736H414.07V619H414.342C416.342 619 417.094 617.208 417.302 613.736L417.43 611.656H420.326V619H421.782V610.392ZM431.416 619V610.392H429.96V613.976H425.704V610.392H424.248V619H425.704V615.24H429.96V619H431.416ZM439.777 619H441.233V610.392H439.777L435.329 616.888V610.392H433.873V619H435.329L439.777 612.504V619ZM450.053 611.656V610.392H442.709V611.656H445.653V619H447.109V611.656H450.053ZM458.768 615.176C458.944 612.44 457.392 610.248 454.752 610.248C452.4 610.248 450.576 611.976 450.576 614.712C450.576 617.256 452.08 619.208 454.8 619.208C456.896 619.208 458.272 617.976 458.656 616.504H457.152C456.784 617.352 456.08 617.928 454.8 617.928C453.536 617.928 452.192 617.032 452.144 615.176H458.768ZM454.752 611.496C456.304 611.496 457.184 612.712 457.232 613.928H452.16C452.288 612.2 453.472 611.496 454.752 611.496ZM467.36 610.392H461.616L461.488 613.336C461.312 616.904 460.576 617.736 459.808 617.736H459.648V619H459.92C461.92 619 462.672 617.208 462.88 613.736L463.008 611.656H465.904V619H467.36V610.392ZM471.282 613.432V610.392H469.826V619H473.314C475.298 619 476.546 618.28 476.546 616.152C476.546 614.312 475.586 613.432 473.33 613.432H471.282ZM471.282 617.736V614.696H473.154C474.45 614.696 475.122 615.016 475.122 616.152C475.122 617.304 474.466 617.736 473.186 617.736H471.282ZM485.353 619V610.392H483.897V613.976H479.641V610.392H478.185V619H479.641V615.24H483.897V619H485.353ZM488.722 614.728C488.722 612.376 489.97 611.528 491.298 611.528C492.626 611.528 493.874 612.424 493.874 614.728C493.874 616.936 492.626 617.928 491.298 617.928C489.97 617.928 488.722 617.032 488.722 614.728ZM491.298 610.248C489.298 610.248 487.17 611.608 487.17 614.728C487.17 617.848 489.298 619.208 491.298 619.208C493.298 619.208 495.426 617.848 495.426 614.728C495.426 611.608 493.298 610.248 491.298 610.248ZM502.4 607.4C502.336 607.912 501.936 608.376 500.992 608.376C500.048 608.376 499.664 607.912 499.6 607.4H498.464C498.544 608.36 499.216 609.336 500.976 609.336C502.8 609.336 503.408 608.36 503.536 607.4H502.4ZM503.152 619H504.608V610.392H503.152L498.704 616.888V610.392H497.248V619H498.704L503.152 612.504V619ZM415.521 634.392V643H419.521C421.361 643 422.753 642.28 422.753 640.488C422.753 639.336 422.097 638.728 421.201 638.472C422.001 638.136 422.401 637.496 422.401 636.584C422.401 634.84 420.993 634.392 419.265 634.392H415.521ZM416.977 638.008V635.656H419.121C420.209 635.656 420.881 635.848 420.881 636.744C420.881 637.72 420.241 638.008 419.169 638.008H416.977ZM416.977 639.208H419.249C420.593 639.208 421.233 639.512 421.233 640.472C421.233 641.368 420.577 641.736 419.297 641.736H416.977V639.208ZM431.259 634.392H425.515L425.387 637.336C425.211 640.904 424.475 641.736 423.707 641.736H423.547V643H423.819C425.819 643 426.571 641.208 426.779 637.736L426.907 635.656H429.803V643H431.259V634.392ZM439.068 639.4C439.068 641.432 437.772 642.056 436.412 642.056C435.372 642.056 434.748 641.512 434.748 640.696C434.748 639.512 436.428 639.112 439.068 638.856V639.4ZM436.092 643.208C437.628 643.208 438.508 642.712 439.036 641.816C439.052 642.328 439.1 642.68 439.148 643H440.62C440.444 642.184 440.38 641.208 440.396 639.752L440.412 637.768C440.428 635.336 439.372 634.216 436.988 634.216C435.324 634.216 433.66 635.256 433.532 637.112H435.036C435.1 636.04 435.788 635.4 437.004 635.4C438.092 635.4 438.956 635.912 438.956 637.496V637.704C435.436 638.088 433.132 638.696 433.132 640.728C433.132 642.312 434.476 643.208 436.092 643.208ZM446.15 634.248C443.606 634.248 441.99 636.152 441.99 638.712C441.99 641.336 443.526 643.208 446.006 643.208C448.022 643.208 449.542 641.816 449.846 640.2H448.342C448.134 641.096 447.286 641.928 446.054 641.928C444.774 641.928 443.574 640.872 443.574 638.696C443.574 636.536 444.774 635.528 446.054 635.528C447.19 635.528 448.07 636.248 448.278 637.272H449.75C449.542 635.8 448.262 634.248 446.15 634.248ZM457.639 635.656V634.392H450.295V635.656H453.239V643H454.695V635.656H457.639ZM465.019 643H466.475V634.392H465.019L460.571 640.888V634.392H459.115V643H460.571L465.019 636.504V643Z" fill="white"/>
</g>
<g filter="url(#filter5_i)">
<rect x="564" y="596" width="180" height="180" rx="90" fill="url(#paint5_radial)"/>
<path d="M636.347 676.384C636.347 673.824 637.819 672.256 640.123 672.256C642.427 672.256 643.803 673.952 643.803 676.384C643.803 678.912 642.427 680.512 640.123 680.512C637.819 680.512 636.347 678.912 636.347 676.384ZM640.443 664.224C642.107 664.224 643.515 664.928 643.771 667.104H648.955C648.699 663.424 646.107 660.416 640.731 660.416C633.659 660.416 630.779 666.176 630.779 672.96C630.779 679.392 633.531 684.416 640.123 684.416C645.403 684.416 649.211 681.28 649.211 676.384C649.211 671.648 645.467 668.288 641.275 668.288C638.971 668.288 637.435 668.96 636.283 669.984C636.187 666.048 638.011 664.224 640.443 664.224Z" fill="white"/>
<path d="M658.648 669.024C659.224 669.024 659.672 668.811 659.992 668.384C660.312 667.936 660.472 667.328 660.472 666.56C660.472 665.792 660.312 665.195 659.992 664.768C659.672 664.341 659.224 664.128 658.648 664.128C658.051 664.128 657.582 664.341 657.24 664.768C656.92 665.195 656.76 665.781 656.76 666.528C656.76 668.192 657.39 669.024 658.648 669.024ZM663.064 670.656C661.934 671.787 660.451 672.352 658.616 672.352C656.782 672.352 655.31 671.797 654.2 670.688C653.112 669.643 652.568 668.267 652.568 666.56C652.568 664.917 653.155 663.563 654.328 662.496C655.459 661.408 656.899 660.864 658.648 660.864C660.355 660.864 661.795 661.387 662.968 662.432C664.12 663.541 664.696 664.885 664.696 666.464C664.696 668.128 664.152 669.525 663.064 670.656ZM671.416 661.12H674.552L658.68 684H655.544L671.416 661.12ZM669.528 678.56C669.528 680.203 670.147 681.024 671.384 681.024C672.622 681.024 673.24 680.203 673.24 678.56C673.24 676.96 672.622 676.16 671.384 676.16C670.808 676.16 670.35 676.373 670.008 676.8C669.688 677.227 669.528 677.813 669.528 678.56ZM675.8 682.688C674.67 683.819 673.187 684.384 671.352 684.384C669.518 684.384 668.046 683.829 666.936 682.72C665.848 681.675 665.304 680.299 665.304 678.592C665.304 676.949 665.891 675.595 667.064 674.528C668.195 673.44 669.635 672.896 671.384 672.896C673.155 672.896 674.595 673.419 675.704 674.464C676.856 675.552 677.432 676.896 677.432 678.496C677.432 680.16 676.888 681.557 675.8 682.688Z" fill="white"/>
<path d="M613.599 701.4V713H615.231V708.408H617.231C620.062 708.408 622.047 707.784 622.047 704.904C622.047 702.04 620.062 701.4 617.231 701.4H613.599ZM617.359 702.776C619.071 702.776 620.383 703.016 620.383 704.904C620.383 706.808 619.071 706.984 617.359 706.984H615.231V702.776H617.359ZM624.191 708.728C624.191 706.376 625.439 705.528 626.767 705.528C628.095 705.528 629.343 706.424 629.343 708.728C629.343 710.936 628.095 711.928 626.767 711.928C625.439 711.928 624.191 711.032 624.191 708.728ZM626.767 704.248C624.767 704.248 622.639 705.608 622.639 708.728C622.639 711.848 624.767 713.208 626.767 713.208C628.767 713.208 630.895 711.848 630.895 708.728C630.895 705.608 628.767 704.248 626.767 704.248ZM640.608 711.736H639.408V704.392H633.6L633.488 707.16C633.36 710.456 632.848 711.736 631.872 711.736H631.488V714.904H632.896V713H639.2V714.904H640.608V711.736ZM637.952 711.736H633.76C634.432 711.096 634.8 709.848 634.928 707.304L635.008 705.656H637.952V711.736ZM647.98 713H649.436V704.392H647.98L643.532 710.888V704.392H642.076V713H643.532L647.98 706.504V713ZM658.256 705.656V704.392H650.912V705.656H653.856V713H655.312V705.656H658.256ZM666.971 709.176C667.147 706.44 665.595 704.248 662.955 704.248C660.603 704.248 658.779 705.976 658.779 708.712C658.779 711.256 660.283 713.208 663.003 713.208C665.099 713.208 666.475 711.976 666.859 710.504H665.355C664.987 711.352 664.283 711.928 663.003 711.928C661.739 711.928 660.395 711.032 660.347 709.176H666.971ZM662.955 705.496C664.507 705.496 665.387 706.712 665.435 707.928H660.363C660.491 706.2 661.675 705.496 662.955 705.496ZM675.563 704.392H669.819L669.691 707.336C669.515 710.904 668.779 711.736 668.011 711.736H667.851V713H668.123C670.123 713 670.875 711.208 671.083 707.736L671.211 705.656H674.107V713H675.563V704.392ZM685.549 709.176C685.725 706.44 684.173 704.248 681.533 704.248C679.181 704.248 677.357 705.976 677.357 708.712C677.357 711.256 678.861 713.208 681.581 713.208C683.677 713.208 685.053 711.976 685.437 710.504H683.933C683.565 711.352 682.861 711.928 681.581 711.928C680.317 711.928 678.973 711.032 678.925 709.176H685.549ZM681.533 705.496C683.085 705.496 683.965 706.712 684.013 707.928H678.941C679.069 706.2 680.253 705.496 681.533 705.496ZM692.493 701.4C692.429 701.912 692.029 702.376 691.085 702.376C690.141 702.376 689.757 701.912 689.693 701.4H688.557C688.637 702.36 689.309 703.336 691.069 703.336C692.893 703.336 693.501 702.36 693.629 701.4H692.493ZM693.245 713H694.701V704.392H693.245L688.797 710.888V704.392H687.341V713H688.797L693.245 706.504V713Z" fill="white"/>
</g>
<g filter="url(#filter6_i)">
<rect x="769" y="564" width="140" height="140" rx="70" fill="url(#paint6_radial)"/>
<path d="M826.945 628.948C825.153 628.948 823.669 628.108 823.249 625.756H818.797C819.469 630.068 822.801 632.364 827.001 632.364C831.453 632.364 835.289 629.928 835.289 625.28C835.289 620.576 831.817 618.196 828.149 618.196C826.721 618.196 825.097 618.588 824.117 619.26L824.593 615.452H834.337V611.7H820.757L819.329 623.208L823.557 623.628C824.257 622.312 825.433 621.612 827.029 621.612C828.821 621.612 830.529 622.816 830.529 625.308C830.529 627.66 828.989 628.948 826.945 628.948Z" fill="white"/>
<path d="M843.942 618.896C844.446 618.896 844.838 618.709 845.118 618.336C845.398 617.944 845.538 617.412 845.538 616.74C845.538 616.068 845.398 615.545 845.118 615.172C844.838 614.799 844.446 614.612 843.942 614.612C843.419 614.612 843.009 614.799 842.71 615.172C842.43 615.545 842.29 616.059 842.29 616.712C842.29 618.168 842.841 618.896 843.942 618.896ZM847.806 620.324C846.817 621.313 845.519 621.808 843.914 621.808C842.309 621.808 841.021 621.323 840.05 620.352C839.098 619.437 838.622 618.233 838.622 616.74C838.622 615.303 839.135 614.117 840.162 613.184C841.151 612.232 842.411 611.756 843.942 611.756C845.435 611.756 846.695 612.213 847.722 613.128C848.73 614.099 849.234 615.275 849.234 616.656C849.234 618.112 848.758 619.335 847.806 620.324ZM855.114 611.98H857.858L843.97 632H841.226L855.114 611.98ZM853.462 627.24C853.462 628.677 854.003 629.396 855.086 629.396C856.169 629.396 856.71 628.677 856.71 627.24C856.71 625.84 856.169 625.14 855.086 625.14C854.582 625.14 854.181 625.327 853.882 625.7C853.602 626.073 853.462 626.587 853.462 627.24ZM858.95 630.852C857.961 631.841 856.663 632.336 855.058 632.336C853.453 632.336 852.165 631.851 851.194 630.88C850.242 629.965 849.766 628.761 849.766 627.268C849.766 625.831 850.279 624.645 851.306 623.712C852.295 622.76 853.555 622.284 855.086 622.284C856.635 622.284 857.895 622.741 858.866 623.656C859.874 624.608 860.378 625.784 860.378 627.184C860.378 628.64 859.902 629.863 858.95 630.852Z" fill="white"/>
<path d="M805.397 658L808.197 649.152V658H809.625V647.85H807.231L804.641 656.306L802.051 647.85H799.657V658H801.085V649.152L803.885 658H805.397ZM818.632 654.654C818.786 652.26 817.428 650.342 815.118 650.342C813.06 650.342 811.464 651.854 811.464 654.248C811.464 656.474 812.78 658.182 815.16 658.182C816.994 658.182 818.198 657.104 818.534 655.816H817.218C816.896 656.558 816.28 657.062 815.16 657.062C814.054 657.062 812.878 656.278 812.836 654.654H818.632ZM815.118 651.434C816.476 651.434 817.246 652.498 817.288 653.562H812.85C812.962 652.05 813.998 651.434 815.118 651.434ZM825.444 651.574V650.468H819.018V651.574H821.594V658H822.868V651.574H825.444ZM827.287 654.262C827.287 652.204 828.379 651.462 829.541 651.462C830.703 651.462 831.795 652.246 831.795 654.262C831.795 656.194 830.703 657.062 829.541 657.062C828.379 657.062 827.287 656.278 827.287 654.262ZM829.541 650.342C827.791 650.342 825.929 651.532 825.929 654.262C825.929 656.992 827.791 658.182 829.541 658.182C831.291 658.182 833.153 656.992 833.153 654.262C833.153 651.532 831.291 650.342 829.541 650.342ZM841.652 656.894H840.602V650.468H835.52L835.422 652.89C835.31 655.774 834.862 656.894 834.008 656.894H833.672V659.666H834.904V658H840.42V659.666H841.652V656.894ZM839.328 656.894H835.66C836.248 656.334 836.57 655.242 836.682 653.016L836.752 651.574H839.328V656.894ZM848.102 658H849.376V650.468H848.102L844.21 656.152V650.468H842.936V658H844.21L848.102 652.316V658ZM854.588 650.342C852.362 650.342 850.948 652.008 850.948 654.248C850.948 656.544 852.292 658.182 854.462 658.182C856.226 658.182 857.556 656.964 857.822 655.55H856.506C856.324 656.334 855.582 657.062 854.504 657.062C853.384 657.062 852.334 656.138 852.334 654.234C852.334 652.344 853.384 651.462 854.504 651.462C855.498 651.462 856.268 652.092 856.45 652.988H857.738C857.556 651.7 856.436 650.342 854.588 650.342ZM864.641 651.574V650.468H858.215V651.574H860.791V658H862.065V651.574H864.641ZM866.484 654.262C866.484 652.204 867.576 651.462 868.738 651.462C869.9 651.462 870.992 652.246 870.992 654.262C870.992 656.194 869.9 657.062 868.738 657.062C867.576 657.062 866.484 656.278 866.484 654.262ZM868.738 650.342C866.988 650.342 865.126 651.532 865.126 654.262C865.126 656.992 866.988 658.182 868.738 658.182C870.488 658.182 872.35 656.992 872.35 654.262C872.35 651.532 870.488 650.342 868.738 650.342ZM873.944 650.468V658H877.444C879.054 658 880.272 657.37 880.272 655.802C880.272 654.794 879.698 654.262 878.914 654.038C879.614 653.744 879.964 653.184 879.964 652.386C879.964 650.86 878.732 650.468 877.22 650.468H873.944ZM875.218 653.632V651.574H877.094C878.046 651.574 878.634 651.742 878.634 652.526C878.634 653.38 878.074 653.632 877.136 653.632H875.218ZM875.218 654.682H877.206C878.382 654.682 878.942 654.948 878.942 655.788C878.942 656.572 878.368 656.894 877.248 656.894H875.218V654.682Z" fill="white"/>
</g>
<g filter="url(#filter7_i)">
<rect x="159" y="517" width="140" height="140" rx="70" fill="url(#paint7_radial)"/>
<path d="M216.945 581.948C215.153 581.948 213.669 581.108 213.249 578.756H208.797C209.469 583.068 212.801 585.364 217.001 585.364C221.453 585.364 225.289 582.928 225.289 578.28C225.289 573.576 221.817 571.196 218.149 571.196C216.721 571.196 215.097 571.588 214.117 572.26L214.593 568.452H224.337V564.7H210.757L209.329 576.208L213.557 576.628C214.257 575.312 215.433 574.612 217.029 574.612C218.821 574.612 220.529 575.816 220.529 578.308C220.529 580.66 218.989 581.948 216.945 581.948Z" fill="white"/>
<path d="M233.942 571.896C234.446 571.896 234.838 571.709 235.118 571.336C235.398 570.944 235.538 570.412 235.538 569.74C235.538 569.068 235.398 568.545 235.118 568.172C234.838 567.799 234.446 567.612 233.942 567.612C233.419 567.612 233.009 567.799 232.71 568.172C232.43 568.545 232.29 569.059 232.29 569.712C232.29 571.168 232.841 571.896 233.942 571.896ZM237.806 573.324C236.817 574.313 235.519 574.808 233.914 574.808C232.309 574.808 231.021 574.323 230.05 573.352C229.098 572.437 228.622 571.233 228.622 569.74C228.622 568.303 229.135 567.117 230.162 566.184C231.151 565.232 232.411 564.756 233.942 564.756C235.435 564.756 236.695 565.213 237.722 566.128C238.73 567.099 239.234 568.275 239.234 569.656C239.234 571.112 238.758 572.335 237.806 573.324ZM245.114 564.98H247.858L233.97 585H231.226L245.114 564.98ZM243.462 580.24C243.462 581.677 244.003 582.396 245.086 582.396C246.169 582.396 246.71 581.677 246.71 580.24C246.71 578.84 246.169 578.14 245.086 578.14C244.582 578.14 244.181 578.327 243.882 578.7C243.602 579.073 243.462 579.587 243.462 580.24ZM248.95 583.852C247.961 584.841 246.663 585.336 245.058 585.336C243.453 585.336 242.165 584.851 241.194 583.88C240.242 582.965 239.766 581.761 239.766 580.268C239.766 578.831 240.279 577.645 241.306 576.712C242.295 575.76 243.555 575.284 245.086 575.284C246.635 575.284 247.895 575.741 248.866 576.656C249.874 577.608 250.378 578.784 250.378 580.184C250.378 581.64 249.902 582.863 248.95 583.852Z" fill="white"/>
<path d="M198.998 611.196C200.174 611.196 201.042 610.51 201.588 609.334L205.326 600.85H203.744L201.028 607.444L198.074 600.85H196.534L200.314 608.928L200.118 609.292C199.838 609.81 199.404 609.964 198.9 609.964H197.948V611.196H198.998ZM211.109 611V603.468H209.835V606.898C209.135 607.066 208.547 607.15 208.057 607.15C206.993 607.15 206.461 606.772 206.461 605.652V603.468H205.187V605.918C205.187 607.556 206.013 608.256 207.595 608.256C208.281 608.256 208.953 608.158 209.835 607.948V611H211.109ZM217.939 607.85C217.939 609.628 216.805 610.174 215.615 610.174C214.705 610.174 214.159 609.698 214.159 608.984C214.159 607.948 215.629 607.598 217.939 607.374V607.85ZM215.335 611.182C216.679 611.182 217.449 610.748 217.911 609.964C217.925 610.412 217.967 610.72 218.009 611H219.297C219.143 610.286 219.087 609.432 219.101 608.158L219.115 606.422C219.129 604.294 218.205 603.314 216.119 603.314C214.663 603.314 213.207 604.224 213.095 605.848H214.411C214.467 604.91 215.069 604.35 216.133 604.35C217.085 604.35 217.841 604.798 217.841 606.184V606.366C214.761 606.702 212.745 607.234 212.745 609.012C212.745 610.398 213.921 611.182 215.335 611.182ZM231.415 609.894H230.365V603.468H229.091V609.894H226.361V603.468H225.087V609.894H222.357V603.468H221.083V611H230.211V612.806H231.415V609.894ZM237.87 611H239.144V603.468H237.87L233.978 609.152V603.468H232.704V611H233.978L237.87 605.316V611ZM247.17 603.468H245.742L243.894 606.058L242.06 603.468H240.534L243.138 607.122L240.366 611H241.822L243.852 608.13L245.896 611H247.422L244.608 607.066L247.17 603.468ZM251.424 603.342C249.198 603.342 247.784 605.008 247.784 607.248C247.784 609.544 249.128 611.182 251.298 611.182C253.062 611.182 254.392 609.964 254.658 608.55H253.342C253.16 609.334 252.418 610.062 251.34 610.062C250.22 610.062 249.17 609.138 249.17 607.234C249.17 605.344 250.22 604.462 251.34 604.462C252.334 604.462 253.104 605.092 253.286 605.988H254.574C254.392 604.7 253.272 603.342 251.424 603.342ZM261.532 603.468H258.578C256.842 603.468 255.778 604.238 255.778 605.792C255.778 606.912 256.422 607.64 257.374 607.962L255.092 611H256.674L258.718 608.312C258.788 608.326 258.858 608.326 258.928 608.326H260.258V611H261.532V603.468ZM260.258 604.574V607.22H258.76C257.878 607.22 257.08 606.898 257.08 605.876C257.08 604.966 257.71 604.574 258.648 604.574H260.258Z" fill="white"/>
</g>
<defs>
<filter id="filter0_i" x="0" y="0" width="502" height="502" filterUnits="userSpaceOnUse" color-interpolation-filters="sRGB">
<feFlood flood-opacity="0" result="BackgroundImageFix"/>
<feBlend mode="normal" in="SourceGraphic" in2="BackgroundImageFix" result="shape"/>
<feColorMatrix in="SourceAlpha" type="matrix" values="0 0 0 0 0 0 0 0 0 0 0 0 0 0 0 0 0 0 127 0" result="hardAlpha"/>
<feOffset dx="12" dy="12"/>
<feGaussianBlur stdDeviation="20"/>
<feComposite in2="hardAlpha" operator="arithmetic" k2="-1" k3="1"/>
<feColorMatrix type="matrix" values="0 0 0 0 1 0 0 0 0 1 0 0 0 0 1 0 0 0 0.56 0"/>
<feBlend mode="normal" in2="shape" result="effect1_innerShadow"/>
</filter>
<filter id="filter1_i" x="884" y="0" width="348" height="348" filterUnits="userSpaceOnUse" color-interpolation-filters="sRGB">
<feFlood flood-opacity="0" result="BackgroundImageFix"/>
<feBlend mode="normal" in="SourceGraphic" in2="BackgroundImageFix" result="shape"/>
<feColorMatrix in="SourceAlpha" type="matrix" values="0 0 0 0 0 0 0 0 0 0 0 0 0 0 0 0 0 0 127 0" result="hardAlpha"/>
<feOffset dx="8" dy="8"/>
<feGaussianBlur stdDeviation="16"/>
<feComposite in2="hardAlpha" operator="arithmetic" k2="-1" k3="1"/>
<feColorMatrix type="matrix" values="0 0 0 0 1 0 0 0 0 1 0 0 0 0 1 0 0 0 0.56 0"/>
<feBlend mode="normal" in2="shape" result="effect1_innerShadow"/>
</filter>
<filter id="filter2_i" x="507" y="170" width="398" height="398" filterUnits="userSpaceOnUse" color-interpolation-filters="sRGB">
<feFlood flood-opacity="0" result="BackgroundImageFix"/>
<feBlend mode="normal" in="SourceGraphic" in2="BackgroundImageFix" result="shape"/>
<feColorMatrix in="SourceAlpha" type="matrix" values="0 0 0 0 0 0 0 0 0 0 0 0 0 0 0 0 0 0 127 0" result="hardAlpha"/>
<feOffset dx="8" dy="8"/>
<feGaussianBlur stdDeviation="16"/>
<feComposite in2="hardAlpha" operator="arithmetic" k2="-1" k3="1"/>
<feColorMatrix type="matrix" values="0 0 0 0 1 0 0 0 0 1 0 0 0 0 1 0 0 0 0.56 0"/>
<feBlend mode="normal" in2="shape" result="effect1_innerShadow"/>
</filter>
<filter id="filter3_i" x="904" y="370" width="268" height="268" filterUnits="userSpaceOnUse" color-interpolation-filters="sRGB">
<feFlood flood-opacity="0" result="BackgroundImageFix"/>
<feBlend mode="normal" in="SourceGraphic" in2="BackgroundImageFix" result="shape"/>
<feColorMatrix in="SourceAlpha" type="matrix" values="0 0 0 0 0 0 0 0 0 0 0 0 0 0 0 0 0 0 127 0" result="hardAlpha"/>
<feOffset dx="8" dy="8"/>
<feGaussianBlur stdDeviation="12"/>
<feComposite in2="hardAlpha" operator="arithmetic" k2="-1" k3="1"/>
<feColorMatrix type="matrix" values="0 0 0 0 1 0 0 0 0 1 0 0 0 0 1 0 0 0 0.56 0"/>
<feBlend mode="normal" in2="shape" result="effect1_innerShadow"/>
</filter>
<filter id="filter4_i" x="331" y="470" width="226" height="226" filterUnits="userSpaceOnUse" color-interpolation-filters="sRGB">
<feFlood flood-opacity="0" result="BackgroundImageFix"/>
<feBlend mode="normal" in="SourceGraphic" in2="BackgroundImageFix" result="shape"/>
<feColorMatrix in="SourceAlpha" type="matrix" values="0 0 0 0 0 0 0 0 0 0 0 0 0 0 0 0 0 0 127 0" result="hardAlpha"/>
<feOffset dx="6" dy="6"/>
<feGaussianBlur stdDeviation="10"/>
<feComposite in2="hardAlpha" operator="arithmetic" k2="-1" k3="1"/>
<feColorMatrix type="matrix" values="0 0 0 0 1 0 0 0 0 1 0 0 0 0 1 0 0 0 0.56 0"/>
<feBlend mode="normal" in2="shape" result="effect1_innerShadow"/>
</filter>
<filter id="filter5_i" x="564" y="596" width="186" height="186" filterUnits="userSpaceOnUse" color-interpolation-filters="sRGB">
<feFlood flood-opacity="0" result="BackgroundImageFix"/>
<feBlend mode="normal" in="SourceGraphic" in2="BackgroundImageFix" result="shape"/>
<feColorMatrix in="SourceAlpha" type="matrix" values="0 0 0 0 0 0 0 0 0 0 0 0 0 0 0 0 0 0 127 0" result="hardAlpha"/>
<feOffset dx="6" dy="6"/>
<feGaussianBlur stdDeviation="10"/>
<feComposite in2="hardAlpha" operator="arithmetic" k2="-1" k3="1"/>
<feColorMatrix type="matrix" values="0 0 0 0 1 0 0 0 0 1 0 0 0 0 1 0 0 0 0.56 0"/>
<feBlend mode="normal" in2="shape" result="effect1_innerShadow"/>
</filter>
<filter id="filter6_i" x="769" y="564" width="144" height="144" filterUnits="userSpaceOnUse" color-interpolation-filters="sRGB">
<feFlood flood-opacity="0" result="BackgroundImageFix"/>
<feBlend mode="normal" in="SourceGraphic" in2="BackgroundImageFix" result="shape"/>
<feColorMatrix in="SourceAlpha" type="matrix" values="0 0 0 0 0 0 0 0 0 0 0 0 0 0 0 0 0 0 127 0" result="hardAlpha"/>
<feOffset dx="4" dy="4"/>
<feGaussianBlur stdDeviation="8"/>
<feComposite in2="hardAlpha" operator="arithmetic" k2="-1" k3="1"/>
<feColorMatrix type="matrix" values="0 0 0 0 1 0 0 0 0 1 0 0 0 0 1 0 0 0 0.56 0"/>
<feBlend mode="normal" in2="shape" result="effect1_innerShadow"/>
</filter>
<filter id="filter7_i" x="159" y="517" width="144" height="144" filterUnits="userSpaceOnUse" color-interpolation-filters="sRGB">
<feFlood flood-opacity="0" result="BackgroundImageFix"/>
<feBlend mode="normal" in="SourceGraphic" in2="BackgroundImageFix" result="shape"/>
<feColorMatrix in="SourceAlpha" type="matrix" values="0 0 0 0 0 0 0 0 0 0 0 0 0 0 0 0 0 0 127 0" result="hardAlpha"/>
<feOffset dx="4" dy="4"/>
<feGaussianBlur stdDeviation="8"/>
<feComposite in2="hardAlpha" operator="arithmetic" k2="-1" k3="1"/>
<feColorMatrix type="matrix" values="0 0 0 0 1 0 0 0 0 1 0 0 0 0 1 0 0 0 0.56 0"/>
<feBlend mode="normal" in2="shape" result="effect1_innerShadow"/>
</filter>
<radialGradient id="paint0_radial" cx="0" cy="0" r="1" gradientUnits="userSpaceOnUse" gradientTransform="translate(490 490) rotate(-135) scale(692.965)">
<stop stop-color="#00F5D8"/>
<stop offset="0.25" stop-color="#0ECDF2"/>
<stop offset="0.505208" stop-color="#0094FF"/>
<stop offset="0.744792" stop-color="#5236FF"/>
<stop offset="1" stop-color="#CC00FF"/>
</radialGradient>
<radialGradient id="paint1_radial" cx="0" cy="0" r="1" gradientUnits="userSpaceOnUse" gradientTransform="translate(1224 340) rotate(-135) scale(480.833)">
<stop offset="0.0364583" stop-color="#FF7B01"/>
<stop offset="0.546975" stop-color="#FFE600"/>
<stop offset="0.973958" stop-color="#FF6E1D"/>
</radialGradient>
<radialGradient id="paint2_radial" cx="0" cy="0" r="1" gradientUnits="userSpaceOnUse" gradientTransform="translate(897 560) rotate(-135) scale(551.543)">
<stop stop-color="#FBFF32"/>
<stop offset="0.540112" stop-color="#FF4264"/>
<stop offset="1" stop-color="#FF730E"/>
</radialGradient>
<radialGradient id="paint3_radial" cx="0" cy="0" r="1" gradientUnits="userSpaceOnUse" gradientTransform="translate(1164 630) rotate(-135) scale(367.696)">
<stop offset="0.070931" stop-color="#D8FF3C"/>
<stop offset="0.540112" stop-color="#00FFC2"/>
<stop offset="0.917109" stop-color="#00D1FF"/>
</radialGradient>
<radialGradient id="paint4_radial" cx="0" cy="0" r="1" gradientUnits="userSpaceOnUse" gradientTransform="translate(551 690) rotate(-135) scale(311.127)">
<stop stop-color="#00F0FF"/>
<stop offset="0.515625" stop-color="#0500FF"/>
<stop offset="1" stop-color="#00F5D8"/>
</radialGradient>
<radialGradient id="paint5_radial" cx="0" cy="0" r="1" gradientUnits="userSpaceOnUse" gradientTransform="translate(744 776) rotate(-135) scale(254.558)">
<stop stop-color="#F90A60"/>
<stop offset="0.545482" stop-color="#F73DCE"/>
<stop offset="1" stop-color="#B5002B"/>
</radialGradient>
<radialGradient id="paint6_radial" cx="0" cy="0" r="1" gradientUnits="userSpaceOnUse" gradientTransform="translate(909 704) rotate(-135) scale(197.99)">
<stop offset="0.0841928" stop-color="#FBFF41"/>
<stop offset="0.552083" stop-color="#FF248D"/>
<stop offset="1" stop-color="#5E11C0"/>
</radialGradient>
<radialGradient id="paint7_radial" cx="0" cy="0" r="1" gradientUnits="userSpaceOnUse" gradientTransform="translate(299 657) rotate(-135) scale(197.99)">
<stop stop-color="#42A4FF"/>
<stop offset="0.540112" stop-color="#A00DFB"/>
<stop offset="1" stop-color="#FC05D4"/>
</radialGradient>
</defs>
</svg>
