<svg width="250" height="50" viewBox="0 0 250 50" fill="none" xmlns="http://www.w3.org/2000/svg">
<path d="M13.6649 17.7157L11.0594 10.4833C10.1557 7.97465 9.70377 6.7203 8.6881 6.00663C7.67244 5.29297 6.33917 5.29297 3.67265 5.29297H0.709961V23.0373H6.99115V12.0501L10.9169 23.0373H16.4129L20.3387 12.0501V23.0373H26.6199V5.29297H23.6572C20.9907 5.29297 19.6574 5.29297 18.6417 6.00663C17.6261 6.7203 17.1742 7.97465 16.2704 10.4833L13.6649 17.7157Z" fill="white"/>
<path d="M43.5006 17.7157L40.8951 10.4833C39.9913 7.97465 39.5394 6.7203 38.5238 6.00663C37.5081 5.29297 36.1748 5.29297 33.5083 5.29297H30.5456V23.0373H36.8268V12.0501L40.7525 23.0373H46.2486L50.1743 12.0501V23.0373H56.4555V5.29297H53.4928C50.8263 5.29297 49.493 5.29297 48.4774 6.00663C47.4617 6.7203 47.0098 7.97465 46.1061 10.4833L43.5006 17.7157Z" fill="white"/>
<path d="M0.709961 26.963H26.6199V32.4591H6.99115C6.99115 32.8965 6.99115 34.3715 7.00567 34.556C7.18748 36.8661 9.02232 38.7009 11.3324 38.8828C11.517 38.8973 11.7357 38.8973 12.1731 38.8973H26.6199V44.7074H18.4543C12.15 44.7074 8.99777 44.7074 6.60217 43.4527C4.62043 42.4148 3.00255 40.7969 1.96463 38.8152C0.709961 36.4196 0.709961 33.2674 0.709961 26.963Z" fill="white"/>
<path fill-rule="evenodd" clip-rule="evenodd" d="M50.9595 35.8352C50.9595 32.6161 47.5048 30.8888 43.5006 30.8888C39.4963 30.8888 36.0417 32.6161 36.0417 35.8352C36.0417 39.0543 39.4963 40.7816 43.5006 40.7816C47.5048 40.7816 50.9595 39.0543 50.9595 35.8352ZM43.5006 45.8066C51.7446 45.8066 57.2407 41.5668 57.2407 35.8352C57.2407 30.1036 51.7446 25.8638 43.5006 25.8638C35.2565 25.8638 29.7605 30.1036 29.7605 35.8352C29.7605 41.5668 35.2565 45.8066 43.5006 45.8066Z" fill="white"/>
<path fill-rule="evenodd" clip-rule="evenodd" d="M76.3642 44.7074L76.3642 5.29297L77.4785 5.29297L77.4785 44.7074L76.3642 44.7074Z" fill="white"/>
<path d="M101.928 19.6859C104.909 19.6859 107.378 17.8693 107.89 15.2142L105.352 14.9114C104.956 16.402 103.558 17.4267 101.951 17.4267C99.8552 17.4267 98.2947 15.7266 98.2947 13.3509C98.2947 10.952 99.8785 9.27513 101.951 9.27513C103.558 9.27513 104.979 10.2999 105.352 11.7905L107.844 11.4877C107.471 8.8559 104.956 6.99268 101.928 6.99268C98.2947 6.99268 95.6629 9.69435 95.6629 13.3975C95.6629 17.0541 98.318 19.6859 101.928 19.6859Z" fill="white"/>
<path d="M113.837 19.5927C115.63 19.5927 116.957 18.9406 117.773 17.6596H117.982V19.2667H120.614V11.4178C120.614 8.71616 118.588 6.99268 115.35 6.99268C112.206 6.99268 110.18 8.64629 110.18 11.1849H112.788C112.765 9.88068 113.767 9.08881 115.327 9.08881C117.004 9.08881 117.982 9.95055 117.982 11.348V11.8138L115.048 12.1398C111.507 12.5358 109.621 14.0264 109.621 16.1924C109.621 18.2652 111.298 19.5927 113.837 19.5927ZM114.489 17.6596C113.068 17.6596 112.206 17.0541 112.206 16.0526C112.206 15.0278 113.138 14.236 115.094 14.0264L117.982 13.7003V14.6319C117.982 16.402 116.538 17.6596 114.489 17.6596Z" fill="white"/>
<path d="M122.233 19.2667C124.958 19.2667 126.495 18.009 126.845 15.4704L127.66 9.69435H131.34V19.2667H133.972V7.43519H125.354L124.562 13.9332C124.236 16.2622 123.887 17.1706 122.233 17.1706V19.2667Z" fill="white"/>
<path d="M143.008 19.6859C146.805 19.6859 149.46 17.124 149.46 13.3509C149.46 9.60119 146.805 6.99268 143.008 6.99268C139.189 6.99268 136.557 9.60119 136.557 13.3509C136.557 17.124 139.212 19.6859 143.008 19.6859ZM143.008 17.3802C140.796 17.3802 139.189 15.7033 139.189 13.3509C139.189 11.0219 140.796 9.29842 143.008 9.29842C145.221 9.29842 146.828 11.0219 146.828 13.3509C146.828 15.7033 145.221 17.3802 143.008 17.3802Z" fill="white"/>
<path d="M152.014 19.2667H154.669V14.4223H160.561V19.2667H163.193V7.43519H160.561V12.1631H154.669V7.43519H152.014V19.2667Z" fill="white"/>
<path d="M102.091 42.9762C105.887 42.9762 108.542 40.4143 108.542 36.6413C108.542 32.8915 105.887 30.283 102.091 30.283C98.2715 30.283 95.6396 32.8915 95.6396 36.6413C95.6396 40.4143 98.2947 42.9762 102.091 42.9762ZM102.091 40.6705C99.8785 40.6705 98.2715 38.9936 98.2715 36.6413C98.2715 34.3122 99.8785 32.5888 102.091 32.5888C104.304 32.5888 105.911 34.3122 105.911 36.6413C105.911 38.9936 104.304 40.6705 102.091 40.6705Z" fill="white"/>
<path d="M116.896 43.0694C120.412 43.0694 122.881 40.6472 122.881 37.1769C122.881 33.7533 120.715 31.2379 117.338 31.2379C115.684 31.2379 114.473 31.8202 113.705 32.9847H113.472C113.658 29.5843 114.66 28.5129 117.874 28.4664C120.855 28.3965 122.276 27.3484 122.276 25.0893H119.993C119.993 25.9277 119.294 26.2305 117.455 26.3004C112.261 26.5333 110.957 28.6294 110.863 36.8043C110.863 40.554 113.309 43.0694 116.896 43.0694ZM116.872 40.7637C114.893 40.7637 113.495 39.2265 113.495 37.1071C113.495 34.9644 114.916 33.4971 116.872 33.4971C118.852 33.4971 120.249 34.9877 120.249 37.1071C120.249 39.2498 118.852 40.7637 116.872 40.7637Z" fill="white"/>
<path d="M132.342 30.283C130.572 30.283 129.174 31.005 128.336 32.3326H128.103V30.7255H125.448V47.9138H128.103V40.9966H128.336C129.174 42.2775 130.618 42.9762 132.365 42.9762C135.696 42.9762 138.258 40.2979 138.258 36.6413C138.258 32.9381 135.672 30.283 132.342 30.283ZM131.806 32.5888C133.972 32.5888 135.603 34.3588 135.603 36.6413C135.603 38.8771 133.996 40.6705 131.806 40.6705C129.594 40.6705 127.987 38.8771 127.987 36.6413C127.987 34.3588 129.594 32.5888 131.806 32.5888Z" fill="white"/>
<path d="M144.223 42.8831C146.016 42.8831 147.344 42.231 148.159 40.95H148.369V42.557H151.001V34.7082C151.001 32.0065 148.974 30.283 145.737 30.283C142.593 30.283 140.567 31.9366 140.567 34.4753H143.175C143.152 33.171 144.153 32.3791 145.714 32.3791C147.391 32.3791 148.369 33.2409 148.369 34.6383V35.1041L145.434 35.4302C141.894 35.8261 140.008 37.3167 140.008 39.4827C140.008 41.5555 141.684 42.8831 144.223 42.8831ZM144.875 40.95C143.455 40.95 142.593 40.3444 142.593 39.343C142.593 38.3182 143.524 37.5263 145.481 37.3167L148.369 36.9906V37.9222C148.369 39.6923 146.925 40.95 144.875 40.95Z" fill="white"/>
<path d="M158.862 42.9762C161.773 42.9762 163.869 41.4624 163.869 39.2731C163.869 37.8524 163.007 36.8043 161.633 36.5015V36.2686C162.844 35.9193 163.543 35.0808 163.543 33.8464C163.543 31.7503 161.47 30.283 158.722 30.283C155.717 30.283 153.598 31.9832 153.598 34.4287H156.067C156.067 33.2409 157.092 32.4257 158.652 32.4257C160.026 32.4257 161.028 33.1011 161.028 34.056C161.028 34.8945 160.236 35.4768 159.118 35.4768H157.278V37.4564H159.095C160.376 37.4564 161.237 37.9921 161.237 38.9936C161.237 40.0882 160.259 40.8335 158.792 40.8335C157.115 40.8335 155.927 39.832 155.927 38.4113H153.365C153.365 41.0664 155.648 42.9762 158.862 42.9762Z" fill="white"/>
<path d="M172.121 42.9762C175.918 42.9762 178.573 40.4143 178.573 36.6413C178.573 32.8915 175.918 30.283 172.121 30.283C168.302 30.283 165.67 32.8915 165.67 36.6413C165.67 40.4143 168.325 42.9762 172.121 42.9762ZM172.121 40.6705C169.909 40.6705 168.302 38.9936 168.302 36.6413C168.302 34.3122 169.909 32.5888 172.121 32.5888C174.334 32.5888 175.941 34.3122 175.941 36.6413C175.941 38.9936 174.334 40.6705 172.121 40.6705Z" fill="white"/>
<path d="M181.126 42.557H187.485C189.884 42.557 191.561 41.1596 191.561 39.1333C191.561 37.7126 190.699 36.7577 189.395 36.4782V36.2453C190.396 35.896 191.165 34.8945 191.165 33.7067C191.165 31.9599 189.558 30.7255 187.322 30.7255H181.126V42.557ZM183.688 35.4302V32.7052H186.902C187.904 32.7052 188.626 33.334 188.626 34.0793C188.626 34.8246 187.904 35.4302 186.902 35.4302H183.688ZM183.688 40.5773V37.3866H186.902C188.044 37.3866 188.882 38.0154 188.882 38.9237C188.882 39.8553 188.044 40.5773 186.902 40.5773H183.688Z" fill="white"/>
<path d="M197.468 42.8831C199.261 42.8831 200.589 42.231 201.404 40.95H201.614V42.557H204.245V34.7082C204.245 32.0065 202.219 30.283 198.982 30.283C195.838 30.283 193.811 31.9366 193.811 34.4753H196.42C196.397 33.171 197.398 32.3791 198.958 32.3791C200.635 32.3791 201.614 33.2409 201.614 34.6383V35.1041L198.679 35.4302C195.139 35.8261 193.252 37.3167 193.252 39.4827C193.252 41.5555 194.929 42.8831 197.468 42.8831ZM198.12 40.95C196.699 40.95 195.838 40.3444 195.838 39.343C195.838 38.3182 196.769 37.5263 198.726 37.3167L201.614 36.9906V37.9222C201.614 39.6923 200.17 40.95 198.12 40.95Z" fill="white"/>
<path d="M207.169 42.557H209.824V37.7126H215.716V42.557H218.348V30.7255H215.716V35.4535H209.824V30.7255H207.169V42.557Z" fill="white"/>
<path d="M221.475 42.557H224.503L229.93 34.3821H230.162V42.557H232.818V30.7255H229.813L224.363 38.947H224.13V30.7255H221.475V42.557Z" fill="white"/>
<path d="M235.335 42.557H238.456L241.554 38.5278H243.207V42.557H245.886V30.7255H240.226C237.361 30.7255 235.405 32.3559 235.405 34.6383C235.405 36.5015 236.639 38.0387 238.805 38.4113L235.335 42.557ZM240.412 36.3851C238.992 36.3851 238.037 35.6864 238.037 34.6383C238.037 33.5902 238.992 32.8915 240.412 32.8915H243.254V36.3851H240.412Z" fill="white"/>
</svg>
