<svg width="72" height="72" viewBox="0 0 72 72" fill="none" xmlns="http://www.w3.org/2000/svg">
<rect width="72" height="72" rx="15.9984" fill="white"/>
<path d="M23.2653 30.1647L20.8855 23.5589C20.06 21.2675 19.6473 20.1218 18.7196 19.47C17.7919 18.8181 16.5742 18.8181 14.1387 18.8181H11.4326V35.0253H17.1697V24.9899L20.7553 35.0253H25.7753L29.3609 24.9899V35.0253H35.098V18.8181H32.392C29.9564 18.8181 28.7387 18.8181 27.811 19.47C26.8833 20.1218 26.4706 21.2675 25.6451 23.5589L23.2653 30.1647Z" fill="#FA7A0A"/>
<path d="M23.2653 30.1647L20.8855 23.5589C20.06 21.2675 19.6473 20.1218 18.7196 19.47C17.7919 18.8181 16.5742 18.8181 14.1387 18.8181H11.4326V35.0253H17.1697V24.9899L20.7553 35.0253H25.7753L29.3609 24.9899V35.0253H35.098V18.8181H32.392C29.9564 18.8181 28.7387 18.8181 27.811 19.47C26.8833 20.1218 26.4706 21.2675 25.6451 23.5589L23.2653 30.1647Z" fill="#0A3FFA"/>
<path d="M23.2653 30.1647L20.8855 23.5589C20.06 21.2675 19.6473 20.1218 18.7196 19.47C17.7919 18.8181 16.5742 18.8181 14.1387 18.8181H11.4326V35.0253H17.1697V24.9899L20.7553 35.0253H25.7753L29.3609 24.9899V35.0253H35.098V18.8181H32.392C29.9564 18.8181 28.7387 18.8181 27.811 19.47C26.8833 20.1218 26.4706 21.2675 25.6451 23.5589L23.2653 30.1647Z" fill="url(#paint0_radial)" fill-opacity="0.7"/>
<path d="M23.2653 30.1647L20.8855 23.5589C20.06 21.2675 19.6473 20.1218 18.7196 19.47C17.7919 18.8181 16.5742 18.8181 14.1387 18.8181H11.4326V35.0253H17.1697V24.9899L20.7553 35.0253H25.7753L29.3609 24.9899V35.0253H35.098V18.8181H32.392C29.9564 18.8181 28.7387 18.8181 27.811 19.47C26.8833 20.1218 26.4706 21.2675 25.6451 23.5589L23.2653 30.1647Z" fill="url(#paint1_radial)" fill-opacity="0.7"/>
<path d="M23.2653 30.1647L20.8855 23.5589C20.06 21.2675 19.6473 20.1218 18.7196 19.47C17.7919 18.8181 16.5742 18.8181 14.1387 18.8181H11.4326V35.0253H17.1697V24.9899L20.7553 35.0253H25.7753L29.3609 24.9899V35.0253H35.098V18.8181H32.392C29.9564 18.8181 28.7387 18.8181 27.811 19.47C26.8833 20.1218 26.4706 21.2675 25.6451 23.5589L23.2653 30.1647Z" fill="url(#paint2_radial)" fill-opacity="0.7"/>
<path d="M50.5163 30.1647L48.1366 23.5589C47.3111 21.2675 46.8983 20.1218 45.9707 19.47C45.043 18.8181 43.8252 18.8181 41.3897 18.8181H38.6837V35.0253H44.4207V24.9899L48.0064 35.0253H53.0263L56.612 24.9899V35.0253H62.349V18.8181H59.643C57.2075 18.8181 55.9897 18.8181 55.062 19.47C54.1343 20.1218 53.7216 21.2675 52.8961 23.5589L50.5163 30.1647Z" fill="#FA7A0A"/>
<path d="M50.5163 30.1647L48.1366 23.5589C47.3111 21.2675 46.8983 20.1218 45.9707 19.47C45.043 18.8181 43.8252 18.8181 41.3897 18.8181H38.6837V35.0253H44.4207V24.9899L48.0064 35.0253H53.0263L56.612 24.9899V35.0253H62.349V18.8181H59.643C57.2075 18.8181 55.9897 18.8181 55.062 19.47C54.1343 20.1218 53.7216 21.2675 52.8961 23.5589L50.5163 30.1647Z" fill="#0A3FFA"/>
<path d="M50.5163 30.1647L48.1366 23.5589C47.3111 21.2675 46.8983 20.1218 45.9707 19.47C45.043 18.8181 43.8252 18.8181 41.3897 18.8181H38.6837V35.0253H44.4207V24.9899L48.0064 35.0253H53.0263L56.612 24.9899V35.0253H62.349V18.8181H59.643C57.2075 18.8181 55.9897 18.8181 55.062 19.47C54.1343 20.1218 53.7216 21.2675 52.8961 23.5589L50.5163 30.1647Z" fill="url(#paint3_radial)" fill-opacity="0.7"/>
<path d="M50.5163 30.1647L48.1366 23.5589C47.3111 21.2675 46.8983 20.1218 45.9707 19.47C45.043 18.8181 43.8252 18.8181 41.3897 18.8181H38.6837V35.0253H44.4207V24.9899L48.0064 35.0253H53.0263L56.612 24.9899V35.0253H62.349V18.8181H59.643C57.2075 18.8181 55.9897 18.8181 55.062 19.47C54.1343 20.1218 53.7216 21.2675 52.8961 23.5589L50.5163 30.1647Z" fill="url(#paint4_radial)" fill-opacity="0.7"/>
<path d="M50.5163 30.1647L48.1366 23.5589C47.3111 21.2675 46.8983 20.1218 45.9707 19.47C45.043 18.8181 43.8252 18.8181 41.3897 18.8181H38.6837V35.0253H44.4207V24.9899L48.0064 35.0253H53.0263L56.612 24.9899V35.0253H62.349V18.8181H59.643C57.2075 18.8181 55.9897 18.8181 55.062 19.47C54.1343 20.1218 53.7216 21.2675 52.8961 23.5589L50.5163 30.1647Z" fill="url(#paint5_radial)" fill-opacity="0.7"/>
<path d="M11.4326 38.6109H35.098V43.6309H17.1697C17.1697 44.0304 17.1697 45.3776 17.1829 45.5461C17.349 47.6561 19.0249 49.332 21.1349 49.4981C21.3034 49.5113 21.5032 49.5113 21.9028 49.5113H35.098V54.8181H27.6398C21.8816 54.8181 19.0025 54.8181 16.8144 53.6721C15.0043 52.7241 13.5266 51.2464 12.5786 49.4363C11.4326 47.2483 11.4326 44.3692 11.4326 38.6109Z" fill="#FA7A0A"/>
<path d="M11.4326 38.6109H35.098V43.6309H17.1697C17.1697 44.0304 17.1697 45.3776 17.1829 45.5461C17.349 47.6561 19.0249 49.332 21.1349 49.4981C21.3034 49.5113 21.5032 49.5113 21.9028 49.5113H35.098V54.8181H27.6398C21.8816 54.8181 19.0025 54.8181 16.8144 53.6721C15.0043 52.7241 13.5266 51.2464 12.5786 49.4363C11.4326 47.2483 11.4326 44.3692 11.4326 38.6109Z" fill="#0A3FFA"/>
<path d="M11.4326 38.6109H35.098V43.6309H17.1697C17.1697 44.0304 17.1697 45.3776 17.1829 45.5461C17.349 47.6561 19.0249 49.332 21.1349 49.4981C21.3034 49.5113 21.5032 49.5113 21.9028 49.5113H35.098V54.8181H27.6398C21.8816 54.8181 19.0025 54.8181 16.8144 53.6721C15.0043 52.7241 13.5266 51.2464 12.5786 49.4363C11.4326 47.2483 11.4326 44.3692 11.4326 38.6109Z" fill="url(#paint6_radial)" fill-opacity="0.7"/>
<path d="M11.4326 38.6109H35.098V43.6309H17.1697C17.1697 44.0304 17.1697 45.3776 17.1829 45.5461C17.349 47.6561 19.0249 49.332 21.1349 49.4981C21.3034 49.5113 21.5032 49.5113 21.9028 49.5113H35.098V54.8181H27.6398C21.8816 54.8181 19.0025 54.8181 16.8144 53.6721C15.0043 52.7241 13.5266 51.2464 12.5786 49.4363C11.4326 47.2483 11.4326 44.3692 11.4326 38.6109Z" fill="url(#paint7_radial)" fill-opacity="0.7"/>
<path d="M11.4326 38.6109H35.098V43.6309H17.1697C17.1697 44.0304 17.1697 45.3776 17.1829 45.5461C17.349 47.6561 19.0249 49.332 21.1349 49.4981C21.3034 49.5113 21.5032 49.5113 21.9028 49.5113H35.098V54.8181H27.6398C21.8816 54.8181 19.0025 54.8181 16.8144 53.6721C15.0043 52.7241 13.5266 51.2464 12.5786 49.4363C11.4326 47.2483 11.4326 44.3692 11.4326 38.6109Z" fill="url(#paint8_radial)" fill-opacity="0.7"/>
<path fill-rule="evenodd" clip-rule="evenodd" d="M57.3291 46.7145C57.3291 43.7743 54.1737 42.1966 50.5163 42.1966C46.859 42.1966 43.7036 43.7743 43.7036 46.7145C43.7036 49.6548 46.859 51.2325 50.5163 51.2325C54.1737 51.2325 57.3291 49.6548 57.3291 46.7145ZM50.5163 55.8221C58.0462 55.8221 63.0662 51.9496 63.0662 46.7145C63.0662 41.4795 58.0462 37.607 50.5163 37.607C42.9865 37.607 37.9665 41.4795 37.9665 46.7145C37.9665 51.9496 42.9865 55.8221 50.5163 55.8221Z" fill="#FA7A0A"/>
<path fill-rule="evenodd" clip-rule="evenodd" d="M57.3291 46.7145C57.3291 43.7743 54.1737 42.1966 50.5163 42.1966C46.859 42.1966 43.7036 43.7743 43.7036 46.7145C43.7036 49.6548 46.859 51.2325 50.5163 51.2325C54.1737 51.2325 57.3291 49.6548 57.3291 46.7145ZM50.5163 55.8221C58.0462 55.8221 63.0662 51.9496 63.0662 46.7145C63.0662 41.4795 58.0462 37.607 50.5163 37.607C42.9865 37.607 37.9665 41.4795 37.9665 46.7145C37.9665 51.9496 42.9865 55.8221 50.5163 55.8221Z" fill="#0A3FFA"/>
<path fill-rule="evenodd" clip-rule="evenodd" d="M57.3291 46.7145C57.3291 43.7743 54.1737 42.1966 50.5163 42.1966C46.859 42.1966 43.7036 43.7743 43.7036 46.7145C43.7036 49.6548 46.859 51.2325 50.5163 51.2325C54.1737 51.2325 57.3291 49.6548 57.3291 46.7145ZM50.5163 55.8221C58.0462 55.8221 63.0662 51.9496 63.0662 46.7145C63.0662 41.4795 58.0462 37.607 50.5163 37.607C42.9865 37.607 37.9665 41.4795 37.9665 46.7145C37.9665 51.9496 42.9865 55.8221 50.5163 55.8221Z" fill="url(#paint9_radial)" fill-opacity="0.7"/>
<path fill-rule="evenodd" clip-rule="evenodd" d="M57.3291 46.7145C57.3291 43.7743 54.1737 42.1966 50.5163 42.1966C46.859 42.1966 43.7036 43.7743 43.7036 46.7145C43.7036 49.6548 46.859 51.2325 50.5163 51.2325C54.1737 51.2325 57.3291 49.6548 57.3291 46.7145ZM50.5163 55.8221C58.0462 55.8221 63.0662 51.9496 63.0662 46.7145C63.0662 41.4795 58.0462 37.607 50.5163 37.607C42.9865 37.607 37.9665 41.4795 37.9665 46.7145C37.9665 51.9496 42.9865 55.8221 50.5163 55.8221Z" fill="url(#paint10_radial)" fill-opacity="0.7"/>
<path fill-rule="evenodd" clip-rule="evenodd" d="M57.3291 46.7145C57.3291 43.7743 54.1737 42.1966 50.5163 42.1966C46.859 42.1966 43.7036 43.7743 43.7036 46.7145C43.7036 49.6548 46.859 51.2325 50.5163 51.2325C54.1737 51.2325 57.3291 49.6548 57.3291 46.7145ZM50.5163 55.8221C58.0462 55.8221 63.0662 51.9496 63.0662 46.7145C63.0662 41.4795 58.0462 37.607 50.5163 37.607C42.9865 37.607 37.9665 41.4795 37.9665 46.7145C37.9665 51.9496 42.9865 55.8221 50.5163 55.8221Z" fill="url(#paint11_radial)" fill-opacity="0.7"/>
<defs>
<radialGradient id="paint0_radial" cx="0" cy="0" r="1" gradientUnits="userSpaceOnUse" gradientTransform="translate(56.2735 61.7427) rotate(-118.146) scale(48.6813 38.5066)">
<stop offset="0.189732" stop-color="#BD08FC"/>
<stop offset="0.847151" stop-color="#F50AFA" stop-opacity="0"/>
</radialGradient>
<radialGradient id="paint1_radial" cx="0" cy="0" r="1" gradientUnits="userSpaceOnUse" gradientTransform="translate(48.2565 21.0384) rotate(110.557) scale(37.1493 21.6794)">
<stop stop-color="#0AFAEC"/>
<stop offset="1" stop-color="#0AFAEC" stop-opacity="0"/>
</radialGradient>
<radialGradient id="paint2_radial" cx="0" cy="0" r="1" gradientUnits="userSpaceOnUse" gradientTransform="translate(25.5643 63.963) rotate(-67.675) scale(37.2022 23.343)">
<stop stop-color="#08FCA4"/>
<stop offset="1" stop-color="#0AFAEC" stop-opacity="0"/>
</radialGradient>
<radialGradient id="paint3_radial" cx="0" cy="0" r="1" gradientUnits="userSpaceOnUse" gradientTransform="translate(56.2735 61.7427) rotate(-118.146) scale(48.6813 38.5066)">
<stop offset="0.189732" stop-color="#BD08FC"/>
<stop offset="0.847151" stop-color="#F50AFA" stop-opacity="0"/>
</radialGradient>
<radialGradient id="paint4_radial" cx="0" cy="0" r="1" gradientUnits="userSpaceOnUse" gradientTransform="translate(48.2565 21.0384) rotate(110.557) scale(37.1493 21.6794)">
<stop stop-color="#0AFAEC"/>
<stop offset="1" stop-color="#0AFAEC" stop-opacity="0"/>
</radialGradient>
<radialGradient id="paint5_radial" cx="0" cy="0" r="1" gradientUnits="userSpaceOnUse" gradientTransform="translate(25.5643 63.963) rotate(-67.675) scale(37.2022 23.343)">
<stop stop-color="#08FCA4"/>
<stop offset="1" stop-color="#0AFAEC" stop-opacity="0"/>
</radialGradient>
<radialGradient id="paint6_radial" cx="0" cy="0" r="1" gradientUnits="userSpaceOnUse" gradientTransform="translate(56.2735 61.7427) rotate(-118.146) scale(48.6813 38.5066)">
<stop offset="0.189732" stop-color="#BD08FC"/>
<stop offset="0.847151" stop-color="#F50AFA" stop-opacity="0"/>
</radialGradient>
<radialGradient id="paint7_radial" cx="0" cy="0" r="1" gradientUnits="userSpaceOnUse" gradientTransform="translate(48.2565 21.0384) rotate(110.557) scale(37.1493 21.6794)">
<stop stop-color="#0AFAEC"/>
<stop offset="1" stop-color="#0AFAEC" stop-opacity="0"/>
</radialGradient>
<radialGradient id="paint8_radial" cx="0" cy="0" r="1" gradientUnits="userSpaceOnUse" gradientTransform="translate(25.5643 63.963) rotate(-67.675) scale(37.2022 23.343)">
<stop stop-color="#08FCA4"/>
<stop offset="1" stop-color="#0AFAEC" stop-opacity="0"/>
</radialGradient>
<radialGradient id="paint9_radial" cx="0" cy="0" r="1" gradientUnits="userSpaceOnUse" gradientTransform="translate(56.2735 61.7427) rotate(-118.146) scale(48.6813 38.5066)">
<stop offset="0.189732" stop-color="#BD08FC"/>
<stop offset="0.847151" stop-color="#F50AFA" stop-opacity="0"/>
</radialGradient>
<radialGradient id="paint10_radial" cx="0" cy="0" r="1" gradientUnits="userSpaceOnUse" gradientTransform="translate(48.2565 21.0384) rotate(110.557) scale(37.1493 21.6794)">
<stop stop-color="#0AFAEC"/>
<stop offset="1" stop-color="#0AFAEC" stop-opacity="0"/>
</radialGradient>
<radialGradient id="paint11_radial" cx="0" cy="0" r="1" gradientUnits="userSpaceOnUse" gradientTransform="translate(25.5643 63.963) rotate(-67.675) scale(37.2022 23.343)">
<stop stop-color="#08FCA4"/>
<stop offset="1" stop-color="#0AFAEC" stop-opacity="0"/>
</radialGradient>
</defs>
</svg>
