<svg width="56" height="48" viewBox="0 0 56 48" fill="none" xmlns="http://www.w3.org/2000/svg">
<path d="M12.8334 19.5366H11.6406V22.786H12.8334V19.5366Z" fill="white"/>
<path d="M14.8901 19.5366H13.6973V22.786H14.8901V19.5366Z" fill="white"/>
<path d="M16.9467 19.5366H15.7539V22.786H16.9467V19.5366Z" fill="white"/>
<path d="M19.0434 19.5366H17.8506V22.786H19.0434V19.5366Z" fill="white"/>
<path d="M21.1003 19.5366H19.8252V22.786H21.1003V19.5366Z" fill="white"/>
<path d="M23.1569 19.5366H21.8818V22.786H23.1569V19.5366Z" fill="white"/>
<path d="M25.1723 19.5366H23.9795V22.786H25.1723V19.5366Z" fill="white"/>
<path d="M27.2289 19.5366H26.0361V22.786H27.2289V19.5366Z" fill="white"/>
<path d="M29.2856 19.5366H28.0928V22.786H29.2856V19.5366Z" fill="white"/>
<path d="M31.3832 19.5366H30.1904V22.786H31.3832V19.5366Z" fill="white"/>
<path d="M33.4391 19.5366H32.1641V22.786H33.4391V19.5366Z" fill="white"/>
<path d="M35.4958 19.5366H34.2207V22.786H35.4958V19.5366Z" fill="white"/>
<path d="M37.5121 19.5366H36.3193V22.786H37.5121V19.5366Z" fill="white"/>
<path d="M39.5688 19.5366H38.376V22.786H39.5688V19.5366Z" fill="white"/>
<path d="M41.6244 19.5366H40.4316V22.786H41.6244V19.5366Z" fill="white"/>
<path d="M43.7221 19.5366H42.5293V22.786H43.7221V19.5366Z" fill="white"/>
<path d="M12.8334 23.1562H11.6406V24.4313H12.8334V23.1562Z" fill="white"/>
<path d="M14.8901 23.1562H13.6973V24.4313H14.8901V23.1562Z" fill="white"/>
<path d="M16.9467 23.1562H15.7539V24.4313H16.9467V23.1562Z" fill="white"/>
<path d="M19.0434 23.1562H17.8506V24.4313H19.0434V23.1562Z" fill="white"/>
<path d="M19.8252 23.1562H21.1003V24.4724H19.8252V23.1562Z" fill="white"/>
<path d="M21.8818 23.1974L23.1569 23.1562V24.4724H21.8818V23.1974Z" fill="white"/>
<path d="M25.1723 23.1562H23.9795V24.4313H25.1723V23.1562Z" fill="white"/>
<path d="M27.2289 23.1562H26.0361V24.4313H27.2289V23.1562Z" fill="white"/>
<path d="M29.2856 23.1562H28.0928V24.4313H29.2856V23.1562Z" fill="white"/>
<path d="M31.3832 23.1562H30.1904V24.4313H31.3832V23.1562Z" fill="white"/>
<path d="M32.1641 23.1562L33.4391 23.1974V24.4724H32.1641V23.1562Z" fill="white"/>
<path d="M34.2207 23.1974L35.4958 23.1562V24.4724H34.2207V23.1974Z" fill="white"/>
<path d="M37.5121 23.1562H36.3193V24.4313H37.5121V23.1562Z" fill="white"/>
<path d="M39.5688 23.1562H38.376V24.4313H39.5688V23.1562Z" fill="white"/>
<path d="M41.6244 23.1562H40.4316V24.4313H41.6244V23.1562Z" fill="white"/>
<path d="M43.7221 23.1562H42.5293V24.4313H43.7221V23.1562Z" fill="white"/>
<path d="M15.6295 16.9868H14.5605V17.4391H15.6295V16.9868Z" fill="white"/>
<path d="M17.3154 16.9868H16.123V17.4391H17.3154V16.9868Z" fill="white"/>
<path d="M19.0019 16.9868H17.8096V17.4391H19.0019V16.9868Z" fill="white"/>
<path d="M20.5651 16.9868H19.4961V17.4391H20.5651V16.9868Z" fill="white"/>
<path d="M28.874 16.9868H27.6816V17.4391H28.874V16.9868Z" fill="white"/>
<path d="M27.1865 16.9868H25.9941V17.4391H27.1865V16.9868Z" fill="white"/>
<path d="M25.5006 16.9868H24.4316V17.4391H25.5006V16.9868Z" fill="white"/>
<path d="M22.2509 16.9868H21.0586V17.4391H22.2509V16.9868Z" fill="white"/>
<path d="M23.9384 16.9868H22.7461V17.4391H23.9384V16.9868Z" fill="white"/>
<path d="M38.745 16.9868H37.5527V17.4391H38.745V16.9868Z" fill="white"/>
<path d="M37.0585 16.9868H35.8662V17.4391H37.0585V16.9868Z" fill="white"/>
<path d="M35.3727 16.9868H34.3037V17.4391H35.3727V16.9868Z" fill="white"/>
<path d="M33.8095 16.9868H32.6172V17.4391H33.8095V16.9868Z" fill="white"/>
<path d="M32.123 16.9868H30.9307V17.4391H32.123V16.9868Z" fill="white"/>
<path d="M30.4773 16.9868H29.3672V17.4391H30.4773V16.9868Z" fill="white"/>
<path d="M15.6295 15.4229H14.5605V16.3274H15.6295V15.4229Z" fill="white"/>
<path d="M40.3082 16.9868H39.2393V17.4391H40.3082V16.9868Z" fill="white"/>
<path d="M17.3154 15.4229H16.123V16.3274H17.3154V15.4229Z" fill="white"/>
<path d="M19.0019 15.4229H17.8096V16.3274H19.0019V15.4229Z" fill="white"/>
<path d="M20.6062 15.4229H19.4961V16.3274H20.6062V15.4229Z" fill="white"/>
<path d="M22.2509 15.4229H21.0586V16.3274H22.2509V15.4229Z" fill="white"/>
<path d="M23.9384 15.4229H22.7461V16.3274H23.9384V15.4229Z" fill="white"/>
<path d="M25.5006 15.4229H24.4316V16.3274H25.5006V15.4229Z" fill="white"/>
<path d="M27.1865 15.4229H25.9941V16.3274H27.1865V15.4229Z" fill="white"/>
<path d="M35.3727 15.4229H34.3037V16.3274H35.3727V15.4229Z" fill="white"/>
<path d="M33.8095 15.4229H32.6172V16.3274H33.8095V15.4229Z" fill="white"/>
<path d="M32.123 15.4229H30.9307V16.3274H32.123V15.4229Z" fill="white"/>
<path d="M30.4773 15.4229H29.3672V16.3274H30.4773V15.4229Z" fill="white"/>
<path d="M28.874 15.4229H27.6816V16.3274H28.874V15.4229Z" fill="white"/>
<path d="M40.3082 15.4229H39.2393V16.3274H40.3082V15.4229Z" fill="white"/>
<path d="M38.745 15.4229H37.5527V16.3274H38.745V15.4229Z" fill="white"/>
<path d="M37.0585 15.4229H35.8662V16.3274H37.0585V15.4229Z" fill="white"/>
<path d="M15.6295 13.7383H14.5605V14.6428H15.6295V13.7383Z" fill="white"/>
<path d="M17.3154 13.7383H16.123V14.6428H17.3154V13.7383Z" fill="white"/>
<path d="M19.0019 13.7383H17.8096V14.6428H19.0019V13.7383Z" fill="white"/>
<path d="M20.6062 13.7383H19.4961V14.6428H20.6062V13.7383Z" fill="white"/>
<path d="M22.2509 13.7383H21.0586V14.6428H22.2509V13.7383Z" fill="white"/>
<path d="M23.9384 13.7383H22.7461V14.6428H23.9384V13.7383Z" fill="white"/>
<path d="M25.5006 13.7383H24.4316V14.6428H25.5006V13.7383Z" fill="white"/>
<path d="M27.1865 13.7383H25.9941V14.6428H27.1865V13.7383Z" fill="white"/>
<path d="M35.3727 13.7383H34.3037V14.6428H35.3727V13.7383Z" fill="white"/>
<path d="M33.8095 13.7383H32.6172V14.6428H33.8095V13.7383Z" fill="white"/>
<path d="M32.123 13.7383H30.9307V14.6428H32.123V13.7383Z" fill="white"/>
<path d="M30.4773 13.7383H29.3672V14.6428H30.4773V13.7383Z" fill="white"/>
<path d="M28.874 13.7383H27.6816V14.6428H28.874V13.7383Z" fill="white"/>
<path d="M40.3082 13.7383H39.2393V14.6428H40.3082V13.7383Z" fill="white"/>
<path d="M38.745 13.7383H37.5527V14.6428H38.745V13.7383Z" fill="white"/>
<path d="M37.0585 13.7383H35.8662V14.6428H37.0585V13.7383Z" fill="white"/>
<path d="M15.6295 12.1328H14.5605V13.0373H15.6295V12.1328Z" fill="white"/>
<path d="M17.3154 12.1328H16.123V13.0373H17.3154V12.1328Z" fill="white"/>
<path d="M19.0019 12.1328H17.8096V13.0373H19.0019V12.1328Z" fill="white"/>
<path d="M20.6062 12.1328H19.4961V13.0373H20.6062V12.1328Z" fill="white"/>
<path d="M22.2509 12.1328H21.0586V13.0373H22.2509V12.1328Z" fill="white"/>
<path d="M23.9384 12.1328H22.7461V13.0373H23.9384V12.1328Z" fill="white"/>
<path d="M25.5006 12.1328H24.4316V13.0373H25.5006V12.1328Z" fill="white"/>
<path d="M27.1865 12.1328H25.9941V13.0373H27.1865V12.1328Z" fill="white"/>
<path d="M35.3727 12.1328H34.3037V13.0373H35.3727V12.1328Z" fill="white"/>
<path d="M33.8095 12.1328H32.6172V13.0373H33.8095V12.1328Z" fill="white"/>
<path d="M32.123 12.1328H30.9307V13.0373H32.123V12.1328Z" fill="white"/>
<path d="M30.4773 12.1328H29.3672V13.0373H30.4773V12.1328Z" fill="white"/>
<path d="M28.874 12.1328H27.6816V13.0373H28.874V12.1328Z" fill="white"/>
<path d="M40.3082 12.1328H39.2393V13.0373H40.3082V12.1328Z" fill="white"/>
<path d="M38.745 12.1328H37.5527V13.0373H38.745V12.1328Z" fill="white"/>
<path d="M37.0585 12.1328H35.8662V13.0373H37.0585V12.1328Z" fill="white"/>
<path d="M15.6295 10.4883H14.5605V11.3928H15.6295V10.4883Z" fill="white"/>
<path d="M17.3154 10.4883H16.123V11.3928H17.3154V10.4883Z" fill="white"/>
<path d="M19.0019 10.4883H17.8096V11.3928H19.0019V10.4883Z" fill="white"/>
<path d="M20.6062 10.4883H19.4961V11.3928H20.6062V10.4883Z" fill="white"/>
<path d="M22.2509 10.4883H21.0586V11.3928H22.2509V10.4883Z" fill="white"/>
<path d="M23.9384 10.4883H22.7461V11.3928H23.9384V10.4883Z" fill="white"/>
<path d="M25.5006 10.4883H24.4316V11.3928H25.5006V10.4883Z" fill="white"/>
<path d="M27.1865 10.4883H25.9941V11.3928H27.1865V10.4883Z" fill="white"/>
<path d="M35.3727 10.4883H34.3037V11.3928H35.3727V10.4883Z" fill="white"/>
<path d="M33.8095 10.4883H32.6172V11.3928H33.8095V10.4883Z" fill="white"/>
<path d="M32.123 10.4883H30.9307V11.3928H32.123V10.4883Z" fill="white"/>
<path d="M30.4773 10.4883H29.3672V11.3928H30.4773V10.4883Z" fill="white"/>
<path d="M28.874 10.4883H27.6816V11.3928H28.874V10.4883Z" fill="white"/>
<path d="M40.3082 10.4883H39.2393V11.3928H40.3082V10.4883Z" fill="white"/>
<path d="M38.745 10.4883H37.5527V11.3928H38.745V10.4883Z" fill="white"/>
<path d="M37.0585 10.4883H35.8662V11.3928H37.0585V10.4883Z" fill="white"/>
<path d="M15.6295 8.80127H14.5605V9.70578H15.6295V8.80127Z" fill="white"/>
<path d="M17.3154 8.80127H16.123V9.70578H17.3154V8.80127Z" fill="white"/>
<path d="M19.0019 8.80127H17.8096V9.70578H19.0019V8.80127Z" fill="white"/>
<path d="M20.6062 8.80127H19.4961V9.70578H20.6062V8.80127Z" fill="white"/>
<path d="M22.2509 8.80127H21.0586V9.70578H22.2509V8.80127Z" fill="white"/>
<path d="M23.9384 8.80127H22.7461V9.70578H23.9384V8.80127Z" fill="white"/>
<path d="M25.5006 8.80127H24.4316V9.70578H25.5006V8.80127Z" fill="white"/>
<path d="M27.1865 8.80127H25.9941V9.70578H27.1865V8.80127Z" fill="white"/>
<path d="M35.3727 8.80127H34.3037V9.70578H35.3727V8.80127Z" fill="white"/>
<path d="M33.8095 8.80127H32.6172V9.70578H33.8095V8.80127Z" fill="white"/>
<path d="M32.123 8.80127H30.9307V9.70578H32.123V8.80127Z" fill="white"/>
<path d="M30.4773 8.80127H29.3672V9.70578H30.4773V8.80127Z" fill="white"/>
<path d="M28.874 8.80127H27.6816V9.70578H28.874V8.80127Z" fill="white"/>
<path d="M40.3082 8.80127H39.2393V9.70578H40.3082V8.80127Z" fill="white"/>
<path d="M38.745 8.80127H37.5527V9.70578H38.745V8.80127Z" fill="white"/>
<path d="M37.0585 8.80127H35.8662V9.70578H37.0585V8.80127Z" fill="white"/>
<path d="M52.3599 24.8432V17.0283H51.8663V17.3984H50.3033V16.9871H47.8354V17.3984H46.1491V17.0283H45.7789V17.8098L44.5038 18.5912H41.6247V8.30848H42.036V5.84061H41.6247V5.4293H36.2776V5.01799H35.0025V5.4293H28.0925V2.96144H27.1877V1.27506H29.2442V0H26.7763V3.0437H25.9948V5.51156H19.0026V5.10025H17.7275V5.51156H13.2853L12.874 5.92287V8.51413H13.2853V6.82776H13.6555V8.10282H14.0668V6.82776H14.4781V8.10282H14.9717V6.82776H15.2596V8.10282H15.7532V6.82776H16.0411V8.10282H16.5347V6.82776H16.946V8.10282H17.4396V6.82776H17.7275V8.10282H18.2211V6.82776H18.509V8.10282H19.0026V6.82776H19.4139V8.10282H19.9074V6.82776H20.1954V8.10282H20.6889V6.82776H20.9769V8.10282H21.4704V6.82776H21.8817V8.10282H22.3753V6.82776H22.6632V8.10282H23.1568V6.82776H23.4447V8.10282H23.9383V6.82776H24.3496V8.10282H24.8432V6.82776H25.1311V8.10282H25.6247V6.82776H25.9126V8.10282H26.4061V6.82776H26.8175V8.10282H27.311V6.82776H27.599V8.10282H28.0925V6.82776H28.3804V8.10282H28.874V6.82776H29.2442V8.10282H29.7378V6.82776H30.0257V8.10282H30.5193V6.82776H30.8072V8.10282H31.3008V6.82776H31.7121V8.10282H32.2056V6.82776H32.4936V8.10282H32.9871V6.82776H33.3162V8.10282H33.8097V6.82776H34.2211V8.10282H34.7146V6.82776H35.0025V8.10282H35.4961V6.82776H35.784V8.10282H36.2776V6.82776H36.6478V8.10282H37.1414V6.82776H37.4293V8.10282H37.8817V6.82776H38.2108V8.10282H38.7043V6.82776H39.1157V8.10282H39.6092V6.82776H39.8972V8.10282H40.3907V6.82776H40.6786V8.10282H41.1722V6.82776H41.5835V8.39074H41.2133V18.7558H40.3085V17.892H39.2391V18.7558H38.7455V17.892H37.5527V18.7558H37.0591V17.892H35.8663V18.7558H35.3727V17.892H34.3033V18.7558H33.8097V17.892H32.6169V18.7558H32.1234V17.892H30.9306V18.7558H30.437V17.892H29.3676V18.7558H28.874V17.892H27.6812V18.7558H27.1877V17.892H25.9948V18.7558H25.5013V17.892H24.4319V18.7558H23.9383V17.892H22.7455V18.7558H22.2519V17.892H21.0591V18.7558H20.5655V17.892H19.4961V18.7558H19.0026V17.892H17.8098V18.7558H17.3162V17.892H16.1234V18.7558H15.6298V17.892H14.5604V18.7558H13.6555V8.43187H13.2853L13.2442 18.7558H10.6941L9.46015 17.4807V17.0694H9.08997V17.4396H7.4036V17.0694H4.93573V17.4807H3.37274V17.1105H2.87918V24.9254H0V25.7069H54.293V24.9254L52.3599 24.8432ZM14.0668 6.45758H13.5733V5.92287H14.0668V6.45758ZM14.9306 6.45758H14.437V5.92287H14.9306V6.45758ZM15.7532 6.45758H15.2596V5.92287H15.7532V6.45758ZM16.5347 6.45758H16.0411V5.92287H16.5347V6.45758ZM17.3984 6.45758H16.9049V5.92287H17.3984V6.45758ZM18.2211 6.45758H17.7275V5.92287H18.2211V6.45758ZM19.0026 6.45758H18.509V5.92287H19.0026V6.45758ZM19.8663 6.45758H19.3727V5.92287H19.8663V6.45758ZM20.1954 6.45758V5.92287H20.6889V6.45758H20.1954ZM21.4704 6.45758H20.9769V5.92287H21.4704V6.45758ZM22.3342 6.45758H21.8406V5.92287H22.3342V6.45758ZM22.6632 6.45758V5.92287H23.1568V6.45758H22.6632ZM23.4447 6.45758V5.92287H23.9383V6.45758H23.4447ZM24.802 6.45758H24.3085V5.92287H24.802V6.45758ZM25.5835 6.45758H25.09V5.92287H25.5835V6.45758ZM26.4061 6.45758H25.9126V5.92287H26.4061V6.45758ZM27.2699 6.45758H26.7763V5.92287H27.2699V6.45758ZM26.4061 5.14139V4.64781H27.599V5.14139H26.4061ZM28.0514 6.45758H27.5578V5.92287H28.0514V6.45758ZM28.3804 6.45758V5.92287H28.874V6.45758H28.3804ZM29.7378 6.45758H29.2442V5.92287H29.7378V6.45758ZM30.5193 6.45758H30.0257V5.92287H30.5193V6.45758ZM31.3419 6.45758H30.8483V5.92287H31.3419V6.45758ZM32.2056 6.45758H31.7121V5.92287H32.2056V6.45758ZM32.9871 6.45758H32.4936V5.92287H32.9871V6.45758ZM33.8097 6.45758H33.3162V5.92287H33.8097V6.45758ZM34.6735 6.45758H34.1799V5.92287H34.6735V6.45758ZM35.455 6.45758H34.9614V5.92287H35.455V6.45758ZM36.2776 6.45758H35.784V5.92287H36.2776V6.45758ZM37.1414 6.45758H36.6478V5.92287H37.1414V6.45758ZM37.9229 6.45758H37.4293V5.92287H37.9229V6.45758ZM38.7455 6.45758H38.2519V5.92287H38.7455V6.45758ZM39.6092 6.45758H39.1157V5.92287H39.6092V6.45758ZM40.3907 6.45758H39.8972V5.92287H40.3907V6.45758ZM41.2133 6.45758H40.7198V5.92287H41.2133V6.45758ZM8.34961 24.8432V19.126H7.93829V24.8432H7.03342V18.6324H7.4036V18.2622H4.93573V18.6735H5.4293V24.8843H4.56555V19.1671H4.15424V24.8843H3.41388V17.892H9.13109V24.8843L8.34961 24.8432ZM44.4627 24.8432H10.8175V19.126H44.4627V24.8432ZM51.0848 24.8432V19.126H50.5912V24.8432H49.8097V18.6324H50.3033V18.2211H47.8354V18.6324H48.2468V24.8432H47.4653V19.126H46.9306V24.8432H46.1491V17.8509H51.8663V24.8432H51.0848Z" fill="white"/>
<path d="M0.124023 29.9014H3.62017V34.3024H2.75641V30.6417H1.02891V34.3024H0.124023V29.9014Z" fill="white"/>
<path d="M4.56543 34.3435V29.9014H6.00502C6.53972 29.9014 6.90989 29.9425 7.07442 29.9836C7.3212 30.0659 7.52686 30.1893 7.69138 30.4361C7.85591 30.6417 7.93817 30.9296 7.93817 31.2998C7.93817 31.5877 7.89704 31.7934 7.77365 31.999C7.65026 32.2047 7.568 32.3281 7.40347 32.4515C7.23895 32.5749 7.11555 32.616 6.95103 32.6571C6.74537 32.6983 6.41632 32.7394 6.04614 32.7394H5.47031V34.4258H4.56543V34.3435ZM5.42917 30.6829V31.9168H5.92275C6.29293 31.9168 6.49859 31.8757 6.62198 31.8345C6.74538 31.7934 6.82763 31.7111 6.90989 31.6289C6.99216 31.5466 6.99216 31.4232 6.99216 31.2998C6.99216 31.1353 6.95102 31.0119 6.86876 30.8885C6.7865 30.7651 6.66311 30.724 6.49858 30.6829C6.37519 30.6829 6.16953 30.6417 5.84048 30.6417H5.42917V30.6829Z" fill="white"/>
<path d="M12.0925 34.3435H11.1465L10.7352 33.3152H8.96658L8.5964 34.3024H7.65039L9.37789 29.9014H10.3239L12.0925 34.3435ZM10.4884 32.5749L9.87147 30.9296L9.2545 32.5749H10.4884Z" fill="white"/>
<path d="M12.5861 29.9014H14.3547C14.6837 29.9014 14.9717 29.9014 15.1362 29.9425C15.3007 29.9836 15.4652 30.0248 15.5886 30.107C15.712 30.1893 15.8354 30.3127 15.9177 30.4772C15.9999 30.6417 16.0411 30.8062 16.0411 31.0119C16.0411 31.2176 15.9999 31.4232 15.8765 31.5877C15.7531 31.7523 15.6298 31.8757 15.4241 31.9579C15.712 32.0402 15.9177 32.1636 16.0411 32.3692C16.1645 32.5749 16.2467 32.7805 16.2467 33.0273C16.2467 33.233 16.2056 33.4386 16.1233 33.6032C16.0411 33.8088 15.9177 33.9322 15.7531 34.0556C15.5886 34.179 15.383 34.2201 15.1362 34.2613C14.9717 34.2613 14.6426 34.3024 14.0668 34.3024H12.5449V29.9014H12.5861ZM13.4909 30.6417V31.67H14.7249C14.8894 31.67 15.0128 31.5877 15.095 31.5055C15.1773 31.4232 15.2184 31.2998 15.2184 31.1764C15.2184 31.053 15.1773 30.9296 15.095 30.8474C15.0128 30.7651 14.8894 30.724 14.766 30.6829H13.4909V30.6417ZM13.4909 32.4104V33.6032H14.3136C14.6426 33.6032 14.8483 33.6032 14.9305 33.562C15.0539 33.5209 15.1773 33.4798 15.2596 33.3975C15.3418 33.3152 15.383 33.1918 15.383 33.0273C15.383 32.9039 15.3418 32.7805 15.3007 32.6983C15.2596 32.616 15.1362 32.5338 15.0128 32.4926C14.8894 32.4515 14.6426 32.4104 14.2313 32.4104H13.4909Z" fill="white"/>
<path d="M17.0693 29.9014H17.892V32.8217L19.7017 29.9014H20.6066V34.3024H19.784V31.4232L18.0153 34.3024H17.1105V29.9014H17.0693Z" fill="white"/>
<path d="M22.4578 34.3429V30.6823H21.1416V29.9419H24.6377V30.6823H23.3215V34.3429H22.4578Z" fill="white"/>
<path d="M25.2549 34.3435V29.9014H28.5454V30.6417H26.1598V31.6289H28.3808V32.3692H26.1598V33.562H28.6276V34.3024H25.2549V34.3435Z" fill="white"/>
<path d="M29.6552 29.9014H32.74V34.3024H31.8351V30.6417H30.5189V32.5338C30.5189 33.0685 30.5189 33.4386 30.4778 33.6854C30.4367 33.8911 30.3544 34.0556 30.231 34.179C30.1076 34.3024 29.8608 34.3435 29.5729 34.3435C29.4495 34.3435 29.285 34.3435 28.9971 34.3024V33.6032H29.2027C29.4084 33.6032 29.5318 33.562 29.5729 33.5209C29.614 33.4798 29.6552 33.3564 29.6552 33.1507V29.9014Z" fill="white"/>
<path d="M33.6866 29.9014H34.5915V31.67H35.7843C36.3602 31.67 36.7715 31.7934 37.0183 32.0813C37.265 32.3281 37.3884 32.6571 37.3884 33.0273C37.3884 33.3152 37.3062 33.6032 37.1416 33.8088C36.9771 34.0145 36.8126 34.179 36.607 34.2201C36.4013 34.3024 36.1134 34.3435 35.7432 34.3435H33.6455V29.9014H33.6866ZM34.5915 33.6032H35.4553C35.7432 33.6032 35.9488 33.6032 36.0311 33.562C36.1545 33.5209 36.2368 33.4798 36.319 33.3564C36.4013 33.2741 36.4424 33.1507 36.4424 32.9862C36.4424 32.7805 36.3602 32.616 36.2368 32.5338C36.0722 32.4515 35.8255 32.4104 35.4964 32.4104H34.5915V33.6032Z" fill="white"/>
<path d="M40.8024 32.7L41.6661 32.9879C41.5427 33.4815 41.2959 33.8105 41.008 34.0573C40.679 34.3041 40.3088 34.4275 39.8152 34.4275C39.2394 34.4275 38.7458 34.2218 38.3756 33.8105C38.0055 33.3992 37.7998 32.8645 37.7998 32.1653C37.7998 31.4249 38.0055 30.8491 38.3756 30.4378C38.7458 30.0265 39.2394 29.8208 39.8564 29.8208C40.3911 29.8208 40.8435 29.9853 41.1726 30.3144C41.3782 30.52 41.5427 30.7668 41.625 31.137L40.7612 31.3426C40.7201 31.0959 40.5967 30.9313 40.4322 30.8079C40.2677 30.6846 40.062 30.6023 39.8152 30.6023C39.4862 30.6023 39.2394 30.7257 39.0337 30.9725C38.8281 31.2193 38.7458 31.5894 38.7458 32.1241C38.7458 32.7 38.8281 33.0702 39.0337 33.3169C39.2394 33.5637 39.4862 33.6871 39.8152 33.6871C40.062 33.6871 40.2677 33.6049 40.4322 33.4815C40.5967 33.2758 40.7201 33.029 40.8024 32.7Z" fill="white"/>
<path d="M43.2693 34.3429V30.6823H41.9531V29.9419H45.4493V30.6823H44.1331V34.3429H43.2693Z" fill="white"/>
<path d="M46.0255 29.9014H47.7941C48.1232 29.9014 48.4111 29.9014 48.5756 29.9425C48.7402 29.9836 48.9047 30.0248 49.0281 30.107C49.1515 30.1893 49.2749 30.3127 49.3571 30.4772C49.4394 30.6417 49.4805 30.8062 49.4805 31.0119C49.4805 31.2176 49.4394 31.4232 49.316 31.5877C49.1926 31.7523 49.0692 31.8757 48.8636 31.9579C49.1515 32.0402 49.3571 32.1636 49.4805 32.3692C49.6039 32.5749 49.6862 32.7805 49.6862 33.0273C49.6862 33.233 49.645 33.4386 49.5628 33.6032C49.4805 33.8088 49.3571 33.9322 49.1926 34.0556C49.0281 34.179 48.8224 34.2201 48.5756 34.2613C48.4111 34.2613 48.0821 34.3024 47.5062 34.3024H45.9844V29.9014H46.0255ZM46.9304 30.6417V31.67H48.1643C48.3288 31.67 48.4522 31.5877 48.5345 31.5055C48.6168 31.4232 48.6579 31.2998 48.6579 31.1764C48.6579 31.053 48.6168 30.9296 48.5345 30.8474C48.4522 30.7651 48.3289 30.724 48.2055 30.6829H46.9304V30.6417ZM46.9304 32.4104V33.6032H47.753C48.0821 33.6032 48.2877 33.6032 48.37 33.562C48.4934 33.5209 48.6168 33.4798 48.699 33.3975C48.7813 33.3152 48.8224 33.1918 48.8224 33.0273C48.8224 32.9039 48.7813 32.7805 48.7402 32.6983C48.699 32.616 48.5756 32.5338 48.4522 32.4926C48.3288 32.4515 48.0821 32.4104 47.6708 32.4104H46.9304Z" fill="white"/>
<path d="M50.1797 32.1653C50.1797 31.7128 50.2619 31.3426 50.3853 31.0136C50.4676 30.8079 50.6321 30.6023 50.7967 30.3966C50.9612 30.2321 51.1668 30.0676 51.3725 29.9853C51.6604 29.8619 51.9483 29.8208 52.3185 29.8208C52.9766 29.8208 53.4702 30.0265 53.8815 30.4378C54.2517 30.8491 54.4573 31.3838 54.4573 32.1241C54.4573 32.8234 54.2517 33.3992 53.8815 33.8105C53.5113 34.2218 52.9766 34.4275 52.3185 34.4275C51.6604 34.4275 51.1257 34.2218 50.7555 33.8105C50.3442 33.3992 50.1797 32.8645 50.1797 32.1653ZM51.0846 32.1241C51.0846 32.6177 51.208 32.9879 51.4136 33.2758C51.6604 33.5226 51.9483 33.646 52.2774 33.646C52.6475 33.646 52.9355 33.5226 53.1411 33.2758C53.3879 33.029 53.4702 32.6177 53.4702 32.1241C53.4702 31.6306 53.3468 31.2604 53.1411 30.9725C52.9355 30.7257 52.6064 30.6023 52.2774 30.6023C51.9072 30.6023 51.6193 30.7257 51.3725 30.9725C51.208 31.2193 51.0846 31.6306 51.0846 32.1241Z" fill="white"/>
<path d="M5.18262 40.7205V36.2783H6.62221C7.15691 36.2783 7.52708 36.3195 7.6916 36.3606C7.93839 36.4428 8.14405 36.5662 8.30857 36.813C8.47309 37.0187 8.55536 37.3066 8.55536 37.6768C8.55536 37.9647 8.51423 38.1703 8.39084 38.376C8.26744 38.5817 8.18518 38.7051 8.02066 38.8284C7.85614 38.9518 7.73274 38.993 7.56821 39.0341C7.36256 39.0752 7.03351 39.1164 6.66333 39.1164H6.08749V40.7205H5.18262ZM6.08749 37.0598V38.2937H6.58107C6.95125 38.2937 7.1569 38.2526 7.28029 38.2115C7.40369 38.1703 7.48595 38.0881 7.56821 38.0058C7.65048 37.9236 7.65048 37.8002 7.65048 37.6768C7.65048 37.5122 7.60934 37.3889 7.52708 37.2655C7.44482 37.1421 7.32143 37.1009 7.1569 37.0598C7.03351 37.0598 6.82785 37.0187 6.4988 37.0187H6.08749V37.0598Z" fill="white"/>
<path d="M9.13086 38.5403C9.13086 38.0878 9.21312 37.7176 9.33651 37.3886C9.41878 37.1829 9.5833 36.9773 9.74783 36.7716C9.91235 36.6071 10.118 36.4426 10.3237 36.3603C10.6116 36.2369 10.8995 36.1958 11.2697 36.1958C11.9278 36.1958 12.4213 36.4015 12.8327 36.8128C13.2028 37.2241 13.4085 37.7588 13.4085 38.4991C13.4085 39.1984 13.2028 39.7742 12.8327 40.1855C12.4625 40.5968 11.9278 40.8025 11.2697 40.8025C10.6116 40.8025 10.0769 40.5968 9.7067 40.1855C9.33652 39.7742 9.13086 39.2395 9.13086 38.5403ZM10.0357 38.4991C10.0357 38.9927 10.1591 39.3629 10.3648 39.6508C10.6116 39.8976 10.8995 40.021 11.2285 40.021C11.5987 40.021 11.8866 39.8976 12.0923 39.6508C12.3391 39.404 12.4213 38.9927 12.4213 38.4991C12.4213 38.0056 12.298 37.6354 12.0923 37.3475C11.8866 37.1007 11.5576 36.9773 11.2285 36.9773C10.8584 36.9773 10.5705 37.1007 10.3237 37.3475C10.1591 37.5943 10.0357 38.0056 10.0357 38.4991Z" fill="white"/>
<path d="M17.028 39.075L17.8917 39.3629C17.7683 39.8565 17.5215 40.1855 17.2336 40.4323C16.9046 40.6791 16.5344 40.8025 16.0408 40.8025C15.465 40.8025 14.9714 40.5968 14.6012 40.1855C14.231 39.7742 14.0254 39.2395 14.0254 38.5403C14.0254 37.7999 14.231 37.2241 14.6012 36.8128C14.9714 36.4015 15.465 36.1958 16.0819 36.1958C16.6166 36.1958 17.0691 36.3603 17.3981 36.6894C17.6038 36.895 17.7683 37.1418 17.8506 37.512L16.9868 37.7176C16.9457 37.4709 16.8223 37.3063 16.6578 37.1829C16.4933 37.0596 16.2876 36.9773 16.0408 36.9773C15.7118 36.9773 15.465 37.1007 15.2593 37.3475C15.0537 37.5943 14.9714 37.9644 14.9714 38.4991C14.9714 39.075 15.0537 39.4452 15.2593 39.6919C15.465 39.9387 15.7118 40.0621 16.0408 40.0621C16.2876 40.0621 16.4933 39.9799 16.6578 39.8565C16.8223 39.6508 16.9457 39.404 17.028 39.075Z" fill="white"/>
<path d="M21.5524 39.075L22.4161 39.3629C22.2927 39.8565 22.0459 40.1855 21.758 40.4323C21.429 40.6791 21.0588 40.8025 20.5652 40.8025C19.9894 40.8025 19.4958 40.5968 19.1256 40.1855C18.7555 39.7742 18.5498 39.2395 18.5498 38.5403C18.5498 37.7999 18.7555 37.2241 19.1256 36.8128C19.4958 36.4015 19.9894 36.1958 20.6064 36.1958C21.1411 36.1958 21.5935 36.3603 21.9225 36.6894C22.1282 36.895 22.2927 37.1418 22.375 37.512L21.5112 37.7176C21.4701 37.4709 21.3467 37.3063 21.1822 37.1829C21.0177 37.0596 20.812 36.9773 20.5652 36.9773C20.2362 36.9773 19.9894 37.1007 19.7837 37.3475C19.5781 37.5943 19.4958 37.9644 19.4958 38.4991C19.4958 39.075 19.5781 39.4452 19.7837 39.6919C19.9894 39.9387 20.2362 40.0621 20.5652 40.0621C20.812 40.0621 21.0177 39.9799 21.1822 39.8565C21.3878 39.6508 21.5112 39.404 21.5524 39.075Z" fill="white"/>
<path d="M23.3213 36.2783H24.1439V39.1986L25.9537 36.2783H26.8586V40.7205H26.0359V37.8413L24.2673 40.7205H23.3624V36.2783H23.3213Z" fill="white"/>
<path d="M27.8457 36.2774H28.6683V39.1977L30.4781 36.2774H31.383V40.7196H30.5604V37.8404L28.7917 40.7196H27.8868V36.2774H27.8457ZM30.1079 35.208H30.5192C30.4781 35.4959 30.3958 35.7016 30.2313 35.8661C30.0668 36.0306 29.8611 36.1129 29.5732 36.1129C29.2853 36.1129 29.0796 36.0306 28.9151 35.8661C28.7506 35.7016 28.6683 35.4959 28.6272 35.208H29.0385C29.0385 35.3314 29.1208 35.4548 29.203 35.5371C29.2853 35.6193 29.4087 35.6605 29.5732 35.6605C29.7377 35.6605 29.8611 35.6193 29.9434 35.5371C30.0668 35.4548 30.1079 35.3314 30.1079 35.208Z" fill="white"/>
<path d="M35.1666 39.075L36.0304 39.3629C35.907 39.8565 35.6602 40.1855 35.3723 40.4323C35.0432 40.6791 34.6731 40.8025 34.1795 40.8025C33.6036 40.8025 33.1101 40.5968 32.7399 40.1855C32.3697 39.7742 32.1641 39.2395 32.1641 38.5403C32.1641 37.7999 32.3697 37.2241 32.7399 36.8128C33.1101 36.4015 33.6037 36.1958 34.2206 36.1958C34.7553 36.1958 35.2078 36.3603 35.5368 36.6894C35.7425 36.895 35.907 37.1418 35.9893 37.512L35.1255 37.7176C35.0844 37.4709 34.961 37.3063 34.7964 37.1829C34.6319 37.0596 34.4263 36.9773 34.1795 36.9773C33.8504 36.9773 33.6037 37.1007 33.398 37.3475C33.1923 37.5943 33.1101 37.9644 33.1101 38.4991C33.1101 39.075 33.1923 39.4452 33.398 39.6919C33.6037 39.9387 33.8504 40.0621 34.1795 40.0621C34.4263 40.0621 34.6319 39.9799 34.7964 39.8565C34.961 39.6508 35.0844 39.404 35.1666 39.075Z" fill="white"/>
<path d="M36.8945 36.2779H37.7994V38.17C38.0051 38.17 38.1285 38.0877 38.2107 38.0055C38.293 37.9232 38.3753 37.6764 38.5398 37.3062C38.7043 36.8127 38.91 36.5247 39.1156 36.4013C39.2801 36.278 39.6092 36.2368 40.0205 36.2368H40.1439V36.8949H40.0205C39.856 36.8949 39.6914 36.936 39.6092 36.9772C39.5269 37.0183 39.4447 37.1006 39.4035 37.1828C39.3624 37.2651 39.2801 37.4707 39.1567 37.7587C39.1156 37.9232 39.0333 38.0466 38.9922 38.1288C38.91 38.2111 38.8277 38.3345 38.6632 38.4168C38.8688 38.4579 39.0333 38.5813 39.1567 38.7458C39.2801 38.9103 39.4447 39.1571 39.5681 39.4862L40.185 40.679H39.1156L38.5809 39.5273C38.5809 39.5273 38.5398 39.4862 38.5398 39.445C38.5398 39.445 38.4986 39.3628 38.4164 39.2394C38.293 39.0337 38.2107 38.8692 38.1285 38.8281C38.0462 38.7869 37.9228 38.7458 37.7994 38.7458V40.7201H36.8945V36.2779Z" fill="white"/>
<path d="M40.5547 38.5403C40.5547 38.0878 40.6369 37.7176 40.7603 37.3886C40.8426 37.1829 41.0071 36.9773 41.1717 36.7716C41.3362 36.6071 41.5418 36.4426 41.7475 36.3603C42.0354 36.2369 42.3233 36.1958 42.6935 36.1958C43.3516 36.1958 43.8452 36.4015 44.2565 36.8128C44.6267 37.2241 44.8323 37.7588 44.8323 38.4991C44.8323 39.1984 44.6267 39.7742 44.2565 40.1855C43.8863 40.5968 43.3516 40.8025 42.6935 40.8025C42.0354 40.8025 41.5007 40.5968 41.1305 40.1855C40.7603 39.7742 40.5547 39.2395 40.5547 38.5403ZM41.5007 38.4991C41.5007 38.9927 41.6241 39.3629 41.8298 39.6508C42.0765 39.8976 42.3645 40.021 42.6935 40.021C43.0637 40.021 43.3516 39.8976 43.5573 39.6508C43.804 39.404 43.8863 38.9927 43.8863 38.4991C43.8863 38.0056 43.7629 37.6354 43.5573 37.3475C43.3516 37.1007 43.0226 36.9773 42.6935 36.9773C42.3233 36.9773 42.0354 37.1007 41.7886 37.3475C41.6241 37.5943 41.5007 38.0056 41.5007 38.4991Z" fill="white"/>
<path d="M45.6553 36.2774H46.4779V39.1977L48.2877 36.2774H49.1925V40.7196H48.3699V37.8404L46.6013 40.7196H45.6964V36.2774H45.6553ZM47.9586 35.208H48.3699C48.3288 35.4959 48.2465 35.7016 48.082 35.8661C47.9175 36.0306 47.7118 36.1129 47.4239 36.1129C47.136 36.1129 46.9303 36.0306 46.7658 35.8661C46.6013 35.7016 46.519 35.4959 46.4779 35.208H46.8892C46.8892 35.3314 46.9715 35.4548 47.0537 35.5371C47.136 35.6193 47.2594 35.6605 47.4239 35.6605C47.5884 35.6605 47.7118 35.6193 47.7941 35.5371C47.8764 35.4548 47.9175 35.3314 47.9586 35.208Z" fill="white"/>
<path d="M10.2412 46.5603V47.095H9.37749V46.5603C8.67826 46.5192 8.18469 46.3546 7.89677 46.0256C7.60885 45.6965 7.44434 45.2852 7.44434 44.8328C7.44434 44.3392 7.60885 43.9279 7.89677 43.5988C8.18469 43.2698 8.67826 43.1053 9.37749 43.1053V42.6528H10.2412V43.1053C10.9405 43.1464 11.434 43.3109 11.722 43.64C12.0099 43.969 12.1744 44.3803 12.1744 44.8739C12.1744 45.3675 12.0099 45.7788 11.722 46.0667C11.434 46.3546 10.9405 46.5603 10.2412 46.5603ZM9.37749 45.8199V43.8456C9.00731 43.8456 8.71939 43.9279 8.55487 44.0924C8.39034 44.2569 8.30808 44.5037 8.30808 44.8328C8.30808 45.4909 8.63713 45.8199 9.37749 45.8199ZM10.2412 45.8199C10.488 45.8199 10.6937 45.7788 10.8582 45.6965C11.0227 45.6143 11.1461 45.532 11.2284 45.3675C11.3107 45.2441 11.3518 45.0384 11.3518 44.7916C11.3518 44.1335 10.9816 43.8456 10.2824 43.8456V45.8199H10.2412Z" fill="white"/>
<path d="M12.9561 47.0949V42.6938H16.2465V43.4342H13.8609V44.4214H16.082V45.1617H13.8609V46.3545H16.3288V47.0949H12.9561Z" fill="white"/>
<path d="M17.522 42.6528H20.5657V46.3135H20.9358V47.9999H20.1955V47.0539H17.3986V47.9999H16.6582V46.3135H17.0284C17.1929 45.9433 17.3163 45.4909 17.3986 44.9973C17.4397 44.5037 17.4808 43.8868 17.4808 43.1053V42.6528H17.522ZM18.3857 43.3932C18.3857 44.7505 18.2623 45.6965 18.0155 46.3135H19.7019V43.3932H18.3857Z" fill="white"/>
<path d="M21.6758 47.0949V42.6938H24.9663V43.4342H22.5807V44.4214H24.8017V45.1617H22.5807V46.3545H25.0485V47.0949H21.6758Z" fill="white"/>
<path d="M25.8711 47.0949V42.6938H27.3107C27.8454 42.6938 28.2156 42.735 28.3801 42.7761C28.6269 42.8584 28.8325 42.9818 28.9971 43.2285C29.1616 43.4342 29.2438 43.7221 29.2438 44.0923C29.2438 44.3802 29.2027 44.5859 29.0793 44.7915C28.9559 44.9972 28.8737 45.1206 28.7091 45.244C28.5446 45.3674 28.4212 45.4085 28.2567 45.4496C28.051 45.4908 27.722 45.5319 27.3518 45.5319H26.776V47.2183H25.8711V47.0949ZM26.776 43.4342V44.6681H27.2695C27.6397 44.6681 27.8454 44.627 27.9688 44.5859C28.0922 44.5447 28.1744 44.4625 28.2567 44.3802C28.339 44.298 28.339 44.1746 28.339 44.0512C28.339 43.8866 28.2978 43.7633 28.2156 43.6399C28.1333 43.5165 28.0099 43.4753 27.8454 43.4342C27.722 43.4342 27.5163 43.3931 27.1873 43.3931H26.776V43.4342Z" fill="white"/>
<path d="M33.5213 47.0949H32.5341L32.1639 46.1077H30.3953L30.0251 47.0949H29.0791L30.8066 42.6938H31.7526L33.5213 47.0949ZM31.876 45.3262L31.259 43.681L30.6421 45.3262H31.876Z" fill="white"/>
<path d="M34.0977 42.6528H35.0025V46.3135H36.73V42.6528H37.6349V46.3135H38.0051V47.9999H37.2647V47.0539H34.1388V42.6528H34.0977Z" fill="white"/>
<path d="M38.7041 42.6528H39.5267V45.5731L41.3365 42.6528H42.2414V47.0539H41.4188V44.1747L39.6501 47.0539H38.7041V42.6528Z" fill="white"/>
<path d="M43.2285 42.6528H44.0511V45.5731L45.8609 42.6528H46.7658V47.0539H45.9432V44.1747L44.1745 47.0539H43.2285V42.6528Z" fill="white"/>
</svg>
