<svg width="48" height="48" viewBox="0 0 48 48" fill="none" xmlns="http://www.w3.org/2000/svg">
<rect width="48" height="48" rx="10" fill="white"/>
<path d="M15.5096 20.1098L13.923 15.7059C13.3727 14.1783 13.0976 13.4145 12.4791 12.98C11.8606 12.5454 11.0488 12.5454 9.42512 12.5454H7.62109V23.3502H11.4458V16.66L13.8362 23.3502H17.1829L19.5733 16.66V23.3502H23.398V12.5454H21.594C19.9703 12.5454 19.1585 12.5454 18.54 12.98C17.9216 13.4145 17.6464 14.1783 17.0961 15.7059L15.5096 20.1098Z" fill="#120826"/>
<path d="M33.6769 20.1098L32.0904 15.7059C31.5401 14.1783 31.2649 13.4145 30.6465 12.98C30.028 12.5454 29.2162 12.5454 27.5925 12.5454H25.7885V23.3502H29.6132V16.66L32.0036 23.3502H35.3502L37.7407 16.66V23.3502H41.5654V12.5454H39.7614C38.1377 12.5454 37.3258 12.5454 36.7074 12.98C36.0889 13.4145 35.8138 14.1783 35.2634 15.7059L33.6769 20.1098Z" fill="#120826"/>
<path d="M7.62109 25.7406H23.398V29.0872H11.4458C11.4458 29.3536 11.4458 30.2517 11.4546 30.3641C11.5654 31.7708 12.6826 32.888 14.0893 32.9987C14.2016 33.0076 14.3348 33.0076 14.6012 33.0076H23.398V36.5454H18.4259C14.5871 36.5454 12.6677 36.5454 11.2089 35.7814C10.0022 35.1494 9.01708 34.1643 8.38508 32.9576C7.62109 31.4988 7.62109 29.5794 7.62109 25.7406Z" fill="#120826"/>
<path fill-rule="evenodd" clip-rule="evenodd" d="M38.2188 31.143C38.2188 29.1829 36.1152 28.1311 33.6769 28.1311C31.2387 28.1311 29.1351 29.1829 29.1351 31.143C29.1351 33.1032 31.2387 34.155 33.6769 34.155C36.1152 34.155 38.2188 33.1032 38.2188 31.143ZM33.6769 37.2147C38.6968 37.2147 42.0435 34.6331 42.0435 31.143C42.0435 27.653 38.6968 25.0713 33.6769 25.0713C28.657 25.0713 25.3104 27.653 25.3104 31.143C25.3104 34.6331 28.657 37.2147 33.6769 37.2147Z" fill="#120826"/>
</svg>
