<svg width="72" height="72" viewBox="0 0 72 72" fill="none" xmlns="http://www.w3.org/2000/svg">
<path d="M0 5C0 2.23857 2.23858 0 5 0H67C69.7614 0 72 2.23858 72 5V67C72 69.7614 69.7614 72 67 72H5C2.23857 72 0 69.7614 0 67V5Z" fill="white" fill-opacity="0.01" style="mix-blend-mode:multiply"/>
<path fill-rule="evenodd" clip-rule="evenodd" d="M61.577 16.2182C64.395 16.9109 66.6095 18.9446 67.3638 21.5324C68.727 26.2182 68.727 36.0004 68.727 36.0004C68.727 36.0004 68.727 45.7826 67.3584 50.4684C66.6041 53.0562 64.3896 55.0898 61.5716 55.7826C56.4691 57.0394 35.9997 57.0394 35.9997 57.0394C35.9997 57.0394 15.5304 57.0394 10.4278 55.7826C7.60987 55.0898 5.39537 53.0562 4.64104 50.4684C3.27246 45.7826 3.27246 36.0004 3.27246 36.0004C3.27246 36.0004 3.27246 26.2182 4.64104 21.5324C5.39537 18.9446 7.60987 16.9109 10.4278 16.2182C15.5304 14.9614 35.9997 14.9614 35.9997 14.9614C35.9997 14.9614 56.4691 14.9614 61.577 16.2182ZM47.6889 36.0003L28.9876 26.6496V45.3509L47.6889 36.0003Z" fill="#FF0000"/>
<path fill-rule="evenodd" clip-rule="evenodd" d="M47.6886 36.0015L28.9873 26.6509V45.3522L47.6886 36.0015Z" fill="white"/>
</svg>
